<svg xmlns="http://www.w3.org/2000/svg" width="381.7" height="364.486" viewBox="0 0 381.7 364.486">
  <g id="Grupo_2724"  transform="translate(11 -0.309)">
    <g id="Grupo_1353"  transform="translate(86.38 494.672) rotate(-13)">
      <path id="Trazado_4361" d="M245.392-382.765c-34.66-22.887-83.051-46.8-129.081-49.754s-65.7,12.146-77.452,23.455c-16.292,15.676-36.584,47.886-8.437,105.5,21.351,43.7-7.295,56.931-25.3,89.279-19.759,35.476,18.846,77.119,94.415,80.67,79.881,3.737,145.892-25.607,191.771-70.593,27.31-26.763,31.836-58.654,31.206-73.97C321.016-314.089,295.734-349.545,245.392-382.765Z" transform="translate(0)" fill="#cf4bf9"/>
    </g>
    <path id="Trazado_5314"  d="M232.059-385.489c-32.777-21.644-78.538-44.256-122.068-47.051S47.86-421.053,36.747-410.359c-15.407,14.824-34.6,45.284-7.978,99.77,20.191,41.324-6.9,53.838-23.921,84.429-18.686,33.549,17.822,72.929,89.285,76.287,75.541,3.534,137.966-24.216,181.352-66.757C301.31-241.94,305.591-272.1,305-286.583,303.575-320.544,279.667-354.073,232.059-385.489Z" transform="translate(27 473.18)" fill="#135771"/>
    <g id="Grupo_1352"  transform="translate(109 251.254)">
      <path id="Trazado_5261" d="M53.473-1.64C43.2,4.294,26.488,4.264,16.148-1.706S5.756-17.324,16.031-23.256s26.986-5.9,37.325.067S63.748-7.571,53.473-1.64Z" transform="translate(0.843 12.669)" fill="#0b384a"/>
      <path id="Trazado_5262" d="M123.088-5.249C112.813.685,96.1.654,85.763-5.316s-10.392-15.617-.117-21.551,26.985-5.9,37.325.068S133.363-11.181,123.088-5.249Z" transform="translate(7.86 12.305)" fill="#0b384a"/>
      <path id="Trazado_5263" d="M91.03-120.9q-.669.152-1.351.261c-.566.076-1.136.14-1.692.2a67.5,67.5,0,0,1-8.765.245,11.609,11.609,0,0,1-4.835-.94,13.9,13.9,0,0,1-1.422-.819,24.709,24.709,0,0,1-5.991-5.314c-.69-.822-1.347-1.691-1.962-2.571-1.073-1.541-1.975-3.189-3.011-4.76-.1-.143-.206-.282-.316-.422a2.607,2.607,0,0,1-.82-1.018c-1.165-2.246-.314-5.054-.32-7.463a5.21,5.21,0,0,0-.241-1.677c-.316-.853-1.026-1.59-1.093-2.509a.79.79,0,0,1,.216-.695.764.764,0,0,1,1.044.258,6.4,6.4,0,0,1,.451,1.111,2.313,2.313,0,0,0,.8,1,8.33,8.33,0,0,0-.27-2.05,5.681,5.681,0,0,1-.25-1.226,1.315,1.315,0,0,1,.474-1.116,3.9,3.9,0,0,0,.382-.24c.2-.163.287-.433.489-.594a1.142,1.142,0,0,1,1.351.123,3.409,3.409,0,0,1,1.227,1.427c.057.126.114.25.24.287l.282-.014.1.014c.359.023.579.445.69.823a16.659,16.659,0,0,1,.794,5.245,1.588,1.588,0,0,0,.163.872c.182-.22.436-.465.7-.38s.36.407.417.676c.091.609.2,1.212.308,1.83a5.272,5.272,0,0,1-.2,3.564c-.263.455-1.039.858-.862,1.437a2.293,2.293,0,0,0,.844,1,42.635,42.635,0,0,0,4.083,2.852,32.9,32.9,0,0,0,3.7,2.087c.149.063.283.129.427.176a5.3,5.3,0,0,0,2.035.119c.483-.034.972-.053,1.461-.073l0,.014a10.209,10.209,0,0,1,1.2-.033c.273,0,.559,0,.833.008a7.95,7.95,0,0,1,4.455,1.292,9.881,9.881,0,0,1,2.623,3.738C89.97-123.063,90.492-121.977,91.03-120.9Z" transform="translate(5.969 0.195)" fill="#ffcfb3"/>
      <path id="Trazado_5264" d="M88.419-122.669c-.566.076-1.136.14-1.692.2a67.5,67.5,0,0,1-8.765.245,11.609,11.609,0,0,1-4.835-.94,13.9,13.9,0,0,1-1.422-.819c.253.09.517.163.772.253a15.708,15.708,0,0,0,2.323.6,16.622,16.622,0,0,0,4.8.2,17.439,17.439,0,0,0,2.63-.494,1.814,1.814,0,0,0,1.288-.83,1.905,1.905,0,0,0-.346-1.7,25.443,25.443,0,0,0-3.054-4.075c-.356-.393-.72-.765-1.06-1.164a10.209,10.209,0,0,1,1.2-.033c.273,0,.559,0,.833.008a20.5,20.5,0,0,1,5.8,5.281A6.811,6.811,0,0,1,88.419-122.669Z" transform="translate(7.228 2.23)" fill="#ffbe99"/>
      <path id="Trazado_5265" d="M75.911-129.587a10.112,10.112,0,0,1-3.119-.875,51.11,51.11,0,0,1-5.784-3.547,2.68,2.68,0,0,0-1.845-.549c-.43.1-.848.379-1.251.226a4.429,4.429,0,0,0,2.519-3.459,10.282,10.282,0,0,0-.462-4.4,13.221,13.221,0,0,1-.558-2.529c-.13-1.538.129-2.966-.131-4.508a.923.923,0,0,1-.01-.364c.359.023.579.445.69.823a16.659,16.659,0,0,1,.794,5.245,1.588,1.588,0,0,0,.163.872c.182-.221.435-.465.7-.38s.36.407.418.676c.09.609.2,1.212.307,1.83a5.272,5.272,0,0,1-.2,3.564c-.263.455-1.039.858-.862,1.437a2.293,2.293,0,0,0,.844,1,42.635,42.635,0,0,0,4.083,2.852A32.9,32.9,0,0,0,75.911-129.587Z" transform="translate(6.443 0.38)" fill="#ffbe99"/>
      <path id="Trazado_5266" d="M104.781-22.132a3.081,3.081,0,0,1-.984,1.955,5.549,5.549,0,0,1-3.363.863,8.076,8.076,0,0,0-4.165,1.136c-.591.425-1.075.97-1.636,1.424a7.366,7.366,0,0,1-4.513,1.7,6.044,6.044,0,0,1-1.637-.121,2.228,2.228,0,0,1-.576-.227c-.97-.561-.863-2.213-.576-3.136a4.812,4.812,0,0,1,2.363-2.636,21.085,21.085,0,0,1,3.378-1.242A12.359,12.359,0,0,0,96.6-24.3l.076-.059a13.242,13.242,0,0,0,1.439-1.319l.166-.2A13.344,13.344,0,0,1,99.3-27.085a2.938,2.938,0,0,1,3.393-.121,4.976,4.976,0,0,1,1.878,2.862A5.446,5.446,0,0,1,104.781-22.132Z" transform="translate(8.783 12.669)" fill="#221f39"/>
      <path id="Trazado_5267" d="M89.6-15.207a5.107,5.107,0,0,1-1.245-.128,13.84,13.84,0,0,0,5.241-2.2,32.382,32.382,0,0,1,4.333-3.046c.878-.424,1.833-.667,2.682-1.121a2.838,2.838,0,0,0,1.059-.878,1.371,1.371,0,0,0,.136-1.318c-.318-.652-1.135-.8-1.832-.939a2.74,2.74,0,0,1-1.75-1.044,1.606,1.606,0,0,0,.507.347,5.093,5.093,0,0,0,2.087.441,5.006,5.006,0,0,0,1.9-.367l.152-.061a2.458,2.458,0,0,0,.869-.618,6.307,6.307,0,0,1,.707,1.632,6.218,6.218,0,0,1,.251,1.636,4.036,4.036,0,0,1-.04.576,3.081,3.081,0,0,1-.984,1.955,5.549,5.549,0,0,1-3.363.863,8.076,8.076,0,0,0-4.165,1.136c-.591.425-1.075.97-1.636,1.424A7.366,7.366,0,0,1,90-15.214C89.87-15.211,89.739-15.207,89.6-15.207Z" transform="translate(8.907 12.825)" fill="#312e48"/>
      <path id="Trazado_5268" d="M100.188-133.958c-.287.045-.863.773-1.105.97-.364.363-.712.727-1.046,1.105a6.827,6.827,0,0,0-.545.909c-.258.438-.605.848-.894,1.3a17.942,17.942,0,0,0-1.985,4.227c-.363,1.06-.757,2.1-1.2,3.152-.135.378-.3.741-.439,1.12l-.031.091c-.469,1.06-.908,2.137-1.271,3.241a19.366,19.366,0,0,0-.636,2.273,10.292,10.292,0,0,0-.334,2.06l.045.166-.061-.059a21.118,21.118,0,0,0-8.467-5.424,2.645,2.645,0,0,1-.681-.256,2.572,2.572,0,0,1-.894-1.348l-.076-.243a14.593,14.593,0,0,1-.272-1.848,19.207,19.207,0,0,0-.44-2.06,24.6,24.6,0,0,0-1.439-3.952,6.535,6.535,0,0,0-.8-1.32,6.663,6.663,0,0,0-1.2-1.044c2.106-.3,4.226-.274,6.347-.425a51.127,51.127,0,0,0,7.588-1.15c2.47-.547,4.955-.88,7.469-1.2l.227-.032C98.779-133.776,99.461-133.868,100.188-133.958Z" transform="translate(7.704 1.956)" fill="#00c7fc"/>
      <path id="Trazado_5269" d="M88.989-115a19.668,19.668,0,0,0-7.153-4.194,2.645,2.645,0,0,1-.681-.256,2.572,2.572,0,0,1-.894-1.348c.287-.045.591-.091.863-.107.288-.021.576-.03.862-.03.511,0,1.023.025,1.547.045.2,0,.409.015.622.03.091.006.183.009.273.009a1.46,1.46,0,0,0,1.2-.462,15.716,15.716,0,0,0,2.742-5.68,13.232,13.232,0,0,1,1.437-3.37c-.035.229-.048.467-.066.7C89.471-124.773,89.206-119.887,88.989-115Z" transform="translate(8.091 2.318)" fill="#00a9d9"/>
      <path id="Trazado_5270" d="M116.255-15.08a12.6,12.6,0,0,0-.818,1.03,6.626,6.626,0,0,0-.56,1.408,27.319,27.319,0,0,1-.954,2.909,7.582,7.582,0,0,1-4.954,4.165,7.408,7.408,0,0,1-2.938.2,5.413,5.413,0,0,1-.7-.107,7.169,7.169,0,0,1-1.757-.56c-.591-.288-.728-1.227-.728-1.788a3.948,3.948,0,0,1,1.212-2.089,28.471,28.471,0,0,0,2.5-2.909,10.431,10.431,0,0,0,.878-1.757c.425-1,.833-2.014,1.227-3.028.363-.91.712-1.819,1.045-2.743a12.977,12.977,0,0,1,.833-2.21l.046-.062a3.146,3.146,0,0,1,3.256-1.3,4.322,4.322,0,0,1,2.56,2.12A6.307,6.307,0,0,1,116.255-15.08Z" transform="translate(10.368 13.039)" fill="#221f39"/>
      <path id="Trazado_5271" d="M106.713-5.433a7.055,7.055,0,0,1-.974-.066,14.064,14.064,0,0,0,2.666-1.515,10.7,10.7,0,0,0,4.15-5.621c.5-1.771.455-3.7,1.2-5.362a1.814,1.814,0,0,0,.273-1.09c-.107-.516-.682-.773-1.182-.909-.757-.2-2.136-.349-2.68-1.015a.828.828,0,0,1-.174-.413,1.758,1.758,0,0,0,.6.245,5.26,5.26,0,0,0,1.35.174,5.257,5.257,0,0,0,2.164-.461,3.252,3.252,0,0,0,.349-.167,2.411,2.411,0,0,0,.984-.848,1.709,1.709,0,0,0,.121-.252,5.779,5.779,0,0,1,.561.8,6.518,6.518,0,0,1,.9,3.32,5.856,5.856,0,0,1-1.048,3.406,12.6,12.6,0,0,0-.818,1.03,6.626,6.626,0,0,0-.56,1.408,27.32,27.32,0,0,1-.954,2.909A7.582,7.582,0,0,1,108.677-5.7,7.544,7.544,0,0,1,106.713-5.433Z" transform="translate(10.659 13.168)" fill="#312e48"/>
      <path id="Trazado_5272" d="M105.24-31.629a90.387,90.387,0,0,1-1.409,11.407,2.314,2.314,0,0,1-1.029.832l-.152.061a5.123,5.123,0,0,1-3.984-.075c-.727-.334-.818-.8-.939-1.53-.09-.591-.182-1.181-.258-1.772q-.228-1.522-.455-3.045c-.455-3.105-.924-6.21-1.378-9.316Q95-39.249,94.409-43.429c-.045-.363-.106-.728-.151-1.092-.788-5.725-4.347-30.1-5.014-34.885-.045-.363-.076-.62-.091-.742a5.821,5.821,0,0,1,.182-3.014,6.777,6.777,0,0,1,5.923-3.726,7.928,7.928,0,0,1,5.953,3.65,13.118,13.118,0,0,1,2.317,6.771l.031.273q.454,4.724.787,9.481c.546,7.772.864,15.587.954,23.388C105.331-39.431,105.3-35.523,105.24-31.629Z" transform="translate(8.976 6.7)" fill="#8b575b"/>
      <path id="Trazado_5273" d="M102.8-19.914c-.061-6.771-.531-13.541-1.015-20.3-.364-5.286-.742-10.558-1.257-15.829-.591-6.09-1.409-12.315-4.226-17.754a12.671,12.671,0,0,0-2.576-3.589c-1.2-1.092-3.2-1.576-4.484-2.546-.045-.363-.076-.62-.091-.742-.04-.336-.079-.68-.1-1.025a2.988,2.988,0,0,0,1.038,1.252,25.966,25.966,0,0,0,7.664,3.484c.226.062.45.12.677.176q.246.974.505,1.945c.3,1.122.605,2.241.894,3.363.66,2.492,3.31,14.141,5.406,23.84q.04,1.894.062,3.788.013,1.552.012,3.105,0,4.295-.073,8.59a90.387,90.387,0,0,1-1.409,11.407A2.314,2.314,0,0,1,102.8-19.914Z" transform="translate(8.977 7.224)" fill="#4b1d20"/>
      <path id="Trazado_5274" d="M115.991-61.311a56.8,56.8,0,0,0,.061,12.208c.41,4.863.605,9.634.743,14.482.061,2.576.09,5.135.045,7.695-.061,3.121.03,6.226-.107,9.361a3.244,3.244,0,0,1-.318,1.47,2.411,2.411,0,0,1-.984.848,3.252,3.252,0,0,1-.349.167,5.3,5.3,0,0,1-3.514.287c-.8-.211-.849-.439-1.015-1.181-.211-.925-2.938-15.935-3.635-19.691-1.409-7.651-6.8-31.659-7.786-35.37-.288-1.122-.591-2.241-.894-3.363A63.891,63.891,0,0,1,96-86.063a3.9,3.9,0,0,0,3.529,1.757,38.756,38.756,0,0,1,5.119-.787,22.677,22.677,0,0,1,6.984.833c.591.166,1.167.363,1.743.576a9.529,9.529,0,0,0,1.393.636,1.476,1.476,0,0,0,1.016-.334c.2-.121.454-.5.681-.5.439.014.8.984.908,1.318a11.678,11.678,0,0,1,.319,3.241,55.168,55.168,0,0,1-.183,6.105C117.188-69.234,116.52-65.264,115.991-61.311Z" transform="translate(9.677 6.784)" fill="#8b575b"/>
      <path id="Trazado_5275" d="M114.923-15.536q-.771-25.379-2.68-50.745c-.137-1.712-.318-3.545-1.409-4.878-1.6-1.908-4.438-2.014-6.906-2.362a25.933,25.933,0,0,1-5.848-1.333q-.258-.971-.505-1.945a27.553,27.553,0,0,0,6.561.794,26.909,26.909,0,0,0,5.093-.484,24.493,24.493,0,0,0,4.484-1.288,6.191,6.191,0,0,0,3.469-2.863,3.148,3.148,0,0,0,.294-.9c.044.59.037,1.186.055,1.768q.02.69.02,1.383c0,1.574-.074,3.153-.2,4.722-.318,3.984-.985,7.953-1.515,11.906a39.214,39.214,0,0,0-.308,5.095c0,2.373.166,4.751.369,7.113.41,4.863.605,9.634.743,14.482.041,1.73.067,3.453.067,5.175q0,1.26-.022,2.52c-.023,1.194-.024,2.388-.024,3.58v.219c0,1.85,0,3.7-.083,5.562a3.244,3.244,0,0,1-.318,1.47,2.411,2.411,0,0,1-.984.848A3.252,3.252,0,0,1,114.923-15.536Z" transform="translate(9.836 7.239)" fill="#4b1d20"/>
      <path id="Trazado_5276" d="M124.874-119.509c-.908,2.438-2.06,4.786-3.059,7.195-.09.258-.2.515-.3.773-.061.137-.107.273-.167.425A60.5,60.5,0,0,0,117.3-90.228a61.047,61.047,0,0,0,.787,10.648c.242,1.454.757,2.758.076,4.12A6.191,6.191,0,0,1,114.7-72.6a24.493,24.493,0,0,1-4.484,1.288,27.347,27.347,0,0,1-12.331-.485,25.966,25.966,0,0,1-7.664-3.484c-1.182-.818-1.378-2.12-1.546-3.469-.56-4.392-.424-8.725-.666-13.117-.258-4.681-.228-9.332-.106-14.027.227-7.847.651-15.679,1.074-23.51a4.278,4.278,0,0,1,.183-1.166c.5-1.424,2.241-1.893,3.725-2.075a45.407,45.407,0,0,1,19.163,1.969,2.507,2.507,0,0,0,.318.106,26.242,26.242,0,0,1,12.012,7.771,3.434,3.434,0,0,1,.8,1.423A3.584,3.584,0,0,1,124.874-119.509Z" transform="translate(8.852 2.058)" fill="#00c7fc"/>
      <path id="Trazado_5277" d="M108.19-72.234c-.031-.59-.046-1.167-.076-1.758-.242-5.179-.3-10.376-.182-15.557a98.63,98.63,0,0,1,1.878-18.4,51.8,51.8,0,0,1,3.726-11.238c.56-1.179,1.446-3.812,2.7-4.574-.643,1.656-1.126,3.378-1.608,5.088a19.848,19.848,0,0,0-.757,3.484,1.48,1.48,0,0,0,.712,1.651,2.984,2.984,0,0,1,1.515,2.166c.4,1.736.844,3.452,1.309,5.165a60.736,60.736,0,0,0-2.127,15.057c0,.279-.006.557-.006.834a60.915,60.915,0,0,0,.793,9.814,16.722,16.722,0,0,1,.415,2.633,3.245,3.245,0,0,1-.339,1.487,6.191,6.191,0,0,1-3.469,2.863A24.494,24.494,0,0,1,108.19-72.234Z" transform="translate(10.874 2.983)" fill="#00a9d9"/>
      <path id="Trazado_5278" d="M112.853-127.726c.121.8-.575,1.47-1.242,1.924a14.516,14.516,0,0,1-5.953,2.333,13.056,13.056,0,0,1-2.772.2,5.566,5.566,0,0,1-2.954-.788,2.276,2.276,0,0,1-.925-1.167,4.037,4.037,0,0,1,.318-2.3,3.171,3.171,0,0,0,.121-2.014,13.418,13.418,0,0,1-.635-2.409,7,7,0,0,1,.863-4.71,19.2,19.2,0,0,1,3.242-3.332,32.185,32.185,0,0,0,3.468-4.243l.228-.2c.212-.059.363.212.424.425a29.235,29.235,0,0,1,.8,3.408q.135.75.227,1.5c.182,1.515.258,3.059.56,4.56a8.618,8.618,0,0,0,1.909,4.12c.605.653,1.348,1.166,1.909,1.863A1.791,1.791,0,0,1,112.853-127.726Z" transform="translate(9.952 0.899)" fill="#ffcfb3"/>
      <path id="Trazado_5279" d="M112.251-128.078c.121.8-.575,1.47-1.242,1.924a14.516,14.516,0,0,1-5.953,2.333,5.832,5.832,0,0,0,1.651-2.7,5.709,5.709,0,0,0-.273-2.407c-.151-.683-.332-1.347-.529-2.03-.076-.243-.136-.484-.212-.727a26.89,26.89,0,0,1-.954-4.2,5.272,5.272,0,0,1,.878-3.635,4.472,4.472,0,0,1,1.621-1.439q.135.75.227,1.5c.182,1.515.258,3.059.56,4.56a8.618,8.618,0,0,0,1.909,4.12c.605.653,1.348,1.166,1.909,1.863A1.791,1.791,0,0,1,112.251-128.078Z" transform="translate(10.554 1.25)" fill="#ffbe99"/>
      <path id="Trazado_5280" d="M108.367-137a4.967,4.967,0,0,1-.605,1.681,3.229,3.229,0,0,1-1.864,1.242c-.121.046-.318.032-.41.091-.241.152-.287.833-.363,1.092a14.274,14.274,0,0,1-1.075,2.469,5.738,5.738,0,0,1-1.166,1.59,5.608,5.608,0,0,1-1.7.97,21.021,21.021,0,0,1-3.166.938,10.452,10.452,0,0,1-1.819.319h-.03a1.568,1.568,0,0,1-1.076-.47c-.287-.349-.242-.907-.409-1.319a15.528,15.528,0,0,0-.545-1.634,3.328,3.328,0,0,1-.348-.881,5.275,5.275,0,0,1-.046-.7,1.791,1.791,0,0,0-.7-1.257,2.188,2.188,0,0,1-.515-.455,1.406,1.406,0,0,1,.061-1.151,11.756,11.756,0,0,0,.607-2.393,3.04,3.04,0,0,0-.031-1.333,19.224,19.224,0,0,0-1-1.713,4.046,4.046,0,0,1-.166-1.756c.03-.591.09-1.182.09-1.773a6.328,6.328,0,0,1-.03-1.2,5.351,5.351,0,0,1,.939-2.2,4.036,4.036,0,0,1,1.439-1.544,5.543,5.543,0,0,1,6.59,1.348,8.657,8.657,0,0,1,.924,1.423c.243.455.47.925.728,1.379a4.908,4.908,0,0,0,2.212,2.316,15.832,15.832,0,0,1,2.393.8,2.8,2.8,0,0,1,1.167,1.863A5.88,5.88,0,0,1,108.367-137Z" transform="translate(9.273 0.446)" fill="#ffcfb3"/>
      <path id="Trazado_5281" d="M107.981-137.3a4.967,4.967,0,0,1-.605,1.681,3.229,3.229,0,0,1-1.864,1.242c-.121.046-.318.032-.41.091-.241.152-.287.833-.363,1.092a14.274,14.274,0,0,1-1.075,2.469,5.738,5.738,0,0,1-1.166,1.59,5.608,5.608,0,0,1-1.7.97,21.021,21.021,0,0,1-3.166.938,10.452,10.452,0,0,1-1.819.319,10.178,10.178,0,0,0,1.424-1.257,8.2,8.2,0,0,0,2.181-4.12,8.61,8.61,0,0,0-.076-3.181c-.378-1.954-1.15-3.787-1.574-5.71a7.655,7.655,0,0,1-.3-2.863c.136-.757,1.121-1.3,1.772-1.546a8.1,8.1,0,0,1,2.167-.318h.166c.243.455.47.925.728,1.379a4.908,4.908,0,0,0,2.212,2.316,15.832,15.832,0,0,1,2.393.8,2.8,2.8,0,0,1,1.167,1.863A5.88,5.88,0,0,1,107.981-137.3Z" transform="translate(9.659 0.751)" fill="#ffbe99"/>
      <path id="Trazado_5282" d="M112.324-142.232a18.7,18.7,0,0,1-1.955,7.847,2.035,2.035,0,0,1-.652.863.724.724,0,0,1-.984-.09.966.966,0,0,1-.106-.681,16.048,16.048,0,0,0,.182-3.06,2.578,2.578,0,0,0-1.772-2.273,2.626,2.626,0,0,0-2.666,1.743,22.638,22.638,0,0,0-.787,3.363c-.485-2.014-1.151-4.165-2.848-5.348a8.514,8.514,0,0,1-1.515-1.074,3.1,3.1,0,0,1-.757-1.364,2.119,2.119,0,0,0-.485-1.136l-.09-.106a1.831,1.831,0,0,0-1.3-.167,13.325,13.325,0,0,1-3.543.212,1.9,1.9,0,0,1-1.212-.515,1.651,1.651,0,0,1-.439-.985c-.288-1.954,1.453-3.7,2.8-4.831a15.519,15.519,0,0,1,4.151-2.652,9.768,9.768,0,0,1,9.967,1.106,9.414,9.414,0,0,1,1.546,1.546A12.144,12.144,0,0,1,112.324-142.232Z" transform="translate(9.21)" fill="#34324c"/>
      <path id="Trazado_5283" d="M108.634-133.555a.6.6,0,0,1-.507-.239.793.793,0,0,1-.122-.457,1.672,1.672,0,0,1,.017-.225c.061-.821.217-1.633.217-2.443a5.05,5.05,0,0,0-.035-.618,3.327,3.327,0,0,0-.22-.82,2.286,2.286,0,0,0-1.552-1.453,1.683,1.683,0,0,0-.36-.039,2.813,2.813,0,0,0-2.306,1.781,22.638,22.638,0,0,0-.787,3.363c-.485-2.014-1.151-4.165-2.848-5.348a8.514,8.514,0,0,1-1.515-1.074,3.1,3.1,0,0,1-.757-1.364,2.119,2.119,0,0,0-.485-1.136q.182-.023.409-.046a9.924,9.924,0,0,0,2.56-.575,11.809,11.809,0,0,0,4.347-2.832,15.336,15.336,0,0,0,3.015-4.485,9.414,9.414,0,0,1,1.546,1.546,12.127,12.127,0,0,1,2.469,7.541v.064a18.7,18.7,0,0,1-1.955,7.847,2.035,2.035,0,0,1-.652.863A.842.842,0,0,1,108.634-133.555Z" transform="translate(9.816 0.181)" fill="#221f39"/>
      <path id="Trazado_5284" d="M129.754-67.308a9.124,9.124,0,0,1-.922,2.666,2.065,2.065,0,0,1-1.561,1.181,2.547,2.547,0,0,0-.484.045,1.063,1.063,0,0,0-.38.258,6.851,6.851,0,0,1-1.287.864l-.273.151a2.564,2.564,0,0,1-1.817.288.677.677,0,0,1-.348-.2.636.636,0,0,1,.03-.742,3.419,3.419,0,0,1,.576-.559,5.633,5.633,0,0,0,.939-1.122,5.622,5.622,0,0,0,.939-1.757,5.7,5.7,0,0,0-.061-2.318.6.6,0,0,0-.106-.287l-.258-.061-.106.2c-.273,1.44-.636,3-1.772,3.909a.725.725,0,0,1-.379.167.8.8,0,0,1-.363-.092c-.214-.09-.455-.211-.516-.438a.9.9,0,0,1,0-.394c.167-.894.319-1.8.47-2.711a17.056,17.056,0,0,1,.439-1.985,13.5,13.5,0,0,1,.681-1.667,13.642,13.642,0,0,1,.818-1.438,15.4,15.4,0,0,0,.909-1.561c.924-1.923-.152-4.589-.712-6.468-.334-1.15-.7-2.286-1.074-3.424-.622-1.892-1.274-3.771-1.894-5.649a60.935,60.935,0,0,1-1.969-7.271c-.484-2.5-1.242-4.924-1.636-7.453l-.03-.259c-.076-.5-.152-1-.212-1.5-.076-.8-.136-1.6-.151-2.409,0,.242.469.425.832.515a2.254,2.254,0,0,0,.334.062,3.618,3.618,0,0,0,1.363-.4c1.167-.348,2.334-.711,3.5-1.059.393-.122,1.105-.2,1.393-.515a1.327,1.327,0,0,0,.242-.485,1.615,1.615,0,0,0,.121-.546c.045.2.091.38.137.577.424,1.741.833,3.5,1.182,5.271.318,1.575.575,3.151.954,4.711.379,1.515.893,2.984,1.181,4.529a61.91,61.91,0,0,1,.787,7.1c.166,2.151.318,4.3.47,6.453.136,1.727.363,3.469.394,5.21.03,1.772-.046,3.561-.017,5.332A20.325,20.325,0,0,1,129.754-67.308Z" transform="translate(11.819 4.192)" fill="#ffcfb3"/>
      <path id="Trazado_5285" d="M129.741-67.354a9.124,9.124,0,0,1-.922,2.666,2.065,2.065,0,0,1-1.561,1.181,2.547,2.547,0,0,0-.484.045,1.063,1.063,0,0,0-.38.258,6.851,6.851,0,0,1-1.287.864,8.226,8.226,0,0,0,1.787-1.833,11.16,11.16,0,0,0,1.637-5.014c.984-7.817-1-15.648-1.985-23.449a25.636,25.636,0,0,0-1.242-6.332c-.833-2.2-2.576-4.392-5.03-4.695a2.873,2.873,0,0,1-2.68-1.819,2.29,2.29,0,0,1-.2-.742,4.384,4.384,0,0,1-.015-.757,4.153,4.153,0,0,1,.681-1.893,4.44,4.44,0,0,1,.894-1.015,7.778,7.778,0,0,1,5.151-1.424c.258.017.531.017.787.046l.258.031c.424,1.741.833,3.5,1.182,5.271.318,1.575.575,3.151.954,4.711.379,1.515.893,2.984,1.181,4.529a61.91,61.91,0,0,1,.787,7.1c.166,2.151.318,4.3.47,6.453.136,1.727.363,3.469.394,5.21.03,1.772-.046,3.561-.017,5.332A20.325,20.325,0,0,1,129.741-67.354Z" transform="translate(11.832 4.238)" fill="#ffbe99"/>
      <path id="Trazado_5286" d="M126.91-106.148a5.4,5.4,0,0,1-.818.954,6.6,6.6,0,0,1-1.878,1.258l-.182.09a9.163,9.163,0,0,1-2.3.576,9.3,9.3,0,0,1-2.969-.03c-.334-.062-1.03-.121-1.257-.394a3.265,3.265,0,0,1-.334-1.151c-.576-2.09-1.136-4.181-1.62-6.3a2.984,2.984,0,0,0-1.515-2.166,1.48,1.48,0,0,1-.712-1.651,19.848,19.848,0,0,1,.757-3.484,50.751,50.751,0,0,1,1.8-5.573l.076-.183a3.1,3.1,0,0,1,.833-1.3,2.026,2.026,0,0,1,.878-.41l.212-.061c2.136-.424,3.484,1.105,4.665,2.62,1.757,2.258,2.423,4.817,3.136,7.528a46.876,46.876,0,0,1,1.015,4.954c.12.849.227,1.712.3,2.576A3.826,3.826,0,0,1,126.91-106.148Z" transform="translate(11.422 2.753)" fill="#00c7fc"/>
      <path id="Trazado_5287" d="M123.814-103.935A57.243,57.243,0,0,0,118.74-124.2a5.4,5.4,0,0,0-1.47-1.712l.212-.061a3.667,3.667,0,0,1,.708-.072c1.736,0,2.913,1.352,3.957,2.691,1.757,2.258,2.423,4.817,3.136,7.528a46.876,46.876,0,0,1,1.015,4.954c.12.849.227,1.712.3,2.576a12.282,12.282,0,0,1,.111,1.234,1.744,1.744,0,0,1-.2.916,5.4,5.4,0,0,1-.818.954A6.6,6.6,0,0,1,123.814-103.935Z" transform="translate(11.822 2.753)" fill="#00a9d9"/>
      <path id="Trazado_5288" d="M33.78-118.274c-.531.561-1.378.607-2.014.985-.773.455-.636,1.485-.546,2.258a5.163,5.163,0,0,1-.348,3.453,4.14,4.14,0,0,1-1.924,1.454,9.815,9.815,0,0,1-1.453.515,11.653,11.653,0,0,1-6.862-.137,7.026,7.026,0,0,1-1.985-1.015,1.726,1.726,0,0,1-.575-.667c-.456-1.074.514-2.271.893-3.2a10.747,10.747,0,0,0,.743-3.515c.045-1.241-.136-2.483-.183-3.741a2.466,2.466,0,0,1,.122-1.046,2.589,2.589,0,0,1,.605-.787c.681-.681,1.363-1.333,2.06-1.985.591-.56,1.091-1.2,1.7-1.711a17.5,17.5,0,0,0,3.438-3.879c1-1.56,1.757-3.3,3.09-4.574.318-.288.954-.818,1.424-.591l.03.014a.944.944,0,0,1,.273.228,5.449,5.449,0,0,1,.728.97c.242.424.439.909.651,1.348a5.335,5.335,0,0,1,.515,3.241c-.121.607-.408,1.167-.531,1.758a8.232,8.232,0,0,0,.167,2.908,48.479,48.479,0,0,1,.469,5.544A2.955,2.955,0,0,1,33.78-118.274Z" transform="translate(1.81 1.699)" fill="#ffcfb3"/>
      <path id="Trazado_5289" d="M32.943-118.3c-.531.561-1.378.607-2.014.985-.773.455-.636,1.485-.546,2.258a5.163,5.163,0,0,1-.348,3.453,4.14,4.14,0,0,1-1.924,1.454,9.815,9.815,0,0,1-1.453.515c-.015-.591-.167-1.651-.183-1.773-.045-1.15.061-2.316.061-3.468.015-2.394-.014-4.772-.121-7.15-.2-4.317-.742-9.253,2.469-12.664a4.845,4.845,0,0,1,2.545-1.546,5.449,5.449,0,0,1,.728.97c.242.424.439.909.651,1.348a5.335,5.335,0,0,1,.515,3.241c-.121.607-.408,1.167-.531,1.758a8.232,8.232,0,0,0,.167,2.908,48.479,48.479,0,0,1,.469,5.544A2.955,2.955,0,0,1,32.943-118.3Z" transform="translate(2.647 1.726)" fill="#ffbe99"/>
      <path id="Trazado_5290" d="M32.75-126.7c-.076.349-.137.895-.666.667-.38-.166-.212-.408-.258-.667a3.1,3.1,0,0,0-.349-.969,1.639,1.639,0,0,0-.953-.878,1.382,1.382,0,0,0-1.395.635,3.738,3.738,0,0,0-.514,1.544,13.117,13.117,0,0,1-1.394,4.7,9.14,9.14,0,0,1-1.531,1.816,6.7,6.7,0,0,1-1.574,1.258c-1.893,1-4.362.211-5.847-1.333a12.36,12.36,0,0,1-2.7-5.741,17.338,17.338,0,0,1-.394-7.3,10.09,10.09,0,0,1,.515-1.909,8.037,8.037,0,0,1,2.06-3.075,10.283,10.283,0,0,1,3.7-1.924,12.641,12.641,0,0,1,5.423-.379,9.5,9.5,0,0,1,5.741,2.711,2.872,2.872,0,0,1,1.015,2.031l-.03.166c-.061.454-.288.878-.364,1.318-.166.969.334,1.909.455,2.893C33.872-129.637,33.128-128.182,32.75-126.7Z" transform="translate(1.507 1.308)" fill="#34324c"/>
      <path id="Trazado_5291" d="M22.256-118.611a5.731,5.731,0,0,1-3.987-1.778,12.36,12.36,0,0,1-2.7-5.741,19.046,19.046,0,0,1-.622-4.719,14.021,14.021,0,0,1,.228-2.582,5.927,5.927,0,0,0,2.212,1.53,11.43,11.43,0,0,0,4.845,1.016c.375,0,.751-.015,1.124-.046a14.56,14.56,0,0,0,3.407-.743,21.368,21.368,0,0,0,6.833-4.135c-.061.454-.288.878-.364,1.318a2.429,2.429,0,0,0-.033.407,21.807,21.807,0,0,0,.488,2.486,3.811,3.811,0,0,1,.029.474,16.788,16.788,0,0,1-.968,3.964c-.064.292-.117.72-.441.72a.57.57,0,0,1-.225-.053.349.349,0,0,1-.256-.356c0-.065.008-.132.008-.2a.627.627,0,0,0-.009-.11,3.1,3.1,0,0,0-.349-.969,1.639,1.639,0,0,0-.953-.878.948.948,0,0,0-.247-.032,1.479,1.479,0,0,0-1.148.667,3.738,3.738,0,0,0-.514,1.544,15.576,15.576,0,0,1-1.091,4.146q-.137.282-.3.552a9.14,9.14,0,0,1-1.531,1.816,6.7,6.7,0,0,1-1.574,1.258A3.951,3.951,0,0,1,22.256-118.611Z" transform="translate(1.507 1.769)" fill="#221f39"/>
      <path id="Trazado_5292" d="M12.5-93.947c-.061.334-.137.667-.212,1a24.252,24.252,0,0,1-1.757,5.074c-.332.667-.727,1.3-1.06,1.969A11.044,11.044,0,0,0,8.96-84.51c-.076.273-.152.531-.227.788-.425,1.439-.758,2.939-1.243,4.347-.515,1.529-1.045,3.059-1.6,4.59a19.962,19.962,0,0,1-.833,1.953,1.346,1.346,0,0,0,.137,1.364l.045.061c.258.3.515.622.757.954A8.266,8.266,0,0,1,7.1-68.377c.363,1.03.469,2.121.877,3.121a1.66,1.66,0,0,1,.167.529.512.512,0,0,1-.211.485.657.657,0,0,1-.622-.045,2.693,2.693,0,0,1-1.5-2,1.862,1.862,0,0,0-.136-.637.453.453,0,0,0-.545-.242,5.919,5.919,0,0,0,.8,2.454,17.259,17.259,0,0,1,.757,2.469c.061.227.061.576-.182.605-.152.031-.273-.09-.394-.2-.106-.1-.287-.2-.408-.1a5,5,0,0,1,.363,1.318c.015.182,0,.393-.152.469l-.273.046-.211.12a.568.568,0,0,1-.591-.09,3.957,3.957,0,0,0-.514-.363l-.167-.031-.2.136a.639.639,0,0,1-.636.046,1.75,1.75,0,0,1-.545-.4A11.481,11.481,0,0,1,.462-63.939a5.283,5.283,0,0,1-.439-1.409,7.909,7.909,0,0,1,.243-2.3A19.016,19.016,0,0,0,.4-70.422c.045-1.243-.015-2.485.014-3.726.031-1.817.137-3.621.3-5.424a54.116,54.116,0,0,1,.636-5.437A50.729,50.729,0,0,1,2.9-90.584c.636-2.06,1.288-4.1,2.014-6.119a4.939,4.939,0,0,1,.939-1.787,4.054,4.054,0,0,0,.621,2.241l.046.061c.227.227.59.41.848.621a6.1,6.1,0,0,0,.985.7A11.48,11.48,0,0,0,12.5-93.947Z" transform="translate(0 5.531)" fill="#ffcfb3"/>
      <path id="Trazado_5293" d="M12.144-94.152c-.061.334-.137.667-.212,1a24.252,24.252,0,0,1-1.757,5.074c-.332.667-.727,1.3-1.06,1.969A11.044,11.044,0,0,0,8.6-84.715c-.076.273-.152.531-.227.788-.425,1.439-.758,2.939-1.243,4.347-.515,1.529-1.045,3.059-1.6,4.59a19.961,19.961,0,0,1-.833,1.953,1.346,1.346,0,0,0,.137,1.364L4.6-71.885a4.386,4.386,0,0,1-.515-2.848c.318-3.953,2.106-7.633,2.97-11.512.3-1.318.439-2.817-.394-3.877-.939-1.182-3.681-2.09-2.969-4.106a3.6,3.6,0,0,1,2.423-2.226l.046.061c.227.227.59.41.848.621a6.1,6.1,0,0,0,.985.7A11.48,11.48,0,0,0,12.144-94.152Z" transform="translate(0.36 5.736)" fill="#ffbe99"/>
      <path id="Trazado_5294" d="M30.826-18.964a2.548,2.548,0,0,1-1.046,2.106,4.612,4.612,0,0,1-1.09.712,7.338,7.338,0,0,1-1.3.531,13.5,13.5,0,0,0-3.045,1.181c-.864.56-1.546,1.364-2.379,1.969a6.429,6.429,0,0,1-3.014,1.212c-.924.12-1.772,0-2.181-.909a3.821,3.821,0,0,1-.243-2.286,24.419,24.419,0,0,1,1-2.652c.106-.318.2-.666.272-1,.045-.166.076-.348.106-.515.062-.349.107-.7.152-1.06l.015-.167a2,2,0,0,1,.363-1.105,1.647,1.647,0,0,1,.939-.514c.182-.062.363-.107.531-.152a3.069,3.069,0,0,1,1.954.106,1.543,1.543,0,0,1,.712.424c.2.258.258.576.5.8a1.984,1.984,0,0,0,1.786.408,13.327,13.327,0,0,0,1.8-.636,7.449,7.449,0,0,1,1.8-.363,3.267,3.267,0,0,1,1.271.121,1.569,1.569,0,0,1,.939.787A2.263,2.263,0,0,1,30.826-18.964Z" transform="translate(1.658 13.269)" fill="#312e48"/>
      <path id="Trazado_5295" d="M17.685-18.348a1.426,1.426,0,0,1-.045-.92,1.374,1.374,0,0,0,.121.572C17.74-18.579,17.716-18.46,17.685-18.348Z" transform="translate(1.773 13.517)" fill="#1895a2"/>
      <path id="Trazado_5296" d="M19-17.539a1.342,1.342,0,0,1-1.309-.6l-.015-.045c.031-.112.055-.231.076-.348a1.711,1.711,0,0,0,.681.393,3.753,3.753,0,0,0,1.475.3h.1a4.7,4.7,0,0,0,2.272-.652l.076-.031a2.382,2.382,0,0,0,1.181-1.227,1.776,1.776,0,0,0,.073-.241,2.16,2.16,0,0,0,.6.081,2.72,2.72,0,0,0,.521-.052,13.327,13.327,0,0,0,1.8-.636,7.437,7.437,0,0,1,1.34-.314q.045,1.4.094,2.8a1.724,1.724,0,0,0-.66-.331,2.264,2.264,0,0,0-.5-.05c-.165,0-.328.012-.488.02a38.772,38.772,0,0,0-5.3.605A10.4,10.4,0,0,1,19-17.539Z" transform="translate(1.782 13.352)" fill="#221f39"/>
      <path id="Trazado_5297" d="M18.407-115.678c-.439.062-1.075,1.061-1.3,1.395a3.137,3.137,0,0,0-.56,1.817,4.054,4.054,0,0,1-.091.849c-.121.711-.379,1.423-.56,2.119s-.2,1.395-.334,2.106c-.318,1.56-.59,3.136-.8,4.711-.09.7-.166,1.394-.212,2.09-.242,3.333-.075,6.726-.529,10.028a.926.926,0,0,1-.091.348.854.854,0,0,1-.332.273,8.4,8.4,0,0,1-5.453.894A8.253,8.253,0,0,1,4.532-90.5a2.924,2.924,0,0,1-1.061-3.3c.228-1.211.47-2.407.757-3.6a47.167,47.167,0,0,1,2.258-7.15,45.522,45.522,0,0,1,3.075-6.059,9.038,9.038,0,0,1,1.833-2.3,9.416,9.416,0,0,1,2.818-1.772A16.562,16.562,0,0,1,18.407-115.678Z" transform="translate(0.339 3.798)" fill="#864e6e"/>
      <path id="Trazado_5298" d="M9.146-89.655A8.629,8.629,0,0,1,7.7-89.777c.015-.561.045-1.137.09-1.7.242-3.105.546-6.194.894-9.285.152-1.378.318-2.741.56-4.1a29.353,29.353,0,0,1,.809-3.573c-.02,1.31.1,2.7.221,4.119q.621,7.151,1.369,14.29A8.472,8.472,0,0,1,9.146-89.655Z" transform="translate(0.776 4.528)" fill="#541b38"/>
      <path id="Trazado_5299" d="M44.077-9.686a2.022,2.022,0,0,1-.363.349,4.949,4.949,0,0,1-1.924.772,18.711,18.711,0,0,1-2.272.288c-.59.076-1.181.151-1.772.212a12.491,12.491,0,0,0-4.574.848,17.534,17.534,0,0,0-2.107,1.378c-1.3.849-3.09,1.091-4.18-.2-1.348-1.606-.182-3.439.287-5.121l.076-.258c.228-.953.061-2.772,1.03-3.363a8.176,8.176,0,0,1,.984-.575L29.4-15.4a4.764,4.764,0,0,1,2.439-.152c1.318.212,2.6.651,3.923.863a34.478,34.478,0,0,0,5.3.121q.21,0,.433,0c1.307,0,2.9-.007,3.416,1.394A3.685,3.685,0,0,1,44.077-9.686Z" transform="translate(2.647 13.883)" fill="#312e48"/>
      <path id="Trazado_5300" d="M43.965-9.756a1.934,1.934,0,0,0-.015-.666A2.777,2.777,0,0,0,42.5-12.24a6.136,6.136,0,0,0-2.317-.605,16.244,16.244,0,0,0-1.651-.083,21.271,21.271,0,0,0-6.7,1.173,6.724,6.724,0,0,1-2.115.493c-.073,0-.145,0-.218-.009a3.377,3.377,0,0,1-1.954-.818.783.783,0,0,1-.179-.372.6.6,0,0,0,.119.13,3.979,3.979,0,0,0,2.4.635,6.3,6.3,0,0,0,.883-.059,5.277,5.277,0,0,0,1.832-.576,5.42,5.42,0,0,0,1.47-1.075,2.478,2.478,0,0,0,.394-.5,2.976,2.976,0,0,0,.182-.742c.014-.092.029-.192.044-.3.317.072.636.136.957.188a16.257,16.257,0,0,0,2.5.163c.932,0,1.867-.042,2.8-.042h.633c1.265,0,2.724.064,3.215,1.394a2.662,2.662,0,0,1,.157.937A3.956,3.956,0,0,1,43.965-9.756Z" transform="translate(2.759 13.953)" fill="#221f39"/>
      <path id="Trazado_5301" d="M29.175-54.678A92.214,92.214,0,0,1,28.16-40.364c-.59,4.954-4.014,24.631-4.1,25.433a2.463,2.463,0,0,1-.137.742,2.382,2.382,0,0,1-1.181,1.227l-.076.031a4.7,4.7,0,0,1-2.272.652,3.754,3.754,0,0,1-1.575-.3,1.711,1.711,0,0,1-.681-.393c-.107-.137-.091-.4-.121-.577-.607-4.862-.878-9.77-1.136-14.678-.121-2.469-.3-5.089-.44-7.633-.317-5.545-1.317-19.754-1.968-29.145-.136-1.878-.242-3.56-.349-4.938-.09-1.408-.151-2.514-.2-3.211a4.049,4.049,0,0,1,.455-2.575.652.652,0,0,1,.364-.273.614.614,0,0,1,.348.107,7.134,7.134,0,0,0,2,1c.5.061,1.151-.273,1.7-.273a10.8,10.8,0,0,1,3.349.334,5.054,5.054,0,0,1,1.529.939l.015.015a11.163,11.163,0,0,1,2.818,4.726A47.72,47.72,0,0,1,29.175-54.678Z" transform="translate(1.401 7.797)" fill="#00c7fc"/>
      <path id="Trazado_5302" d="M23.067-19.381a2.981,2.981,0,0,0,.064-.5c.034-.3.529-3.214,1.17-7.013-.641,3.8-1.136,6.715-1.17,7.013A2.981,2.981,0,0,1,23.067-19.381Z" transform="translate(2.325 12.748)" fill="#2895a2"/>
      <path id="Trazado_5303" d="M21.859-18.57l.076-.031a2.382,2.382,0,0,0,1.181-1.227,1.73,1.73,0,0,0,.073-.241,1.776,1.776,0,0,1-.073.241A2.382,2.382,0,0,1,21.935-18.6Z" transform="translate(2.204 13.436)" fill="#53ccb4"/>
      <path id="Trazado_5304" d="M14.312-67.466l-.1-1.454,0,.008C14.245-68.451,14.278-67.968,14.312-67.466Z" transform="translate(1.432 8.512)" fill="#81b0b6"/>
      <path id="Trazado_5305" d="M22.63-13.646c.228-3.5.5-7,.622-10.5q.362-10.475.272-20.949a41.414,41.414,0,0,0-.97-10.148,16.192,16.192,0,0,0-3.286-6.591,11.573,11.573,0,0,0-2.045-1.892,28.957,28.957,0,0,1-2.787-2l-.123-1.743c-.034-.5-.067-.985-.1-1.446.04.1.084.2.131.3,1.182,2.363,4.56,3.605,6.892,4.3q1.075.317,2.171.56c.08.3.16.607.238.909l.228.91c.545,2.286,1.105,4.558,1.62,6.846a72.259,72.259,0,0,1,2.06,14.965c.007.926.023,1.856.044,2.786-.631,4.11-1.625,10.05-2.4,14.679-.641,3.8-1.136,6.715-1.17,7.013a2.981,2.981,0,0,1-.064.5,1.73,1.73,0,0,1-.073.241,2.382,2.382,0,0,1-1.181,1.227Z" transform="translate(1.433 8.513)" fill="#00a9d9"/>
      <path id="Trazado_5306" d="M44.088-70.951c0,1.2-.03,2.394-.075,3.59-.228,5.438-7.651,51.2-8.771,58.865a2.976,2.976,0,0,1-.182.742,2.478,2.478,0,0,1-.394.5A5.42,5.42,0,0,1,33.2-6.179a5.277,5.277,0,0,1-1.832.576,4.767,4.767,0,0,1-3.287-.576c-.319-.258-.243-.728-.258-1.121-.046-.683-.076-1.364-.106-2.046-.107-2.378-.183-4.77-.258-7.15-.107-3.014-.2-6.012-.288-9.028-.091-2.816-.166-5.634-.242-8.466-.045-1.8-.091-3.621-.107-5.424a72.259,72.259,0,0,0-2.06-14.965c-.515-2.287-1.075-4.56-1.62-6.846l-.228-.91A45.971,45.971,0,0,1,21.61-68a12.256,12.256,0,0,1,1.15-7.574c-.135.227,1.713,1.5,1.924,1.636a4.324,4.324,0,0,0,2.379.531c1.863.135,3.68.576,5.528.878a37.019,37.019,0,0,0,7.21.438c.19-.009.4-.008.63-.008.887,0,1.946.007,2.37-.6a8.109,8.109,0,0,0,.908-3.273A26.532,26.532,0,0,1,44.088-70.951Z" transform="translate(2.165 7.802)" fill="#00c7fc"/>
      <path id="Trazado_5307" d="M33.087-7.006q.8-10.951,1.606-21.9c.667-9.073,1.318-18.178.894-27.265-.091-1.894-.424-4.106-2.106-4.969a5.067,5.067,0,0,0-2.363-.412c-.214,0-.426,0-.635,0a18.623,18.623,0,0,1-7.68-1.41c-.078-.3-.157-.607-.238-.909a32.637,32.637,0,0,0,7.058.784,29.186,29.186,0,0,0,7.645-1,24.548,24.548,0,0,0,5.439-2.12,2.5,2.5,0,0,0,1.17-1.555c-.533,7.055-7.65,50.943-8.745,58.435a2.976,2.976,0,0,1-.182.742,2.478,2.478,0,0,1-.394.5A5.42,5.42,0,0,1,33.087-7.006Z" transform="translate(2.275 8.629)" fill="#00a9d9"/>
      <path id="Trazado_5308" d="M50.489-110.281a11.542,11.542,0,0,1-.7,3.771c-.607,2.06-1.091,4.151-1.546,6.24-.393,1.773-.773,3.546-1.166,5.3a88.957,88.957,0,0,0-1.833,18.585c-.015,3.106.2,6.227.151,9.332-.015,1.727.394,4.757-1.408,5.726a24.548,24.548,0,0,1-5.439,2.12,31.3,31.3,0,0,1-16.874-.349c-2.333-.7-5.71-1.937-6.892-4.3a8.443,8.443,0,0,1-.636-2.606q-2.477-18.5-4.089-37.081c-.41-4.862-.848-9.438,4.514-11.391s10.921-1.077,16.42-.818a156.5,156.5,0,0,1,16.632,1.635l.076.017C49.277-113.8,50.413-111.8,50.489-110.281Z" transform="translate(0.992 3.749)" fill="#864e6e"/>
      <path id="Trazado_5309" d="M36.005-59.673c-.2-1.8-.363-3.605-.484-5.407a161,161,0,0,1,.288-26.887c.408-4.454,1.014-8.877,1.788-13.27.2-1.12.435-4.506,1.454-6.27-.006.1-.009.192-.009.287a9.365,9.365,0,0,0,.588,2.875,22.577,22.577,0,0,0,2.279,5.11,14.288,14.288,0,0,0,2.862,3.381c.208.173.406.362.619.526-.285,1.3-.566,2.6-.855,3.893A88.957,88.957,0,0,0,42.7-76.851c0,.1,0,.195,0,.292,0,2.694.157,5.4.159,8.093q0,.474-.007.947v.1c0,.5.03,1.106.03,1.732,0,1.539-.182,3.217-1.438,3.892A24.548,24.548,0,0,1,36.005-59.673Z" transform="translate(3.538 4.219)" fill="#541b38"/>
      <path id="Trazado_5310" d="M69.421-147.57a6.016,6.016,0,0,1,.155.711c.032.335.036.676.036,1a32.363,32.363,0,0,0,.372,4.038c.1.691.294,1.362.379,2.042a9.609,9.609,0,0,1-.023,2.514c-.13.825-.5,1.566-.665,2.37a3.456,3.456,0,0,0,0,.731c0,.514,0,1.029-.02,1.546-.019,1.034-.066,2.072-.129,3.114-.142,2.6-.364,5.2-.664,7.79-.272,2.384-.588,4.78-1.036,7.145-.33,1.683-.611,3.9-1.932,5.148a31.208,31.208,0,0,1-5.616,4,46.252,46.252,0,0,1-5.505,2.9c-.384.154-.768.307-1.17.45a7.478,7.478,0,0,1-1.705.36.844.844,0,0,1-.732-.261c-.195-.233-.122-.516-.1-.8.088-1,.319-1.991.437-3a13.081,13.081,0,0,0,.041-1.724,10.244,10.244,0,0,0-.262-2.009,7.643,7.643,0,0,0-.336-1.274c-.045-.193.854-.531,1.75-.823.432-.15.885-.273,1.205-.365.232-.072.405-.128.479-.145a16.507,16.507,0,0,0,3.7-1.474,1.7,1.7,0,0,0,.873-.909c.222-.505.445-1.009.652-1.51.468-1.109.884-2.236,1.285-3.36a61.548,61.548,0,0,0,2.8-11.756,15.415,15.415,0,0,0,.3-3.061,3.836,3.836,0,0,0-.109-.721,1.344,1.344,0,0,0-.362-.474c-.357-.382-.66-.808-1.042-1.168-.3-.272-.634-.5-.947-.771-.357-.321-.736-.6-1.118-.9a5.417,5.417,0,0,1-1.557-1.5c-.364-.614-.492-1.409-1.075-1.831-.208-.153-.46-.232-.657-.4a.575.575,0,0,1-.206-.668.594.594,0,0,1,.319-.232,2.3,2.3,0,0,1,2.641.694c.319.423.529.98,1.005,1.209.074-2.493-1.389-4.839-1.266-7.328a1.938,1.938,0,0,1,.238-.961.885.885,0,0,1,.676-.425,1.275,1.275,0,0,1,.708.547,2.145,2.145,0,0,1,.129.281A11.433,11.433,0,0,1,61.9-147.3a3.151,3.151,0,0,0,.336.948c-.073-.5-.174-.986-.293-1.487a5.906,5.906,0,0,1-.269-1.773,1.624,1.624,0,0,1,.919-1.434.824.824,0,0,1,.5-.043.981.981,0,0,1,.5.458,4.778,4.778,0,0,1,.558,1.361,28.217,28.217,0,0,1,.819,3.5,15.97,15.97,0,0,0-.113-2.434,5.028,5.028,0,0,1,.094-2.217.58.58,0,0,1,.183-.277.973.973,0,0,1,.336-.159,1.159,1.159,0,0,1,.651-.015,1.108,1.108,0,0,1,.524.824c.17.645.276,1.289.383,1.933a39.207,39.207,0,0,0,.73,4.358,20.837,20.837,0,0,1,.489-4.212.711.711,0,0,1,.354-.474C69.025-148.643,69.34-147.846,69.421-147.57Z" transform="translate(5.136 0.226)" fill="#ffcfb3"/>
      <path id="Trazado_5311" d="M69.546-147.248c.032.335.036.676.036,1a32.363,32.363,0,0,0,.372,4.038c.1.691.294,1.362.379,2.042a9.609,9.609,0,0,1-.023,2.514c-.13.825-.5,1.566-.665,2.37a3.456,3.456,0,0,0,0,.731c0,.514,0,1.029-.02,1.546-.019,1.034-.066,2.072-.129,3.114-.142,2.6-.364,5.2-.664,7.79-.272,2.384-.588,4.78-1.036,7.145-.33,1.683-.611,3.9-1.932,5.148a31.207,31.207,0,0,1-5.616,4,46.253,46.253,0,0,1-5.505,2.9c-.384.154-.768.307-1.17.45a15.353,15.353,0,0,1-2.057-5.427c-.05-.206-.1-.4-.127-.592a6.253,6.253,0,0,1-.135-1.417,1.762,1.762,0,0,1,.033-.319,2.589,2.589,0,0,1,1.382-1.778,3.191,3.191,0,0,1,1.205-.365,2.3,2.3,0,0,1,.809-.005c1.551.237,2.683,2.567,3.077,3.89a1.6,1.6,0,0,0,.592,1.042,1.406,1.406,0,0,0,1.157-.043,18.179,18.179,0,0,0,4.217-2.034,5.083,5.083,0,0,0,1.8-1.737,6.378,6.378,0,0,0,.523-1.791A241.964,241.964,0,0,0,69.546-147.248Z" transform="translate(5.167 0.616)" fill="#ffbe99"/>
      <path id="Trazado_5312" d="M57.987-112.975a15.089,15.089,0,0,1,.286,4.464c0,.109-.009.22-.014.33a20.244,20.244,0,0,1-.506,3.811,8.994,8.994,0,0,1-1.045,2.54c-.446.745-.839,1.445-1.716,1.624-.8.161-1.607.243-2.4.4-1.528.318-3,.919-4.539,1.209a7.7,7.7,0,0,1-2.133.134,3.04,3.04,0,0,1-1.515-.931,14.288,14.288,0,0,1-2.862-3.381,22.577,22.577,0,0,1-2.279-5.11,7.638,7.638,0,0,1-.523-3.628,2.9,2.9,0,0,1,.236-.772,3.957,3.957,0,0,1,2-1.989c1.569-.67,3.588-.435,5.264-.524.8-.051,1.617-.136,2.42-.234,2.1-.254,4.191-.643,6.3-.929.375-.058.683-.209,1.04-.015a3.014,3.014,0,0,1,.906.8A5.663,5.663,0,0,1,57.987-112.975Z" transform="translate(3.899 3.758)" fill="#864e6e"/>
      <path id="Trazado_5313" d="M46.478-98.852a5.2,5.2,0,0,1-.554-.029,1.79,1.79,0,0,1-.9-.405c-.212-.164-.411-.353-.619-.526a14.288,14.288,0,0,1-2.862-3.381,22.577,22.577,0,0,1-2.279-5.11,9.365,9.365,0,0,1-.588-2.875,4.181,4.181,0,0,1,.065-.753,7.3,7.3,0,0,1,.506.689,8.617,8.617,0,0,0,1.525,1.755,9.561,9.561,0,0,0,3.328,1.805c.3.1.619.181.949.258a14.99,14.99,0,0,0,3.3.34,29.344,29.344,0,0,0,4.186-.352,44.185,44.185,0,0,0,5.718-1.162,20.244,20.244,0,0,1-.506,3.811,8.994,8.994,0,0,1-1.045,2.54c-.446.745-.839,1.445-1.716,1.624-.8.161-1.607.243-2.4.4-1.528.318-3,.919-4.539,1.209A9.411,9.411,0,0,1,46.478-98.852Z" transform="translate(3.899 4.176)" fill="#541b38"/>
    </g>
  </g>
</svg>
