<svg xmlns="http://www.w3.org/2000/svg" width="231" height="172.123" viewBox="0 0 231 172.123">
  <g id="Grupo_2628" data-name="Grupo 2628" transform="translate(0 372.56)">
    <path id="Trazado_24213" data-name="Trazado 24213" d="M0-45.045H231v-.115H0Z" transform="translate(0 -176.141)" fill="#ebebeb" fill-rule="evenodd"/>
    <path id="Trazado_24214" data-name="Trazado 24214" d="M52.46-35.524h9.8v-.116h-9.8Z" transform="translate(-28.223 -181.263)" fill="#ebebeb" fill-rule="evenodd"/>
    <path id="Trazado_24215" data-name="Trazado 24215" d="M171.14-38.234H210.4v-.116H171.14Z" transform="translate(-92.073 -179.805)" fill="#ebebeb" fill-rule="evenodd"/>
    <path id="Trazado_24216" data-name="Trazado 24216" d="M67.67-26.235H85.277v-.115H67.67Z" transform="translate(-36.406 -186.261)" fill="#ebebeb" fill-rule="evenodd"/>
    <path id="Trazado_24217" data-name="Trazado 24217" d="M406.71-27.915h19.954v-.115H406.71Z" transform="translate(-218.81 -185.357)" fill="#ebebeb" fill-rule="evenodd"/>
    <path id="Trazado_24218" data-name="Trazado 24218" d="M391.47-27.915H397v-.115h-5.53Z" transform="translate(-210.611 -185.357)" fill="#ebebeb" fill-rule="evenodd"/>
    <path id="Trazado_24219" data-name="Trazado 24219" d="M347.89-32.134h10.626v-.116H347.89Z" transform="translate(-187.165 -183.087)" fill="#ebebeb" fill-rule="evenodd"/>
    <path id="Trazado_24220" data-name="Trazado 24220" d="M287.89-32.134h22.379v-.116H287.89Z" transform="translate(-154.885 -183.087)" fill="#ebebeb" fill-rule="evenodd"/>
    <path id="Trazado_24221" data-name="Trazado 24221" d="M130.051-241.906H40.843a2.651,2.651,0,0,1-2.633-2.638v-125.4a2.65,2.65,0,0,1,2.633-2.615h89.208a2.651,2.651,0,0,1,2.638,2.638v125.378A2.651,2.651,0,0,1,130.051-241.906ZM40.843-372.468a2.535,2.535,0,0,0-2.518,2.523v125.4a2.535,2.535,0,0,0,2.518,2.523h89.208a2.539,2.539,0,0,0,2.523-2.523v-125.4a2.539,2.539,0,0,0-2.523-2.523Z" transform="translate(-20.557)" fill="#ebebeb"/>
    <path id="Trazado_24222" data-name="Trazado 24222" d="M346.35-241.906H257.138a2.655,2.655,0,0,1-2.638-2.638v-125.4a2.655,2.655,0,0,1,2.638-2.615H346.35a2.65,2.65,0,0,1,2.629,2.615v125.4A2.65,2.65,0,0,1,346.35-241.906ZM257.138-372.468a2.539,2.539,0,0,0-2.523,2.523v125.4a2.539,2.539,0,0,0,2.523,2.523H346.35a2.539,2.539,0,0,0,2.523-2.523v-125.4a2.539,2.539,0,0,0-2.523-2.523Z" transform="translate(-136.921)" fill="#ebebeb"/>
    <path id="Trazado_24223" data-name="Trazado 24223" d="M75.03-108.924h7.115V-163.68H75.03Z" transform="translate(-40.366 -112.377)" fill="#f0f0f0" fill-rule="evenodd"/>
    <path id="Trazado_24224" data-name="Trazado 24224" d="M90.43-108.924H152.7V-163.68H90.43Z" transform="translate(-48.651 -112.377)" fill="#f5f5f5" fill-rule="evenodd"/>
    <path id="Trazado_24225" data-name="Trazado 24225" d="M108.1-89.664h54.673V-118.95H108.1Z" transform="translate(-58.158 -136.442)" fill="#fafafa" fill-rule="evenodd"/>
    <path id="Trazado_24226" data-name="Trazado 24226" d="M108.1-136.908h54.673v-9.642H108.1Z" transform="translate(-58.158 -121.593)" fill="#fafafa" fill-rule="evenodd"/>
    <path id="Trazado_24227" data-name="Trazado 24227" d="M107.04-89.664h.49V-118.95h-.49Z" transform="translate(-57.588 -136.442)" fill="rgba(230,230,230,0.7)" fill-rule="evenodd"/>
    <path id="Trazado_24228" data-name="Trazado 24228" d="M107.04-136.908h.49v-9.642h-.49Z" transform="translate(-57.588 -121.593)" fill="rgba(230,230,230,0.7)" fill-rule="evenodd"/>
    <path id="Trazado_24229" data-name="Trazado 24229" d="M75.02-157.442h69.545v-1.238H75.02Z" transform="translate(-40.361 -115.067)" fill="rgba(230,230,230,0.7)" fill-rule="evenodd"/>
    <path id="Trazado_24230" data-name="Trazado 24230" d="M73.23-161.72h7.946V-165.3H73.23Z" transform="translate(-39.398 -111.506)" fill="#f0f0f0" fill-rule="evenodd"/>
    <path id="Trazado_24231" data-name="Trazado 24231" d="M90.43-161.72h63.1V-165.3H90.43Z" transform="translate(-48.651 -111.506)" fill="#f5f5f5" fill-rule="evenodd"/>
    <path id="Trazado_24232" data-name="Trazado 24232" d="M130.044-202.349a3.727,3.727,0,0,1-.67-1.922,6.065,6.065,0,0,1,.18-2.079A9.7,9.7,0,0,1,131.448-210a17.519,17.519,0,0,1,1.386-1.483c.259-.217.508-.439.772-.651a9.244,9.244,0,0,1,.795-.61,19.4,19.4,0,0,1,1.691-1.049c.6-.3,1.192-.587,1.82-.822-.462.517-.924.97-1.386,1.428s-.9.924-1.363,1.386-.869.924-1.312,1.386c-.217.226-.411.462-.614.707a7.892,7.892,0,0,0-.6.707,13.97,13.97,0,0,0-1.954,3.077,7.845,7.845,0,0,0-.568,1.686A5.184,5.184,0,0,0,130.044-202.349Z" transform="translate(-69.591 -84.972)" fill="#e6e6e6"/>
    <path id="Trazado_24233" data-name="Trazado 24233" d="M98.791-203.871a5.088,5.088,0,0,0,.3-1.714,5.846,5.846,0,0,0-.06-.809,5.74,5.74,0,0,0-.217-.758,7.145,7.145,0,0,0-1.848-2.569c-.194-.194-.425-.36-.633-.545a5.743,5.743,0,0,0-.661-.531c-.462-.323-.9-.707-1.386-1.007-.24-.162-.462-.323-.725-.494s-.462-.347-.739-.5a18.022,18.022,0,0,1-1.492-1.053,17.06,17.06,0,0,1,1.806.37,5.9,5.9,0,0,1,.878.277c.286.111.573.222.859.342l.43.18c.139.065.273.148.411.222.273.148.541.31.813.462a6.2,6.2,0,0,1,.776.545c.245.2.5.383.735.61a6.223,6.223,0,0,1,1.959,3.4,2.334,2.334,0,0,1,.051.5v.508a4.287,4.287,0,0,1-.2.975A3.489,3.489,0,0,1,98.791-203.871Z" transform="translate(-49.136 -85.386)" fill="#e6e6e6"/>
    <path id="Trazado_24234" data-name="Trazado 24234" d="M101.551-206.921a10.656,10.656,0,0,0,.088-3.719,9.959,9.959,0,0,0-1.169-3.322l-.462-.762c-.171-.245-.365-.462-.536-.721l-.268-.37-.31-.337c-.2-.226-.407-.462-.605-.7-.434-.439-.892-.869-1.335-1.331s-.956-.85-1.414-1.34a18.779,18.779,0,0,1,1.848.721,18.028,18.028,0,0,1,1.7,1.049c.259.213.522.43.776.651l.383.333.342.383c.222.259.462.517.661.79l.554.878a7.853,7.853,0,0,1,1.035,4.006A6.251,6.251,0,0,1,101.551-206.921Z" transform="translate(-51.401 -82.336)" fill="#e6e6e6"/>
    <path id="Trazado_24235" data-name="Trazado 24235" d="M124.362-210.208a18.178,18.178,0,0,1-2.31-3.747,24.675,24.675,0,0,1-1.52-4.158,20.413,20.413,0,0,1-.638-4.4,12.464,12.464,0,0,1,.67-4.389c.129,1.478.291,2.878.531,4.269s.577,2.772.924,4.158.753,2.73,1.155,4.1S123.983-211.636,124.362-210.208Z" transform="translate(-64.501 -78.365)" fill="#e6e6e6"/>
    <path id="Trazado_24236" data-name="Trazado 24236" d="M120.289-210.347a21.142,21.142,0,0,1-2.924-3.5,28.275,28.275,0,0,1-2.25-3.973,23.7,23.7,0,0,1-1.511-4.334,14.019,14.019,0,0,1-.333-4.578c.462,1.465.924,2.851,1.488,4.223s1.146,2.7,1.751,4.047,1.257,2.67,1.9,4.015S119.693-211.757,120.289-210.347Z" transform="translate(-60.908 -78.457)" fill="#e6e6e6"/>
    <path id="Trazado_24237" data-name="Trazado 24237" d="M120.371-204.246a20.969,20.969,0,0,1-3.636-2.772,28.71,28.71,0,0,1-3.077-3.368,24.013,24.013,0,0,1-2.444-3.885,14.179,14.179,0,0,1-1.344-4.389c.781,1.321,1.557,2.564,2.393,3.779s1.719,2.384,2.61,3.557,1.848,2.31,2.744,3.488S119.475-205.484,120.371-204.246Z" transform="translate(-59.11 -82.798)" fill="#e6e6e6"/>
    <path id="Trazado_24238" data-name="Trazado 24238" d="M115.306-207.2a16.021,16.021,0,0,1-3.493-2.365,21.506,21.506,0,0,1-2.892-3.082,18.53,18.53,0,0,1-2.176-3.65,12.28,12.28,0,0,1-1.035-4.112c.707,1.234,1.354,2.412,2.1,3.539s1.511,2.222,2.31,3.289,1.663,2.125,2.532,3.174S114.428-208.306,115.306-207.2Z" transform="translate(-56.872 -81.857)" fill="#e6e6e6"/>
    <path id="Trazado_24239" data-name="Trazado 24239" d="M129.085-203.163a4.621,4.621,0,0,1-1.9-3.174,6.662,6.662,0,0,1,.6-3.77l.194-.434.236-.407.494-.8q.286-.369.582-.721a7.241,7.241,0,0,1,.614-.684,15.276,15.276,0,0,1,1.386-1.187,15.583,15.583,0,0,1,1.543-.961,17.821,17.821,0,0,1-1,1.488c-.342.462-.647.97-.989,1.428s-.6.966-.924,1.432l-.383.73-.2.36-.152.374a8.077,8.077,0,0,0-.809,3.077A6.682,6.682,0,0,0,129.085-203.163Z" transform="translate(-68.392 -84.606)" fill="#e6e6e6"/>
    <path id="Trazado_24240" data-name="Trazado 24240" d="M126.883-206.837a7.418,7.418,0,0,1-1.959-3.289,7.266,7.266,0,0,1-.055-3.978,6.727,6.727,0,0,1,.808-1.848,7.273,7.273,0,0,1,1.266-1.534,8.253,8.253,0,0,1,3.313-1.9,25.3,25.3,0,0,0-2.412,2.693,9.728,9.728,0,0,0-.9,1.446,7.434,7.434,0,0,0-.6,1.548,8.925,8.925,0,0,0-.245,3.336A17.12,17.12,0,0,0,126.883-206.837Z" transform="translate(-67.044 -82.405)" fill="#e6e6e6"/>
    <path id="Trazado_24241" data-name="Trazado 24241" d="M116.21-202.671l-7.23-6.939.291,6.805Z" transform="translate(-58.631 -87.667)" fill="#e6e6e6"/>
    <path id="Trazado_24242" data-name="Trazado 24242" d="M119.365-196.19H100.16l2.513,14.271h14.179Z" transform="translate(-53.886 -94.887)" fill="#f5f5f5"/>
    <path id="Trazado_24243" data-name="Trazado 24243" d="M107.367-196.19H100.16l2.513,14.271h3.788Z" transform="translate(-53.886 -94.887)" fill="#ebebeb"/>
    <path id="Trazado_24244" data-name="Trazado 24244" d="M100.94-302h38.766V-350.73H100.94Z" transform="translate(-54.306 -11.745)" fill="#f0f0f0" fill-rule="evenodd"/>
    <path id="Trazado_24245" data-name="Trazado 24245" d="M104.16-302H150V-350.73H104.16Z" transform="translate(-56.038 -11.745)" fill="#f5f5f5" fill-rule="evenodd"/>
    <path id="Trazado_24246" data-name="Trazado 24246" d="M112.47-301.377h38.161V-342.43H112.47Z" transform="translate(-60.509 -16.21)" fill="#fff" fill-rule="evenodd"/>
    <path id="Trazado_24247" data-name="Trazado 24247" d="M360.669-158.7H301.694L296.46-256.21h58.974Z" transform="translate(-159.495 -62.596)" fill="#ebebeb"/>
    <path id="Trazado_24248" data-name="Trazado 24248" d="M364.569-158.7H305.594L300.36-256.21h58.974Z" transform="translate(-161.594 -62.596)" fill="#f5f5f5"/>
    <path id="Trazado_24249" data-name="Trazado 24249" d="M369.187-157.05H363.92l.212-77.39H369.4Z" transform="translate(-195.789 -74.309)" fill="#fff"/>
    <path id="Trazado_24250" data-name="Trazado 24250" d="M399.337-157.05H394.07l.217-77.39h5.262Z" transform="translate(-212.01 -74.309)" fill="#fff"/>
    <path id="Trazado_24251" data-name="Trazado 24251" d="M339.027-157.05H333.76l.217-77.39h5.267Z" transform="translate(-179.563 -74.309)" fill="#fff"/>
    <path id="Trazado_24252" data-name="Trazado 24252" d="M145.687-22.64c49.439,0,89.577,2.343,89.577,5.23s-40.138,5.23-89.577,5.23S56.11-14.524,56.11-17.41,96.248-22.64,145.687-22.64Z" transform="translate(-30.187 -188.257)" fill="#f5f5f5" fill-rule="evenodd"/>
    <path id="Trazado_24253" data-name="Trazado 24253" d="M386.079-133.465l-.6,10.878.461.025.6-10.877Z" transform="translate(-207.39 -128.633)" fill="#8fcaf9" fill-rule="evenodd"/>
    <path id="Trazado_24254" data-name="Trazado 24254" d="M387.519-153.438l-.307,5.6.461.025.308-5.6Z" transform="translate(-208.32 -117.888)" fill="#8fcaf9" fill-rule="evenodd"/>
    <path id="Trazado_24255" data-name="Trazado 24255" d="M296.727-212.194H242.5a5.974,5.974,0,0,1-5.946-5.946q0-.192.012-.384L242.8-332.231a6.818,6.818,0,0,1,6.7-6.329h54.2a5.979,5.979,0,0,1,5.951,5.951c0,.126,0,.253-.012.379L303.4-218.523A6.814,6.814,0,0,1,296.727-212.194Z" transform="translate(-127.266 -18.292)" fill="#8fcaf9"/>
    <path id="Trazado_24256" data-name="Trazado 24256" d="M293.452-212.194H242.5a5.974,5.974,0,0,1-5.946-5.946q0-.192.012-.384L242.8-332.231a6.818,6.818,0,0,1,6.7-6.329h50.934a5.974,5.974,0,0,1,5.946,5.946q0,.192-.012.383l-6.237,113.707A6.823,6.823,0,0,1,293.452-212.194Z" transform="translate(-127.266 -18.292)" fill="rgba(255,255,255,0.8)"/>
    <path id="Trazado_24257" data-name="Trazado 24257" d="M285.169-300.165H270.537a2.521,2.521,0,0,1-2.509-2.509q0-.083.006-.166a2.875,2.875,0,0,1,2.818-2.67h14.637a2.516,2.516,0,0,1,2.5,2.5q0,.083-.006.166A2.88,2.88,0,0,1,285.169-300.165Z" transform="translate(-144.199 -36.073)" fill="#fff"/>
    <path id="Trazado_24258" data-name="Trazado 24258" d="M300.006-305.331a5.158,5.158,0,0,1-5.082,4.809h-.052a4.526,4.526,0,0,1-4.5-4.5q0-.153.01-.305a5.158,5.158,0,0,1,5.082-4.809h.052a4.526,4.526,0,0,1,4.5,4.5Q300.016-305.483,300.006-305.331Z" transform="translate(-156.218 -33.581)" fill="#8fcaf9"/>
    <path id="Trazado_24259" data-name="Trazado 24259" d="M283.139-263.155H268.507A2.521,2.521,0,0,1,266-265.663q0-.083.006-.166a2.875,2.875,0,0,1,2.818-2.67h14.637a2.516,2.516,0,0,1,2.5,2.5q0,.083-.006.166A2.881,2.881,0,0,1,283.139-263.155Z" transform="translate(-143.107 -55.984)" fill="#fff"/>
    <path id="Trazado_24260" data-name="Trazado 24260" d="M275.956-271.652a4.819,4.819,0,0,1,6.807-.092,4.82,4.82,0,0,1-.28,6.8,4.82,4.82,0,0,1-6.807.092A4.82,4.82,0,0,1,275.956-271.652Z" transform="translate(-147.629 -53.506)" fill="#8fcaf9" fill-rule="evenodd"/>
    <path id="Trazado_24261" data-name="Trazado 24261" d="M275.956-271.652a4.819,4.819,0,0,1,6.807-.092,4.82,4.82,0,0,1-.28,6.8,4.82,4.82,0,0,1-6.807.092A4.82,4.82,0,0,1,275.956-271.652Z" transform="translate(-147.629 -53.506)" fill="rgba(250,250,250,0.3)" fill-rule="evenodd"/>
    <path id="Trazado_24262" data-name="Trazado 24262" d="M264.461-189.135h14.595a2.881,2.881,0,0,0,2.818-2.675q.005-.083.006-.166a2.516,2.516,0,0,0-2.5-2.5H264.757a2.88,2.88,0,0,0-2.823,2.67c0,.054-.005.108-.005.162a2.525,2.525,0,0,0,2.513,2.513Z" transform="translate(-140.918 -95.807)" fill="#fff"/>
    <path id="Trazado_24263" data-name="Trazado 24263" d="M263.488-197.647a4.819,4.819,0,0,1,6.807-.092,4.82,4.82,0,0,1-.28,6.8,4.819,4.819,0,0,1-6.807.092A4.819,4.819,0,0,1,263.488-197.647Z" transform="translate(-140.921 -93.321)" fill="#8fcaf9" fill-rule="evenodd"/>
    <path id="Trazado_24264" data-name="Trazado 24264" d="M263.488-197.647a4.819,4.819,0,0,1,6.807-.092,4.82,4.82,0,0,1-.28,6.8,4.819,4.819,0,0,1-6.807.092A4.819,4.819,0,0,1,263.488-197.647Z" transform="translate(-140.921 -93.321)" fill="rgba(250,250,250,0.7)" fill-rule="evenodd"/>
    <path id="Trazado_24265" data-name="Trazado 24265" d="M277.04-152.125H262.412a2.525,2.525,0,0,1-2.513-2.513c0-.054,0-.108.005-.162a2.88,2.88,0,0,1,2.823-2.67h14.637a2.516,2.516,0,0,1,2.5,2.5q0,.083-.006.166A2.88,2.88,0,0,1,277.04-152.125Z" transform="translate(-139.826 -115.718)" fill="#fff"/>
    <path id="Trazado_24266" data-name="Trazado 24266" d="M291.881-157.291a5.158,5.158,0,0,1-5.082,4.809h-.052a4.531,4.531,0,0,1-4.509-4.509c0-.1,0-.2.01-.3a5.167,5.167,0,0,1,5.082-4.809h.056a4.526,4.526,0,0,1,4.5,4.5Q291.891-157.443,291.881-157.291Z" transform="translate(-151.844 -113.227)" fill="#8fcaf9"/>
    <path id="Trazado_24267" data-name="Trazado 24267" d="M266.5-226.145h14.613a2.88,2.88,0,0,0,2.818-2.675q.006-.083.006-.166a2.516,2.516,0,0,0-2.5-2.5H266.792a2.875,2.875,0,0,0-2.818,2.67q-.006.083-.006.166a2.521,2.521,0,0,0,2.509,2.509Z" transform="translate(-142.015 -75.896)" fill="#fff"/>
    <path id="Trazado_24268" data-name="Trazado 24268" d="M263.988-231.311q-.01.152-.01.305a4.526,4.526,0,0,0,4.5,4.5h.052a5.158,5.158,0,0,0,5.082-4.809q.01-.152.01-.305a4.526,4.526,0,0,0-4.5-4.5h-.052A5.158,5.158,0,0,0,263.988-231.311Z" transform="translate(-142.02 -73.404)" fill="#8fcaf9"/>
    <path id="Trazado_24269" data-name="Trazado 24269" d="M263.988-231.311q-.01.152-.01.305a4.526,4.526,0,0,0,4.5,4.5h.052a5.158,5.158,0,0,0,5.082-4.809q.01-.152.01-.305a4.526,4.526,0,0,0-4.5-4.5h-.052A5.158,5.158,0,0,0,263.988-231.311Z" transform="translate(-142.02 -73.404)" fill="rgba(250,250,250,0.7)"/>
    <path id="Trazado_24270" data-name="Trazado 24270" d="M348.013-303.951H326.352a1.012,1.012,0,0,1-1.007-1.007c0-.022,0-.043,0-.065a1.15,1.15,0,0,1,1.127-1.067H348.14a1.008,1.008,0,0,1,1,1c0,.022,0,.043,0,.065A1.15,1.15,0,0,1,348.013-303.951Z" transform="translate(-175.036 -35.761)" fill="#fff"/>
    <path id="Trazado_24271" data-name="Trazado 24271" d="M340.555-295.851H325.9a1.012,1.012,0,0,1-1.007-1.007c0-.022,0-.043,0-.065a1.15,1.15,0,0,1,1.127-1.067h14.656a1.012,1.012,0,0,1,1.007,1.007c0,.02,0,.04,0,.06A1.155,1.155,0,0,1,340.555-295.851Z" transform="translate(-174.794 -40.119)" fill="#fff"/>
    <path id="Trazado_24272" data-name="Trazado 24272" d="M337.136-155.911H318.192a1.012,1.012,0,0,1-1.007-1.007c0-.022,0-.043,0-.065a1.146,1.146,0,0,1,1.127-1.067H337.24a1.012,1.012,0,0,1,1.007,1.007c0,.02,0,.04,0,.06A1.155,1.155,0,0,1,337.136-155.911Z" transform="translate(-170.646 -115.406)" fill="#fff"/>
    <path id="Trazado_24273" data-name="Trazado 24273" d="M327.157-147.816h-9.344a1.012,1.012,0,0,1-1.007-1.007c0-.02,0-.04,0-.06a1.15,1.15,0,0,1,1.127-1.067h9.357a1.012,1.012,0,0,1,1.007,1.007c0,.02,0,.04,0,.06A1.15,1.15,0,0,1,327.157-147.816Z" transform="translate(-170.442 -119.764)" fill="#fff"/>
    <path id="Trazado_24274" data-name="Trazado 24274" d="M345.654-260.98H324a1.15,1.15,0,0,0-1.127,1.067c0,.02,0,.04,0,.06a1.012,1.012,0,0,0,1.007,1.007h21.665a1.15,1.15,0,0,0,1.127-1.067c0-.02,0-.04,0-.06a1.012,1.012,0,0,0-1.007-1.007Z" transform="translate(-173.702 -60.03)" fill="#fff"/>
    <path id="Trazado_24275" data-name="Trazado 24275" d="M339.09-269.08H324.445a1.15,1.15,0,0,0-1.127,1.067c0,.022,0,.043,0,.065a1.012,1.012,0,0,0,1.007,1.007h14.652a1.155,1.155,0,0,0,1.127-1.072c0-.022,0-.043,0-.065a1.007,1.007,0,0,0-1-1Z" transform="translate(-173.943 -55.672)" fill="#fff"/>
    <path id="Trazado_24276" data-name="Trazado 24276" d="M333.432-229.931h-11.09a1.012,1.012,0,0,1-1.007-1.007c0-.022,0-.043,0-.065a1.146,1.146,0,0,1,1.127-1.067h11.108a1.012,1.012,0,0,1,1.007,1.007c0,.02,0,.04,0,.06A1.155,1.155,0,0,1,333.432-229.931Z" transform="translate(-172.878 -75.584)" fill="#fff"/>
    <path id="Trazado_24277" data-name="Trazado 24277" d="M361.551-229.931H355a1.012,1.012,0,0,1-1.007-1.007c0-.022,0-.043,0-.065a1.15,1.15,0,0,1,1.127-1.067h6.553a1.008,1.008,0,0,1,1,1c0,.022,0,.043,0,.065A1.155,1.155,0,0,1,361.551-229.931Z" transform="translate(-190.449 -75.584)" fill="#fff"/>
    <path id="Trazado_24278" data-name="Trazado 24278" d="M336.479-221.836H321.813a1.012,1.012,0,0,1-1.007-1.007c0-.02,0-.04,0-.06a1.15,1.15,0,0,1,1.127-1.067H336.61a1.012,1.012,0,0,1,1.007,1.007c0,.02,0,.04,0,.06A1.15,1.15,0,0,1,336.479-221.836Z" transform="translate(-172.594 -79.941)" fill="#fff"/>
    <path id="Trazado_24279" data-name="Trazado 24279" d="M284.3-116.347h-24.98a1.393,1.393,0,0,1-1.386-1.386c0-.037,0-.074,0-.111a1.614,1.614,0,0,1,1.58-1.5h24.98a1.393,1.393,0,0,1,1.386,1.386c0,.037,0,.074,0,.111A1.61,1.61,0,0,1,284.3-116.347Z" transform="translate(-138.766 -136.232)" fill="#fff"/>
    <path id="Trazado_24280" data-name="Trazado 24280" d="M343.659-116.347H328.316a1.393,1.393,0,0,1-1.386-1.386c0-.037,0-.074,0-.111a1.614,1.614,0,0,1,1.58-1.5h15.343a1.393,1.393,0,0,1,1.386,1.386c0,.037,0,.074,0,.111A1.614,1.614,0,0,1,343.659-116.347Z" transform="translate(-175.888 -136.232)" fill="#fff"/>
    <path id="Trazado_24281" data-name="Trazado 24281" d="M277.737-105.047H258.716a1.393,1.393,0,0,1-1.386-1.386c0-.037,0-.074,0-.111a1.61,1.61,0,0,1,1.58-1.5h19.016a1.393,1.393,0,0,1,1.386,1.386c0,.037,0,.074,0,.111A1.609,1.609,0,0,1,277.737-105.047Z" transform="translate(-138.444 -142.311)" fill="#fff"/>
    <path id="Trazado_24282" data-name="Trazado 24282" d="M298.022-93.687H258.1a1.393,1.393,0,0,1-1.386-1.386c0-.037,0-.074,0-.111a1.61,1.61,0,0,1,1.575-1.5h39.926a1.393,1.393,0,0,1,1.386,1.386c0,.037,0,.074,0,.111A1.61,1.61,0,0,1,298.022-93.687Z" transform="translate(-138.11 -148.423)" fill="#fff"/>
    <path id="Trazado_24283" data-name="Trazado 24283" d="M326.348-186.96h-6.413a1.15,1.15,0,0,0-1.127,1.067c0,.02,0,.04,0,.06a1.012,1.012,0,0,0,1.007,1.007h6.419a1.15,1.15,0,0,0,1.127-1.067c0-.02,0-.04,0-.06a1.012,1.012,0,0,0-1.007-1.007Z" transform="translate(-171.518 -99.853)" fill="#fff"/>
    <path id="Trazado_24284" data-name="Trazado 24284" d="M349.919-186.96h-7.434a1.15,1.15,0,0,0-1.127,1.067c0,.02,0,.04,0,.06a1.012,1.012,0,0,0,1.007,1.007h7.44a1.15,1.15,0,0,0,1.127-1.067c0-.022,0-.043,0-.065a1.007,1.007,0,0,0-1-1Z" transform="translate(-183.65 -99.853)" fill="#fff"/>
    <path id="Trazado_24285" data-name="Trazado 24285" d="M335.03-195.06H320.385a1.146,1.146,0,0,0-1.127,1.067c0,.022,0,.043,0,.065a1.012,1.012,0,0,0,1.007,1.007h14.652a1.155,1.155,0,0,0,1.127-1.072c0-.02,0-.04,0-.06a1.012,1.012,0,0,0-1.007-1.007Z" transform="translate(-171.759 -95.495)" fill="#fff"/>
    <path id="Trazado_24286" data-name="Trazado 24286" d="M163.176-258.465c-1.511,1.252-3.072,2.615-4.509,3.982-.721.688-1.423,1.386-2.074,2.107a18.261,18.261,0,0,0-1.733,2.167l-.088.129-.042.074a1.119,1.119,0,0,0-.1.185c-.065.143-.125.323-.189.513a10.1,10.1,0,0,0-.286,1.28,27.434,27.434,0,0,0-.277,2.911c-.1,2-.1,4.079-.06,6.117l-2.162.323a39.857,39.857,0,0,1-1.109-6.371,24.48,24.48,0,0,1-.079-3.359,13.657,13.657,0,0,1,.231-1.8,7.3,7.3,0,0,1,.263-.989c.069-.18.12-.346.213-.536l.129-.277c.046-.083.079-.134.115-.208a18.623,18.623,0,0,1,1.973-2.888,32.477,32.477,0,0,1,2.2-2.476,48.4,48.4,0,0,1,4.86-4.347Z" transform="translate(-80.94 -59.519)" fill="#b45b52"/>
    <path id="Trazado_24287" data-name="Trazado 24287" d="M169.331-266.86a40.752,40.752,0,0,0-5.941,4.99l4.384,5.262s6.223-3.733,6.981-5.789C176.021-265.857,171.567-268.186,169.331-266.86Z" transform="translate(-87.904 -56.664)" fill="#8fcaf9"/>
    <path id="Trazado_24288" data-name="Trazado 24288" d="M154.646-214.162l.536,3.128-2.906-.42s-.6-2.125.924-2.855Z" transform="translate(-81.863 -85.138)" fill="#b45b52"/>
    <path id="Trazado_24289" data-name="Trazado 24289" d="M153.335-205.806l-2.615-.813.781-1.511,2.906.42Z" transform="translate(-81.087 -88.463)" fill="#b45b52"/>
    <path id="Trazado_24290" data-name="Trazado 24290" d="M214.32-291c0,.319.176.578.388.582s.374-.254.37-.568-.176-.577-.388-.582S214.315-291.316,214.32-291Z" transform="translate(-115.304 -43.573)" fill="#253237"/>
    <path id="Trazado_24291" data-name="Trazado 24291" d="M214.92-291.8l.772-.208S215.3-291.409,214.92-291.8Z" transform="translate(-115.627 -43.336)" fill="#253237"/>
    <path id="Trazado_24292" data-name="Trazado 24292" d="M214.91-289.66a8.778,8.778,0,0,0,1.173,2.047,1.387,1.387,0,0,1-1.141.194Z" transform="translate(-115.622 -44.6)" fill="#a02624"/>
    <path id="Trazado_24293" data-name="Trazado 24293" d="M213.119-295.451a.165.165,0,0,1-.092,0,1.555,1.555,0,0,0-1.386.162.184.184,0,0,1-.114.039.184.184,0,0,1-.15-.076.19.19,0,0,1,.037-.263,1.947,1.947,0,0,1,1.719-.217.19.19,0,0,1,.12.236A.2.2,0,0,1,213.119-295.451Z" transform="translate(-113.701 -41.235)" fill="#253237"/>
    <path id="Trazado_24294" data-name="Trazado 24294" d="M191.159-283c.213,2.389-.587,6.3-2.389,7.632,0,0,1.358,2.513,5.71,3.1,4.791.642,2.541-2.051,2.541-2.051-2.546-.97-2.278-2.887-1.631-4.62Z" transform="translate(-101.558 -48.183)" fill="#b45b52"/>
    <path id="Trazado_24295" data-name="Trazado 24295" d="M210.93-260.706c2.278.619,4.671,1.215,7.018,1.746,1.183.254,2.365.462,3.548.716s2.37.416,3.548.568l.462.06.3.032h.693a12.34,12.34,0,0,0,1.6-.217,32.446,32.446,0,0,0,3.386-.892c2.278-.711,4.588-1.571,6.847-2.458l1.026,1.927a48.77,48.77,0,0,1-6.685,3.664,30.088,30.088,0,0,1-3.7,1.386,15.646,15.646,0,0,1-2.056.462,11.245,11.245,0,0,1-1.155.1h-.628l-.462-.037a60.7,60.7,0,0,1-7.577-1.007,70.848,70.848,0,0,1-7.392-1.793Z" transform="translate(-112.824 -59.939)" fill="#b45b52"/>
    <path id="Trazado_24296" data-name="Trazado 24296" d="M270.37-262.1l.67-2.268,2.462.924s-.564,3.41-2.675,2.467Z" transform="translate(-145.459 -58.206)" fill="#b45b52"/>
    <path id="Trazado_24297" data-name="Trazado 24297" d="M273.248-267.63l2.513.282-1.478,2.148-2.462-.924Z" transform="translate(-146.239 -56.452)" fill="#b45b52"/>
    <path id="Trazado_24298" data-name="Trazado 24298" d="M178.64-31.278l3.959.291,1.178-9.092-3.959-.291Z" transform="translate(-96.108 -178.718)" fill="#b45b52"/>
    <path id="Trazado_24299" data-name="Trazado 24299" d="M115.44-64.882l2.689,2.985,7.512-5.193-2.689-2.98Z" transform="translate(-62.107 -162.74)" fill="#b45b52"/>
    <path id="Trazado_24300" data-name="Trazado 24300" d="M124.28-50.681a.546.546,0,0,1-.143,0c-.462-.157-.809-1.049-.961-1.566a.1.1,0,0,1,0-.026.093.093,0,0,1,.092-.092.093.093,0,0,1,.045.012c.143.074,1.418.767,1.46,1.275a.319.319,0,0,1-.134.286A.564.564,0,0,1,124.28-50.681Zm-.855-1.418c.231.684.513,1.132.772,1.215a.338.338,0,0,0,.323-.079.143.143,0,0,0,.065-.125C124.562-51.356,123.929-51.809,123.425-52.1Z" transform="translate(-66.267 -172.265)" fill="#8fcaf9"/>
    <path id="Trazado_24301" data-name="Trazado 24301" d="M124.431-52.414a2.836,2.836,0,0,1-1.215-.3.1.1,0,0,1-.046-.083.083.083,0,0,1,.051-.079c.037-.023,1.016-.564,1.557-.379a.5.5,0,0,1,.314.291.324.324,0,0,1-.074.407A.925.925,0,0,1,124.431-52.414Zm-.961-.383a2,2,0,0,0,1.428.1c.032-.032.069-.079,0-.194a.323.323,0,0,0-.2-.189A2.107,2.107,0,0,0,123.47-52.8Z" transform="translate(-66.265 -171.766)" fill="#8fcaf9"/>
    <path id="Trazado_24302" data-name="Trazado 24302" d="M116.571-58.109l-2.218-3.936a.32.32,0,0,0-.393-.148l-3.276,1.257a.643.643,0,0,0-.382.587.643.643,0,0,0,.1.337c.8,1.358,1.247,1.973,2.222,3.7.6,1.063,1.525,3.386,2.236,4.916s2.218.924,2.056.231a13.93,13.93,0,0,1-.222-6.228A1.06,1.06,0,0,0,116.571-58.109Z" transform="translate(-59.343 -166.966)" fill="#253237"/>
    <path id="Trazado_24303" data-name="Trazado 24303" d="M189.4-20.955a6.928,6.928,0,0,1-1.247-.139.1.1,0,0,1-.074-.079.093.093,0,0,1,.051-.1c.18-.092,1.788-.924,2.264-.633a.3.3,0,0,1,.152.249.536.536,0,0,1-.185.462A1.516,1.516,0,0,1,189.4-20.955Zm-.924-.273a2.558,2.558,0,0,0,1.774-.111.352.352,0,0,0,.115-.3.116.116,0,0,0-.055-.1c-.273-.143-1.183.2-1.843.513Z" transform="translate(-101.186 -188.621)" fill="#8fcaf9"/>
    <path id="Trazado_24304" data-name="Trazado 24304" d="M188.171-22.146a.088.088,0,0,1-.055,0,.084.084,0,0,1-.037-.083c0-.074.189-1.691,1.076-1.691h.079c.254.023.328.152.346.259.074.462-.887,1.307-1.386,1.52A.07.07,0,0,1,188.171-22.146Zm.989-1.608c-.573,0-.8.924-.869,1.344.494-.3,1.146-.966,1.1-1.238,0,0,0-.083-.18-.1Z" transform="translate(-101.186 -187.568)" fill="#8fcaf9"/>
    <path id="Trazado_24305" data-name="Trazado 24305" d="M181.487-21.28h-4.454a.329.329,0,0,0-.323.273l-.6,3.52a.627.627,0,0,0-.006.083.627.627,0,0,0,.624.624h0c1.552-.028,2.31-.12,4.26-.12,1.2,0,3.7.125,5.355.125s1.793-1.64,1.1-1.793a10.4,10.4,0,0,1-5.308-2.467A1.021,1.021,0,0,0,181.487-21.28Z" transform="translate(-94.746 -188.989)" fill="#253237"/>
    <path id="Trazado_24306" data-name="Trazado 24306" d="M184.439-40.074l-.656,5.054-3.913-.656.605-4.694Z" transform="translate(-96.77 -178.718)" fill="rgba(0,0,0,0.2)"/>
    <path id="Trazado_24307" data-name="Trazado 24307" d="M127.962-70.07l2.689,2.985-3.1,2.144-2.786-2.915Z" transform="translate(-67.121 -162.74)" fill="rgba(0,0,0,0.2)"/>
    <path id="Trazado_24308" data-name="Trazado 24308" d="M174.26-243.053l16.022,2.153c6.214-22.495,4.38-23.1,4.38-23.1a32.236,32.236,0,0,0-3.7-1.46l-.217-.069c-1.035-.314-1.252-.356-2.633-.67-2.37-.42-4.569-.744-7.286-.975-.171,0-.346-.032-.517-.042-.49-.032-.975-.055-1.446-.074H176.38a2.232,2.232,0,0,0-2.172,2.222,2.233,2.233,0,0,0,.015.255C175.595-253,175.161-249.106,174.26-243.053Z" transform="translate(-93.724 -56.635)" fill="#8fcaf9"/>
    <path id="Trazado_24309" data-name="Trazado 24309" d="M210-250.575c.111,1.044,2.523,2.952,3.359,2.439.24-1.252.416-2.31.541-3.16C212.689-251.388,210.319-252.723,210-250.575Z" transform="translate(-112.98 -64.974)" fill="rgba(0,0,0,0.2)"/>
    <path id="Trazado_24310" data-name="Trazado 24310" d="M204.369-262.335c-.116-3.7,8.843.374,10.9,1.294l-2.292,6.2a12.573,12.573,0,0,1-4.906-1.206A7.749,7.749,0,0,1,204.369-262.335Z" transform="translate(-109.95 -58.481)" fill="#8fcaf9"/>
    <path id="Trazado_24311" data-name="Trazado 24311" d="M190.979-299.173c.3,3.909.337,5.567,2.361,7.6,3.035,3.054,7.817,1.973,8.7-1.913.8-3.5.18-9.3-3.7-10.908a5.239,5.239,0,0,0-2.143-.458,5.268,5.268,0,0,0-5.244,5.244Q190.961-299.39,190.979-299.173Z" transform="translate(-102.737 -36.427)" fill="#b45b52"/>
    <path id="Trazado_24312" data-name="Trazado 24312" d="M175.953-305.344c-3.927-.984-4.052,2.31-3.969,4.047s-2.8,2.569-2.8,4.745c0,2.837,2.139,4.528-3.063,5.387-4.4.725-5.761,6.228.753,9.448,7.212,3.557,18.092-1.451,16.771-6.214-2.024-7.35,1.612-7.327,1.21-11.439-.3-2.984,2.527-3.132,1.511-5.623C185.023-308.25,175.612-311.11,175.953-305.344Z" transform="translate(-87.37 -34.381)" fill="#253237"/>
    <path id="Trazado_24313" data-name="Trazado 24313" d="M181.594-296.735c-.541-2.846-.245-4.731.878-5.613,1.446-1.141,3.668-.152,3.761-.111l-.189.42s-2.065-.924-3.289.051c-.975.772-1.21,2.509-.707,5.165Z" transform="translate(-97.557 -37.479)" fill="#253237"/>
    <path id="Trazado_24314" data-name="Trazado 24314" d="M168.841-277.58a9,9,0,0,1-2.961-.6l.171-.43c.032,0,3.146,1.238,4.588.042.7-.582.9-1.672.6-3.234l.462-.088c.342,1.751.088,2.994-.753,3.7A3.235,3.235,0,0,1,168.841-277.58Z" transform="translate(-89.243 -48.78)" fill="#253237"/>
    <path id="Trazado_24315" data-name="Trazado 24315" d="M208.685-290.135a3.543,3.543,0,0,0,.541,2.07c.536.873,1.261.711,1.5-.028a2.546,2.546,0,0,0-.531-2.559C209.465-291.285,208.759-290.943,208.685-290.135Z" transform="translate(-112.27 -43.89)" fill="#b45b52"/>
    <path id="Trazado_24316" data-name="Trazado 24316" d="M159.832-213.245s-6.228,26.334-9.138,41.437c-3.068,15.953-21.252,28.967-21.252,28.967l-3.992-4.107s11.707-10.247,14.715-25.142c6.1-30.233,1.973-36.322,7.854-42.74Z" transform="translate(-67.492 -84.859)" fill="#253237"/>
    <path id="Trazado_24317" data-name="Trazado 24317" d="M129.025-65.456l-4.985-5.128,1.4-1.506,5.789,5.1Z" transform="translate(-66.734 -161.653)" fill="#8fcaf9"/>
    <path id="Trazado_24318" data-name="Trazado 24318" d="M187.9-199.863c-4.842,4.2-4.32,19.122-3.812,25.844,2.028-9.559,4.472-20.2,5.9-26.362C189.483-200.76,188.79-200.635,187.9-199.863Z" transform="translate(-98.871 -92.521)" fill="rgba(0,0,0,0.2)"/>
    <path id="Trazado_24319" data-name="Trazado 24319" d="M192.1-211.953s2.8,31.245,1.27,43.165c-1.589,12.4-9.7,39.367-9.7,39.367L178-130.156s4.62-26.731,5.465-39c.9-13.4-3.091-44.352-3.091-44.352Z" transform="translate(-95.764 -85.569)" fill="#253237"/>
    <path id="Trazado_24320" data-name="Trazado 24320" d="M183.47-34.814l-8.14-1.053.125-2.4,8.833.855Z" transform="translate(-94.328 -179.848)" fill="#8fcaf9"/>
    <path id="Trazado_24321" data-name="Trazado 24321" d="M172.957-216.991l-.878,1.326c-.065.106.055.236.24.259l16.808,2.278c.143,0,.273-.037.291-.125l.3-1.386c.023-.1-.1-.2-.254-.222l-16.239-2.176A.278.278,0,0,0,172.957-216.991Z" transform="translate(-92.569 -83.663)" fill="#8fcaf9"/>
    <path id="Trazado_24322" data-name="Trazado 24322" d="M172.957-216.991l-.878,1.326c-.065.106.055.236.24.259l16.808,2.278c.143,0,.273-.037.291-.125l.3-1.386c.023-.1-.1-.2-.254-.222l-16.239-2.176A.278.278,0,0,0,172.957-216.991Z" transform="translate(-92.569 -83.663)" fill="rgba(0,0,0,0.3)"/>
    <path id="Trazado_24323" data-name="Trazado 24323" d="M177.656-214.807l-.434-.055c-.088,0-.148-.065-.134-.12l.4-1.825c0-.051.092-.083.18-.074l.434.06c.088,0,.148.065.139.116l-.4,1.825C177.827-214.826,177.744-214.794,177.656-214.807Z" transform="translate(-95.272 -83.754)" fill="#253237"/>
    <path id="Trazado_24324" data-name="Trazado 24324" d="M201.432-211.559l-.434-.06c-.088,0-.148-.065-.139-.116l.4-1.825c0-.051.092-.088.18-.074l.434.055c.088,0,.148.065.134.12l-.4,1.825C201.6-211.582,201.52-211.545,201.432-211.559Z" transform="translate(-108.062 -85.501)" fill="#253237"/>
  </g>
</svg>
