<svg xmlns="http://www.w3.org/2000/svg" width="184.52" height="164.514" viewBox="0 0 184.52 164.514">
  <g id="Grupo_2611" data-name="Grupo 2611" transform="translate(0 412.9)">
    <path id="Trazado_23307" data-name="Trazado 23307" d="M15.82-318.079l3.921,3.857H41.75v-7.718H19.741Z" transform="translate(-9.517 -54.718)" fill="#ebebeb"/>
    <path id="Trazado_23308" data-name="Trazado 23308" d="M15.9-292.216l4.112,3.658,21.982-1.1-.386-7.706-21.982,1.092Z" transform="translate(-9.565 -69.505)" fill="#ebebeb"/>
    <path id="Trazado_23309" data-name="Trazado 23309" d="M109.207-306.347l-4.219,3.534L83.05-304.566l.622-7.694,21.938,1.753Z" transform="translate(-49.96 -60.541)" fill="#ebebeb"/>
    <path id="Trazado_23310" data-name="Trazado 23310" d="M74.68-230.952h5.949L79.242-330.29H76.067Z" transform="translate(-44.925 -49.695)" fill="#dadada"/>
    <path id="Trazado_23311" data-name="Trazado 23311" d="M396.592-181.382a14.225,14.225,0,0,1-.7,5.423,14.761,14.761,0,0,1-1.02,2.343,6.187,6.187,0,0,0-1.012,3c.1.076-.259.04-.263-.068-2.789-1.885-6.5-2.474-8.53-5.363a9.275,9.275,0,0,1-1.5-4.682,13.813,13.813,0,0,1,.53-5.475,5.631,5.631,0,0,1,2.917-3.423,6.659,6.659,0,0,1,4.837.155C395.026-188.207,396.373-184.57,396.592-181.382Z" transform="translate(-230.696 -134.08)" fill="#ebebeb"/>
    <path id="Trazado_23312" data-name="Trazado 23312" d="M399.873-154.941c-.295-1.355-.59-2.713-.9-4.064-.6-2.654-1.231-5.3-1.956-7.917q-.645-2.355-1.395-4.67a28.154,28.154,0,0,1,.566-2.789c.331-1.112.769-2.175,1.2-3.255.028-.068-.08-.112-.116-.048a14.867,14.867,0,0,0-1.932,5.156q-.873-2.622-1.9-5.18a21.662,21.662,0,0,1,.45-4.164h0a.052.052,0,0,0-.052-.052.052.052,0,0,0-.044.024,14.718,14.718,0,0,0-.57,3.666q-.8-1.932-1.705-3.817c-.056-.112-.215,0-.167.1.932,2.191,1.781,4.423,2.566,6.678a13.987,13.987,0,0,0-4.383-3c-.072-.032-.131.072-.06.108a16.631,16.631,0,0,1,4.694,3.642q.844,2.474,1.594,4.98a15.27,15.27,0,0,0-6.451-4.112c-.084-.028-.116.1-.036.128a18.335,18.335,0,0,1,6.75,4.873c.2.673.4,1.351.574,2.028.709,2.566,1.367,5.144,1.992,7.73.3,1.243.59,2.482.873,3.725.307,1.339.522,2.745.952,4.044.044.128.263.116.243-.032A37.251,37.251,0,0,0,399.873-154.941Z" transform="translate(-234.144 -138.843)" fill="#dadada"/>
    <path id="Trazado_23313" data-name="Trazado 23313" d="M406.6-175.448a7.249,7.249,0,0,0-1.251,2.534.02.02,0,0,0,.02.02.02.02,0,0,0,.02-.02,23.169,23.169,0,0,1,1.335-2.478C406.776-175.456,406.657-175.52,406.6-175.448Z" transform="translate(-243.844 -142.824)" fill="#dadada"/>
    <path id="Trazado_23314" data-name="Trazado 23314" d="M390.389-162.806a7.745,7.745,0,0,0-2.546-1.084c-.024,0-.04.028,0,.04.4.207.837.363,1.251.562s.817.426,1.235.61h0a.076.076,0,0,0,.076-.076A.076.076,0,0,0,390.389-162.806Z" transform="translate(-233.298 -149.796)" fill="#dadada"/>
    <path id="Trazado_23315" data-name="Trazado 23315" d="M390.711-180.669a5.408,5.408,0,0,0-.8-.586.045.045,0,0,0-.016,0,.048.048,0,0,0-.048.048.049.049,0,0,0,.008.027,5.3,5.3,0,0,0,.8.6C390.695-180.545,390.774-180.629,390.711-180.669Z" transform="translate(-234.52 -139.348)" fill="#dadada"/>
    <path id="Trazado_23316" data-name="Trazado 23316" d="M426.149-180.874c-2.064.757-4.14,1.462-6.2,2.207-.179.068-4.152-6.518-3.084-10.1a11.466,11.466,0,0,1,6.718-7.216,9.715,9.715,0,0,1,4.893-.893,4.094,4.094,0,0,1,3.032,2.61,11.748,11.748,0,0,1,.434,5.781,10.119,10.119,0,0,1-1.773,4.853A8.175,8.175,0,0,1,426.149-180.874Z" transform="translate(-250.662 -129.915)" fill="#ebebeb"/>
    <path id="Trazado_23317" data-name="Trazado 23317" d="M430.4-181.273a27.885,27.885,0,0,1-4.016,1.877,17.161,17.161,0,0,0-2.685,1.167c.761-2.032,1.618-4.028,2.53-6.012a9.455,9.455,0,0,0,3.686-2.2.056.056,0,0,0,.016-.04.056.056,0,0,0-.056-.056.056.056,0,0,0-.04.016,19.242,19.242,0,0,1-3.482,2.02c.247-.534.5-1.068.753-1.594.072-.147-.135-.279-.223-.132a44.336,44.336,0,0,0-2.674,5.18,22.878,22.878,0,0,1-.5-4.578.032.032,0,0,0-.032-.032.032.032,0,0,0-.032.032,15.359,15.359,0,0,0,.367,5.044c-.646,1.518-1.223,3.064-1.733,4.626-.295-.9-.665-1.785-.928-2.693a12.639,12.639,0,0,1-.554-4.024.03.03,0,1,0-.06,0,14.272,14.272,0,0,0,1.335,7.375c-.295.936-.574,1.881-.825,2.821a55.2,55.2,0,0,0-1.885,14.742.092.092,0,0,0,.09.073.092.092,0,0,0,.09-.073,72.218,72.218,0,0,1,2.239-14.595c.494-1.869,1.084-3.693,1.745-5.482,1.219-.446,2.422-1.02,3.618-1.518a11.482,11.482,0,0,0,3.3-1.881C430.5-181.237,430.444-181.3,430.4-181.273Z" transform="translate(-252.275 -136.169)" fill="#dadada"/>
    <path id="Trazado_23318" data-name="Trazado 23318" d="M446.074-178.587c-1.255.534-2.434,1.251-3.69,1.793-.056.024,0,.12.044.1a8.676,8.676,0,0,0,3.7-1.829C446.17-178.555,446.118-178.607,446.074-178.587Z" transform="translate(-266.109 -140.952)" fill="#dadada"/>
    <path id="Trazado_23319" data-name="Trazado 23319" d="M424.344-184.014c0-.068-.092-.1-.108-.028a6.555,6.555,0,0,0-.028,3.666c0,.044.092.044.092,0A20.529,20.529,0,0,1,424.344-184.014Z" transform="translate(-255.037 -137.649)" fill="#dadada"/>
    <path id="Trazado_23320" data-name="Trazado 23320" d="M437.129-191.657a3.149,3.149,0,0,0-.43,2.048.044.044,0,0,0,.088,0c.112-.685.339-1.319.5-1.992v-.006a.088.088,0,0,0-.088-.088A.088.088,0,0,0,437.129-191.657Z" transform="translate(-262.686 -133.07)" fill="#dadada"/>
    <path id="Trazado_23321" data-name="Trazado 23321" d="M436.142-152.836c-.263,2.036-1.231,4.957-3.51,5.387-1.478.279-3,.371-4.49.618-1.594.259-3.187.546-4.757.924a9.039,9.039,0,0,1,2.741-7.8,11.711,11.711,0,0,1,3.395-1.761,16.784,16.784,0,0,1,4.172-1.2c.881-.124,1.646-.068,2.12.777A5.251,5.251,0,0,1,436.142-152.836Z" transform="translate(-254.626 -154.112)" fill="#ebebeb"/>
    <path id="Trazado_23322" data-name="Trazado 23322" d="M430.694-153.465c-.889.4-1.777.849-2.654,1.311a10,10,0,0,1,.633-.889c.343-.4.733-.749,1.112-1.12.032-.028,0-.1-.044-.068a5.314,5.314,0,0,0-1.932,2.2c-1.1.582-2.171,1.2-3.187,1.857a12.946,12.946,0,0,0-1.992,1.546,9.213,9.213,0,0,1,.546-1.522,7.913,7.913,0,0,1,1.594-1.821.061.061,0,0,0,.021-.046.061.061,0,0,0-.061-.061.061.061,0,0,0-.04.015A5.52,5.52,0,0,0,422.3-148.3a13.065,13.065,0,0,0-1.817,2.355c-1.992,3.327-3.319,7.5-2.63,11.4,0,.1.171.092.171,0a21.959,21.959,0,0,1,2.968-11.22c.143-.243.291-.478.446-.705a17.374,17.374,0,0,1,2.048-.538c.8-.131,1.642-.171,2.462-.251a7.175,7.175,0,0,0,3.917-1.263c.048-.04,0-.128-.06-.092-2.51,1.454-5.546.721-8.132,1.781a12.855,12.855,0,0,1,3.51-3.267l.227-.139c1.761-.1,3.658.02,5.235-.841a.043.043,0,0,0,.014-.032.044.044,0,0,0-.044-.044h-.006c-1.55.7-3.187.466-4.805.669,1.618-.988,3.3-1.845,4.921-2.829C430.865-153.381,430.845-153.533,430.694-153.465Z" transform="translate(-251.254 -155.603)" fill="#dadada"/>
    <path id="Trazado_23323" data-name="Trazado 23323" d="M448.73-148.384a23.98,23.98,0,0,1-2.47.638c-.834.169,0,.036,0,.036a5.33,5.33,0,0,0,2.5-.614C448.79-148.344,448.79-148.4,448.73-148.384Z" transform="translate(-268.231 -159.122)" fill="#dadada"/>
    <path id="Trazado_23324" data-name="Trazado 23324" d="M436.423-150a4.084,4.084,0,0,0-1.088,1.084c-.036.048.036.116.076.072.183-.191.375-.375.57-.554a6.217,6.217,0,0,0,.534-.49.076.076,0,0,0,.012-.041.076.076,0,0,0-.076-.076A.078.078,0,0,0,436.423-150Z" transform="translate(-261.876 -158.149)" fill="#dadada"/>
    <path id="Trazado_23325" data-name="Trazado 23325" d="M388.394-141.661c.028.064-.064.124-.1.056a.106.106,0,0,1-.06.04,38.517,38.517,0,0,1-4.745.825,6.034,6.034,0,0,1-3.885-.558c-1.522-1.008-2.526-3.709-1.7-5.423.972-2.04,3.909-.932,5.379-.207A10.789,10.789,0,0,1,388.394-141.661Z" transform="translate(-227.155 -159.422)" fill="#ebebeb"/>
    <path id="Trazado_23326" data-name="Trazado 23326" d="M392.187-139.241a15.165,15.165,0,0,0-2.833-2.156,9.682,9.682,0,0,0-2.873-2.929c-.056-.04-.1.052-.052.088a12.936,12.936,0,0,1,2.422,2.53,26.9,26.9,0,0,0-3.55-1.614,4.742,4.742,0,0,0-1.909-1.912c-.808-.439-.036,0-.02.024a7.877,7.877,0,0,1,1.721,1.809c-.721-.267-1.45-.518-2.179-.761-.064-.02-.092.08-.028.1,1.3.506,2.626,1.04,3.909,1.658a14.971,14.971,0,0,1-4.733,0c-.044,0-.064.056-.02.068a9.355,9.355,0,0,0,5.024.076,23.531,23.531,0,0,1,2.391,1.335,5.852,5.852,0,0,0-1.924.159,14.687,14.687,0,0,1-3.387.4.038.038,0,0,0,0,.076c1.964.339,3.817-.554,5.765-.323a15.5,15.5,0,0,1,2.024,1.654,15.269,15.269,0,0,1,2.956,4.172c.817,1.665,1.263,3.435,1.924,5.156a.064.064,0,0,0,.056.033.064.064,0,0,0,.064-.064h0A18.25,18.25,0,0,0,392.187-139.241Z" transform="translate(-229.809 -160.902)" fill="#dadada"/>
    <path id="Trazado_23327" data-name="Trazado 23327" d="M391.016-143.166a2.243,2.243,0,0,0-.5-.61,1.994,1.994,0,0,0-.582-.434c-.02,0-.028.02,0,.032.159.183.4.319.558.494s.319.379.494.554h0a.032.032,0,0,0,.032-.032S391.016-143.165,391.016-143.166Z" transform="translate(-234.559 -161.634)" fill="#dadada"/>
    <path id="Trazado_23328" data-name="Trazado 23328" d="M381.828-139.53c-.291-.076-.6-.068-.892-.131a8.144,8.144,0,0,1-.869-.259h-.006a.036.036,0,0,0-.036.036.036.036,0,0,0,.014.028,2.869,2.869,0,0,0,1.789.4.044.044,0,0,0,.019-.036A.044.044,0,0,0,381.828-139.53Z" transform="translate(-228.609 -164.214)" fill="#dadada"/>
    <path id="Trazado_23329" data-name="Trazado 23329" d="M411.678-120.88l-.319,3.638-1.088,12.276h-9.614L399.3-117.242l-.4-3.638Z" transform="translate(-239.964 -175.669)" fill="#c7c7c7"/>
    <path id="Trazado_23330" data-name="Trazado 23330" d="M411.678-120.88l-.319,3.638H399.3l-.4-3.638Z" transform="translate(-239.964 -175.669)" fill="#a6a6a6"/>
    <path id="Trazado_23331" data-name="Trazado 23331" d="M396.51-120.412h14.682v-2.948H396.51Z" transform="translate(-238.526 -174.177)" fill="#c7c7c7" fill-rule="evenodd"/>
    <path id="Trazado_23332" data-name="Trazado 23332" d="M362.055-371.628H316.94s4.474-12.212,11.351-12.212,9.036,8.431,9.036,8.431,4.642-4.582,8.459-4.582,7.128,6.052,7.128,6.052A6.679,6.679,0,0,1,362.055-371.628Z" transform="translate(-190.66 -17.481)" fill="#ebebeb"/>
    <path id="Trazado_23333" data-name="Trazado 23333" d="M199.707-406.079H178.63s4.71-6.821,8.419-6.821,4.809,4.546,4.809,4.546,2.618-2.12,5.044-1.741S199.707-406.079,199.707-406.079Z" transform="translate(-107.457)" fill="#ebebeb"/>
    <path id="Trazado_23334" data-name="Trazado 23334" d="M114.489-396.013H73.45s5.618-12.551,11.634-13.332,8.889,9.323,8.889,9.323,3.877-3.586,6.929-3.586,5.4,4.706,5.4,4.706S112.385-402.1,114.489-396.013Z" transform="translate(-44.185 -2.113)" fill="#ebebeb"/>
    <path id="Trazado_23335" data-name="Trazado 23335" d="M2.33-81.271l22.4-.1,22.4-.036,44.792-.064,44.792.064,22.4.036,22.4.1-22.4.1-22.4.036-44.792.064-44.792-.064-22.4-.036Z" transform="translate(-1.402 -199.376)" fill="#253237"/>
    <path id="Trazado_23336" data-name="Trazado 23336" d="M34.608-25.78c19.1,0,34.608,2.3,34.608,5.136s-15.508,5.136-34.608,5.136S0-17.81,0-20.644,15.507-25.78,34.608-25.78Z" transform="translate(0 -232.878)" fill="#ebebeb" fill-rule="evenodd"/>
    <path id="Trazado_23337" data-name="Trazado 23337" d="M324-25.78c19.1,0,34.608,2.3,34.608,5.136S343.1-15.508,324-15.508s-34.608-2.3-34.608-5.136S304.9-25.78,324-25.78Z" transform="translate(-174.087 -232.878)" fill="#ebebeb" fill-rule="evenodd"/>
    <path id="Trazado_23338" data-name="Trazado 23338" d="M165.569-42.29c25.216,0,45.689,1.507,45.689,3.363s-20.472,3.363-45.689,3.363-45.689-1.507-45.689-3.363S140.352-42.29,165.569-42.29Z" transform="translate(-72.116 -222.946)" fill="#ebebeb" fill-rule="evenodd"/>
    <path id="Trazado_23339" data-name="Trazado 23339" d="M300.54-330.4l25.974-3.395v105.02l-25.974,3.395Z" transform="translate(-180.794 -47.59)" fill="#37464e"/>
    <path id="Trazado_23340" data-name="Trazado 23340" d="M170.15-330.4l25.974-3.395v105.02l-25.974,3.395Z" transform="translate(-102.356 -47.59)" fill="#253237"/>
    <path id="Trazado_23341" data-name="Trazado 23341" d="M261.318-330.4,235.34-333.79v105.02l25.978,3.395Z" transform="translate(-141.572 -47.59)" fill="#253237"/>
    <path id="Trazado_23342" data-name="Trazado 23342" d="M130.934-330.4,104.96-333.79v105.02l25.974,3.395Z" transform="translate(-63.14 -47.59)" fill="#37464e"/>
    <path id="Trazado_23343" data-name="Trazado 23343" d="M300.54-324.256l23.5-3.044v100.011l-23.5,3.044Z" transform="translate(-180.794 -51.494)" fill="#dadada"/>
    <path id="Trazado_23344" data-name="Trazado 23344" d="M170.15-324.069l25.974-3.231v100.011l-25.974,3.231Z" transform="translate(-102.356 -51.494)" fill="#dadada"/>
    <path id="Trazado_23345" data-name="Trazado 23345" d="M261.318-324.022,235.34-327.07v100.015l25.978,3.044Z" transform="translate(-141.572 -51.632)" fill="#ebebeb"/>
    <path id="Trazado_23346" data-name="Trazado 23346" d="M134.676-324.069l-23.5-3.231v100.011l23.5,3.231Z" transform="translate(-66.882 -51.494)" fill="#ebebeb"/>
    <path id="Trazado_23347" data-name="Trazado 23347" d="M131.931-320.467l-2.1,7.176-.494,1.693-5.184,17.687-.3.7-1.518-.574-11.156-4.207v-1.885l11.762,4.443,7.387-25.257Z" transform="translate(-66.882 -55.47)" fill="#fff"/>
    <path id="Trazado_23348" data-name="Trazado 23348" d="M182.518-325.91l-.952.578-1.657,1-10.363,6.255-1.406.853-7.064,4.263-.092-.028-5.335-1.745-.737-.239.442-1.713.789.259,4.749,1.554.092-.056,17.312-10.451v0h0l1.741-.211.912-.116h.008Z" transform="translate(-93.188 -52.33)" fill="#fff"/>
    <path id="Trazado_23349" data-name="Trazado 23349" d="M227.32-321.169l-1.351,5.634-.454,1.9-7.483,31.1-.41,1.725,0,.02-5.55-2.156-1.92-.793-3.857-1.594-.478-.2-.781-1.231L187.5-314.491l-.406-.641,1.295-1.032.518.821,7.746,12.248,1.044,1.654,9.128,14.431,9.714,3.881,5.016-20.826.446-1.861,3.729-15.543Z" transform="translate(-112.547 -55.067)" fill="#fff"/>
    <path id="Trazado_23350" data-name="Trazado 23350" d="M240.562-307.61,239.6-306.2l-.235-.2-15.236-13.113-.438-.379-.952-.6-1.387-.869-4.271-2.681-.379-.239.51-1.024.912-.116h.008l.606.383,5.391,3.395.478.3,15.2,13.085Z" transform="translate(-130.359 -52.625)" fill="#fff"/>
    <path id="Trazado_23351" data-name="Trazado 23351" d="M312.229-290.14v1.928l-4.128-1.932-1.478-.7-18.308-8.586-6.355-6.088-1.04-1,1.024-1.359.47.45,6.742,6.455Z" transform="translate(-168.991 -63.182)" fill="#fff"/>
    <path id="Trazado_23352" data-name="Trazado 23352" d="M318.908-216.287l-1.538-.438L328.717-267l1.538.438Z" transform="translate(-190.918 -87.768)" fill="#fff"/>
    <path id="Trazado_23353" data-name="Trazado 23353" d="M285.279-156.29v1.865l-19.344,6.777-1.538.542h0l-2.223.777-23.846,22.3-2.2-.259,8.228-7.69,1.654-1.55,7.252-6.777,1.307-1.219,6.841-6.4,7.164-2.51,1.777-.626Z" transform="translate(-142.041 -154.367)" fill="#fff"/>
    <path id="Trazado_23354" data-name="Trazado 23354" d="M277.068-216.88l-15.388-5.965.51-1.685,15.065,5.841,13.694-1.442.147,1.773Z" transform="translate(-157.417 -113.317)" fill="#fff"/>
    <path id="Trazado_23355" data-name="Trazado 23355" d="M211.032-298.419l-1.422-.785,7.805-17.926,1.422.785Z" transform="translate(-126.094 -57.612)" fill="#fff"/>
    <path id="Trazado_23356" data-name="Trazado 23356" d="M171.188-115.058l-.211,1.761-1.789-.267-8.853-1.327L134.6-123.871l-23.416,2.6v-1.793l15.846-1.757,2.08-.227,5.654-.63.151.056,14.7,5.128,1.661.578,9.4,3.279,10.164,1.526Z" transform="translate(-66.882 -172.781)" fill="#fff"/>
    <path id="Trazado_23357" data-name="Trazado 23357" d="M116.814-237.763,111.18-224.8v-4.064l11.156-25.675.4-.912,1.422.785-.3.7-6.279,14.451Z" transform="translate(-66.882 -94.716)" fill="#fff"/>
    <path id="Trazado_23358" data-name="Trazado 23358" d="M129.369-152.732l-1.088,1.291-1.255-1.343L111.18-169.7v-2.458L123.5-159l1.267,1.347,4.335,4.638Z" transform="translate(-66.882 -144.821)" fill="#fff"/>
    <path id="Trazado_23359" data-name="Trazado 23359" d="M142.5-224.8l-18.479-.956.072-1.781,18.209.944,25.843-8.841.462,1.705Z" transform="translate(-74.606 -106.76)" fill="#fff"/>
    <path id="Trazado_23360" data-name="Trazado 23360" d="M142.612-181.236l-1.5-.574,9.244-30.46,1.5.578Z" transform="translate(-84.887 -120.692)" fill="#fff"/>
    <path id="Trazado_23361" data-name="Trazado 23361" d="M342.073-191.816v1.8l-10.853-1.355-.689-.088.175-1.769.9.112Z" transform="translate(-198.835 -132.146)" fill="#fff"/>
    <path id="Trazado_23362" data-name="Trazado 23362" d="M258.557-183.7,244.64-228.814l1.5-.586,13.917,45.111Z" transform="translate(-147.167 -110.387)" fill="#fff"/>
    <path id="Trazado_23363" data-name="Trazado 23363" d="M207.973-142.837l-1.183-1.187,10.877-13.71,12.579-7.766.761,1.562-12.34,7.618Z" transform="translate(-124.397 -148.827)" fill="#fff"/>
    <path id="Trazado_23364" data-name="Trazado 23364" d="M227.32-321.169l-1.351,5.634-.454,1.9-7.483,31.1-.41,1.725,0,.02-5.55-2.156-1.92-.793-3.857-1.594-.478-.2-.781-1.231L187.5-314.491l-.406-.641,1.295-1.032.518.821,7.746,12.248,1.044,1.654,9.128,14.431,9.714,3.881,5.016-20.826.446-1.861,3.729-15.543Z" transform="translate(-112.547 -55.067)" fill="#fff"/>
    <path id="Trazado_23365" data-name="Trazado 23365" d="M277.068-216.88l-15.388-5.965.51-1.685,15.065,5.841,13.694-1.442.147,1.773Z" transform="translate(-157.417 -113.317)" fill="#fff"/>
    <path id="Trazado_23366" data-name="Trazado 23366" d="M171.188-115.058l-.211,1.765-1.793-.271-8.849-1.327-10.188-3.554h-.008L139.76-122.07l-5.164-1.8-23.416,2.6v-1.793l15.846-1.757,2.084-.227,5.646-.63.159.056,4.845,1.693,9.853,3.435,1.661.578h0l.024.012,9.375,3.267,10.164,1.526Z" transform="translate(-66.882 -172.781)" fill="#fff"/>
    <path id="Trazado_23367" data-name="Trazado 23367" d="M260.055-184.289l-1.5.582-5.606-18.161v0l-.526-1.705-7.662-24.838-.124-.4.187-.076,1.311-.51.55,1.777,7.674,24.882Z" transform="translate(-147.167 -110.387)" fill="#fff"/>
    <path id="Trazado_23368" data-name="Trazado 23368" d="M231.007-163.942v0l-.825.51-11.515,7.108-9.873,12.447-.821,1.036-1.183-1.183.339-.43,10.539-13.284,11.989-7.4.59-.363Z" transform="translate(-124.397 -148.827)" fill="#fff"/>
    <path id="Trazado_23369" data-name="Trazado 23369" d="M319.3-111.729l-1.685.219-10.985-23.974h0l-.3-.669,1.41-.817.434.944Z" transform="translate(-184.271 -165.99)" fill="#fff"/>
    <path id="Trazado_23370" data-name="Trazado 23370" d="M182.711-254.223l13.5-4.618-8.821-13.949-7.419,2.49Z" transform="translate(-108.264 -84.285)" fill="#ebebeb"/>
    <path id="Trazado_23371" data-name="Trazado 23371" d="M309.99-250.887l7.71-.813,3.522-15.344-8.307-3.9Z" transform="translate(-186.479 -85.398)" fill="#ebebeb"/>
    <path id="Trazado_23372" data-name="Trazado 23372" d="M333.308-306.275,315.96-314v-11.053l17.352-2.247Z" transform="translate(-190.07 -51.494)" fill="#ebebeb"/>
    <path id="Trazado_23373" data-name="Trazado 23373" d="M175.27-293.634l4.319-2.606,3.865,6.136-6.889,2.355Z" transform="translate(-105.436 -70.178)" fill="#ebebeb"/>
    <path id="Trazado_23374" data-name="Trazado 23374" d="M246.04-145.553l7.04-4.347,3.769,12.224-5.04,4.714-5.769-.865Z" transform="translate(-148.009 -158.211)" fill="#dadada"/>
    <path id="Trazado_23375" data-name="Trazado 23375" d="M244.93-322.7v-3.279l13.981,1.654-2.713,11.32Z" transform="translate(-147.341 -52.288)" fill="#dadada"/>
    <path id="Trazado_23376" data-name="Trazado 23376" d="M117.77-192.346l8.981,9.59,5.8-19.2-10.407-.538Z" transform="translate(-70.846 -126.575)" fill="#dadada"/>
    <path id="Trazado_23377" data-name="Trazado 23377" d="M117.39-297.345V-312.96l12.686,1.825-4.9,16.734Z" transform="translate(-70.618 -60.12)" fill="#dadada"/>
    <path id="Trazado_23378" data-name="Trazado 23378" d="M117.39-322.988l12.686,1.825,1.008-3.4L117.39-326.45Z" transform="translate(-70.618 -52.005)" fill="#dadada"/>
    <path id="Trazado_23379" data-name="Trazado 23379" d="M176.8-96.9V-111.53l9.3,3.263v10.208Z" transform="translate(-106.357 -181.293)" fill="#ebebeb"/>
    <path id="Trazado_23380" data-name="Trazado 23380" d="M116.15-109.885l7.232-.8v12.826l-7.232-1Z" transform="translate(-69.872 -181.799)" fill="#dadada"/>
    <path id="Trazado_23381" data-name="Trazado 23381" d="M332.388-115.764l-8.068-17.6,14.017-4.913,0,21.743Z" transform="translate(-195.099 -165.202)" fill="#ebebeb"/>
    <path id="Trazado_23382" data-name="Trazado 23382" d="M280.215-238.412V-247.3l-8.044-2.813-1.9,7.917Z" transform="translate(-162.585 -97.929)" fill="#dadada"/>
    <path id="Trazado_23383" data-name="Trazado 23383" d="M209.553-241.864l7.678,24.882-.59.359-.821.506v0L204.3-209.005l-9.845,12.459-1.159,1.462h-.008l-10.379-3.626v-1.861l9.853,3.439L203.3-210.419l11.989-7.4-7.666-24.838h0l.064-.47.183-1.379v-.012l6.148,2.446,2.65-11,1.5.586L215.1-239.712Z" transform="translate(-110.032 -96.142)" fill="#8fcaf9"/>
    <path id="Trazado_23384" data-name="Trazado 23384" d="M265.886-288.01c-.3-3.024-2.391-6.04-6.052-6.04s-5.749,3.016-6.052,6.04c-.462,4.674,2.689,8.909,6.052,12.77C263.2-279.1,266.352-283.336,265.886-288.01Zm-6.052,3.363a3.331,3.331,0,0,1-3.311-3.315,3.331,3.331,0,0,1,3.315-3.315,3.331,3.331,0,0,1,3.315,3.315v0a3.327,3.327,0,0,1-3.311,3.311Z" transform="translate(-152.639 -71.496)" fill="#253237"/>
    <path id="Trazado_23385" data-name="Trazado 23385" d="M179.76-157.716c-.3-3.028-2.391-6.044-6.056-6.044s-5.749,3.016-6.052,6.044c-.462,4.674,2.689,8.905,6.052,12.75C177.071-148.811,180.222-153.042,179.76-157.716Zm-6.056,3.359a3.331,3.331,0,0,1-3.311-3.315,3.331,3.331,0,0,1,3.315-3.315,3.331,3.331,0,0,1,3.315,3.315v0a3.327,3.327,0,0,1-3.311,3.311Z" transform="translate(-100.826 -149.874)" fill="#253237"/>
    <path id="Trazado_23386" data-name="Trazado 23386" d="M342.762-264.114a5.089,5.089,0,0,0,.291.57,5.833,5.833,0,0,0,1,1.275,10.689,10.689,0,0,0,7.722,3.124,10.863,10.863,0,0,0,2.522-.339,10.978,10.978,0,0,0,4.988-2.789,9.381,9.381,0,0,0,1.654-2.16,22.236,22.236,0,0,0,2.586-13.308A1.914,1.914,0,0,0,363.5-278a.646.646,0,0,0,0-.088.307.307,0,0,1,0-.044,2.414,2.414,0,0,0-.048-.335,22.26,22.26,0,0,0-1.307-4.941c-.624-1.591,0,0,0-.02-.231-.574-.478-1.124-.749-1.654a17.791,17.791,0,0,0-1.032-1.773c-1.506-2.267-5.419-3.367-7.917-1.494a7.649,7.649,0,0,0-2.737,4.909c-.1.442-.171.888-.247,1.339-.092.546-.175,1.092-.267,1.626-.056.319-.116.638-.187.948v.052c-.418,1.893-.8,3.51-2.156,4.869a20.645,20.645,0,0,0-3.383,3.725A7.51,7.51,0,0,0,342.762-264.114Z" transform="translate(-205.884 -74.355)" fill="#253237"/>
    <path id="Trazado_23387" data-name="Trazado 23387" d="M340.635-261.639a7.865,7.865,0,0,1,2.57-4.415,19.983,19.983,0,0,0,2.323-2.323,11.006,11.006,0,0,0,1.494-2.809c.892-2.367,1.231-4.9,2.144-7.256,0-.032.052,0,.044,0-1.271,3.586-1.367,7.825-4.016,10.806-1.255,1.414-2.845,2.466-3.7,4.2a5.567,5.567,0,0,0-.032,5.359,7.729,7.729,0,0,0,4.618,3.187c.06.02.032.124-.028.108C342.85-255.507,340.057-258.137,340.635-261.639Z" transform="translate(-204.868 -80.877)" fill="#253237"/>
    <path id="Trazado_23388" data-name="Trazado 23388" d="M361.275-253.566a13.661,13.661,0,0,0,1.793.251,11.288,11.288,0,0,0,5.706-.944,8.322,8.322,0,0,0,1.554-.976,10.933,10.933,0,0,0,3.148-4.172,21.093,21.093,0,0,0,1.642-6.518,25.338,25.338,0,0,0-.215-6.654c-.135-.8-.311-1.622-.526-2.414a23.612,23.612,0,0,0-1.753-4.574c-.024-.044-.1,0-.076.032l.131.279c.124.267.239.534.355.8a25.228,25.228,0,0,1,1.7,5.805,2.608,2.608,0,0,0,.056.339v.044a.637.637,0,0,1,0,.088c.024.147.044.3.06.45a22.351,22.351,0,0,1-1.992,12.969c-.064.116-.128.231-.2.343a9.408,9.408,0,0,1-4.71,4.219,9.091,9.091,0,0,1-2.351.538,26.7,26.7,0,0,1-4.3-.024l-.014,0a.064.064,0,0,0-.063.063A.064.064,0,0,0,361.275-253.566Z" transform="translate(-217.301 -80.197)" fill="#253237"/>
    <path id="Trazado_23389" data-name="Trazado 23389" d="M342.74-265.772a27.056,27.056,0,0,0,2.187-1.741,6.97,6.97,0,0,0,1.558-2.757c.717-2.048,1.335-4.148,1.912-6.24h.02c-.538,1.964-1.032,3.937-1.657,5.877a9.7,9.7,0,0,1-1.08,2.49,7.572,7.572,0,0,1-1.741,1.7,13.262,13.262,0,0,0-3.717,3.893,6.212,6.212,0,0,0-.43,5.634C338.138-260.194,340.146-263.684,342.74-265.772Z" transform="translate(-204.045 -82.047)" fill="#253237"/>
    <path id="Trazado_23390" data-name="Trazado 23390" d="M382.942-256.619c2.355,1.391,11.1,10.136,11.638,15.4.61,5.885-2.689,14.686-3.395,15.635-.908,1.223-8.4-1.518-8.24-3.411.207-2.367,3.207-10.248,2.956-11.662-.4-2.144-3.486-9.4-5.506-13.945C379.224-257.22,381.129-257.69,382.942-256.619Z" transform="translate(-228.616 -93.691)" fill="#f6a8a0"/>
    <path id="Trazado_23391" data-name="Trazado 23391" d="M390.175-183.057a61.079,61.079,0,0,1-2.144,6.662c-.626,1.179-2.677,4.455-3.63,4.064s-.43-1.391-.43-1.391-1.088,1.243-1.992.765-.056-2.016-.056-2.016-1.2,1.2-2.1.653.243-1.944.243-1.944-1.056,1.147-1.594.4c-.653-.908,1.526-2.789,2.12-4.156.135-.311,2.291-6.439,2.291-6.439Z" transform="translate(-227.606 -136.218)" fill="#f6a8a0"/>
    <path id="Trazado_23392" data-name="Trazado 23392" d="M382.785-166.975a7.484,7.484,0,0,0,2.658-4.283.032.032,0,0,1,.032-.032.032.032,0,0,1,.032.032c-.4,1.992-.821,3.187-2.658,4.351C382.761-166.828,382.709-166.907,382.785-166.975Z" transform="translate(-230.248 -145.344)" fill="#253237"/>
    <path id="Trazado_23393" data-name="Trazado 23393" d="M387.369-164.227a11.183,11.183,0,0,0,2.821-4.6c0-.028.06,0,.052,0-.6,2.076-1.04,3.259-2.789,4.654C387.381-164.1,387.3-164.159,387.369-164.227Z" transform="translate(-233.011 -146.817)" fill="#253237"/>
    <path id="Trazado_23394" data-name="Trazado 23394" d="M392.941-161.92a9.875,9.875,0,0,0,2.478-4.781.04.04,0,0,1,.038-.027.04.04,0,0,1,.038.027,7.107,7.107,0,0,1-2.5,4.781C392.9-161.793,392.858-161.817,392.941-161.92Z" transform="translate(-236.352 -148.088)" fill="#253237"/>
    <path id="Trazado_23395" data-name="Trazado 23395" d="M383.46-190.51a26.2,26.2,0,0,0-2.331,3.048c-.578,1.048-1.291,5.741-.283,5.953,1.295.275,2.243-2.355,2.538-3.705,0,0,3,.637,4.088-1.1S383.46-190.51,383.46-190.51Z" transform="translate(-228.799 -133.782)" fill="#f6a8a0"/>
    <path id="Trazado_23396" data-name="Trazado 23396" d="M382.544-175.111c1.367-.606,1.638-2.391,2.02-3.69a.128.128,0,0,1,.122-.092.129.129,0,0,1,.069.02c1.275.183,3.128.068,4.056-.928a.031.031,0,0,1,.02-.007.032.032,0,0,1,.032.032.031.031,0,0,1,0,.015c-.849,1.2-2.662,1.466-4.044,1.2-.375,1.327-.725,3.116-2.263,3.486C382.54-175.095,382.536-175.107,382.544-175.111Z" transform="translate(-230.122 -140.22)" fill="#253237"/>
    <path id="Trazado_23397" data-name="Trazado 23397" d="M394.694-238.085a54,54,0,0,1-1.594,9.041l-10.359-3.646s2.642-6.7,2.705-7.805c.092-1.594-2.108-6.7-4.383-11.6-1.865-3.984-1.909-6.263.518-5.463a9.705,9.705,0,0,1,2.108,1.08c4.455,2.853,9.67,9.913,10.782,14.164A14.2,14.2,0,0,1,394.694-238.085Z" transform="translate(-228.419 -93.351)" fill="#8fcaf9"/>
    <path id="Trazado_23398" data-name="Trazado 23398" d="M383.618-252.492v0a.188.188,0,0,1-.187.187.188.188,0,0,1-.187-.187.188.188,0,0,1,.187-.187A.188.188,0,0,1,383.618-252.492Zm3.04-.183a.188.188,0,0,0-.187.187.188.188,0,0,0,.187.187.188.188,0,0,0,.187-.187v0A.188.188,0,0,0,386.658-252.675Zm-4.841-2.391a.188.188,0,0,0-.187.187.188.188,0,0,0,.187.187.188.188,0,0,0,.187-.187.157.157,0,0,0,0-.024.188.188,0,0,0-.187-.187h0Zm4.841,7.24a.188.188,0,0,0-.187.187.188.188,0,0,0,.187.187.188.188,0,0,0,.187-.187v-.008a.188.188,0,0,0-.187-.187h0Zm3.227,0a.188.188,0,0,0-.187.187.188.188,0,0,0,.187.187.188.188,0,0,0,.187-.187v-.008a.188.188,0,0,0-.187-.187h0Zm-4.841-2.391a.188.188,0,0,0-.187.187.188.188,0,0,0,.187.187.188.188,0,0,0,.187-.187v-.012a.188.188,0,0,0-.187-.187h-.012Zm3.227,0a.188.188,0,0,0-.187.187.188.188,0,0,0,.187.187.188.188,0,0,0,.187-.187v-.012a.188.188,0,0,0-.187-.187h0Zm-1.614,7.236a.188.188,0,0,0-.187.187.188.188,0,0,0,.187.187.188.188,0,0,0,.187-.187s0-.008,0-.012a.188.188,0,0,0-.187-.187h0Zm3.227,0a.188.188,0,0,0-.187.187.188.188,0,0,0,.187.187.188.188,0,0,0,.187-.187s0-.008,0-.012a.188.188,0,0,0-.187-.187h0Zm3.227,0a.188.188,0,0,0-.187.187.188.188,0,0,0,.187.187.188.188,0,0,0,.187-.187s0-.008,0-.012a.188.188,0,0,0-.187-.187h0Zm-8.068-2.391a.188.188,0,0,0-.187.187.188.188,0,0,0,.187.187.188.188,0,0,0,.187-.187c0-.006,0-.011,0-.016a.188.188,0,0,0-.187-.187h-.013Zm3.227,0a.188.188,0,0,0-.187.187.188.188,0,0,0,.187.187.188.188,0,0,0,.187-.187c0-.005,0-.011,0-.016a.188.188,0,0,0-.187-.187h0Zm3.227,0a.188.188,0,0,0-.187.187.188.188,0,0,0,.187.187.188.188,0,0,0,.187-.187A.188.188,0,0,0,391.5-245.372Zm-4.841,7.236a.188.188,0,0,0-.187.187.188.188,0,0,0,.187.187.188.188,0,0,0,.187-.187c0-.005,0-.011,0-.016a.188.188,0,0,0-.187-.187h0Zm3.227,0a.188.188,0,0,0-.187.187.188.188,0,0,0,.187.187.188.188,0,0,0,.187-.187c0-.005,0-.011,0-.016a.188.188,0,0,0-.187-.187h0Zm3.227,0a.188.188,0,0,0-.187.187.188.188,0,0,0,.187.187.188.188,0,0,0,.187-.187c0-.005,0-.011,0-.016a.188.188,0,0,0-.187-.187h0Zm-4.841-2.391a.188.188,0,0,0-.187.187.188.188,0,0,0,.187.187.188.188,0,0,0,.187-.187.168.168,0,0,0,0-.02.188.188,0,0,0-.187-.187h0Zm3.227,0a.188.188,0,0,0-.187.187.188.188,0,0,0,.187.187.188.188,0,0,0,.187-.187A.188.188,0,0,0,391.5-240.527Zm3.231,0h0a.188.188,0,0,0-.187.187.188.188,0,0,0,.187.187.188.188,0,0,0,.187-.187.168.168,0,0,0,0-.02.188.188,0,0,0-.184-.187Zm-8.072,7.236a.188.188,0,0,0-.187.187.188.188,0,0,0,.187.187.188.188,0,0,0,.187-.187.167.167,0,0,0,0-.02.188.188,0,0,0-.187-.187h0Zm3.227,0a.188.188,0,0,0-.187.187.188.188,0,0,0,.187.187.188.188,0,0,0,.187-.187.167.167,0,0,0,0-.02.188.188,0,0,0-.187-.187h0Zm3.227,0a.188.188,0,0,0-.187.187.188.188,0,0,0,.187.187.188.188,0,0,0,.187-.187.167.167,0,0,0,0-.02.188.188,0,0,0-.187-.187h0Zm-4.841-2.391a.188.188,0,0,0-.187.187.188.188,0,0,0,.187.187.188.188,0,0,0,.187-.187.157.157,0,0,0,0-.024.188.188,0,0,0-.187-.187h0Zm3.227,0a.188.188,0,0,0-.187.187.188.188,0,0,0,.187.187.188.188,0,0,0,.187-.187A.188.188,0,0,0,391.5-235.682Zm3.231,0h0a.188.188,0,0,0-.187.187.188.188,0,0,0,.187.187.188.188,0,0,0,.187-.187.157.157,0,0,0,0-.024.188.188,0,0,0-.185-.187Zm-1.618,7.24a.188.188,0,0,0-.187.187.188.188,0,0,0,.187.187.188.188,0,0,0,.187-.187.157.157,0,0,0,0-.024.188.188,0,0,0-.187-.187h0Zm-4.841-2.391a.188.188,0,0,0-.187.187.188.188,0,0,0,.187.187.188.188,0,0,0,.187-.187.168.168,0,0,0,0-.032.188.188,0,0,0-.187-.187h0Zm3.227,0a.188.188,0,0,0-.187.187.188.188,0,0,0,.187.187.188.188,0,0,0,.187-.187A.188.188,0,0,0,391.5-230.833Zm3.231,0h0a.188.188,0,0,0-.187.187.188.188,0,0,0,.187.187.188.188,0,0,0,.187-.187.168.168,0,0,0,0-.032.188.188,0,0,0-.186-.187Z" transform="translate(-229.575 -94.933)" fill="#fff"/>
    <path id="Trazado_23399" data-name="Trazado 23399" d="M394.694-238.085a54,54,0,0,1-1.594,9.041l-10.359-3.646s2.642-6.7,2.705-7.805c.092-1.594-2.108-6.7-4.383-11.6-1.865-3.984-1.909-6.263.518-5.463Z" transform="translate(-228.419 -93.351)" fill="#253237"/>
    <path id="Trazado_23400" data-name="Trazado 23400" d="M374.912-264.684c-.056.331-1.478,2.538-2.968,2.558-.486,0-.641-2.642-.641-2.642l-.056-.2-.8-2.7,3.092-2.263.45-.3s.163.753.359,1.693c.012.045.021.09.028.135a1.246,1.246,0,0,1,.036.151c.032.139.064.283.092.426s.044.215.06.331.04.227.064.343A17.5,17.5,0,0,1,374.912-264.684Z" transform="translate(-222.85 -85.825)" fill="#f6a8a0"/>
    <path id="Trazado_23401" data-name="Trazado 23401" d="M374.367-268.519a5.634,5.634,0,0,1-3.12,3.586l-.8-2.7,3.092-2.263.45-.3S374.171-269.459,374.367-268.519Z" transform="translate(-222.85 -85.843)" fill="#253237"/>
    <path id="Trazado_23402" data-name="Trazado 23402" d="M361.124-283.254c-1.147,4.781,1.594,6.076,2.638,6.275.948.183,4.172.865,5.809-3.793s-.235-6.71-2.359-7.335S362.271-288.059,361.124-283.254Z" transform="translate(-217.074 -74.953)" fill="#f6a8a0"/>
    <path id="Trazado_23403" data-name="Trazado 23403" d="M362.293-278.4a3.222,3.222,0,0,0,.339-.028.532.532,0,0,0,.339-.1.172.172,0,0,0,.028-.211.436.436,0,0,0-.4-.155.633.633,0,0,0-.426.175.187.187,0,0,0-.051.128A.188.188,0,0,0,362.293-278.4Z" transform="translate(-217.84 -80.615)" fill="#253237"/>
    <path id="Trazado_23404" data-name="Trazado 23404" d="M369.446-277.358c-.112-.028-.211-.072-.323-.108a.549.549,0,0,1-.311-.171.176.176,0,0,1,.024-.211.435.435,0,0,1,.438-.056.641.641,0,0,1,.375.267.187.187,0,0,1,.027.1.188.188,0,0,1-.187.187A.192.192,0,0,1,369.446-277.358Z" transform="translate(-221.85 -81.188)" fill="#253237"/>
    <path id="Trazado_23405" data-name="Trazado 23405" d="M368.052-273.54s.024,0,0,.036c-.06.331-.072.717.215.873h0C367.913-272.719,367.933-273.233,368.052-273.54Z" transform="translate(-221.36 -83.834)" fill="#253237"/>
    <path id="Trazado_23406" data-name="Trazado 23406" d="M368.416-274.3c.542.04.426,1.116-.076,1.084S367.961-274.333,368.416-274.3Z" transform="translate(-221.385 -83.376)" fill="#253237"/>
    <path id="Trazado_23407" data-name="Trazado 23407" d="M369.414-274.105c.088.072.167.187.279.211s.243-.076.343-.175c-.02.207-.124.4-.347.4s-.331-.191-.359-.4C369.338-274.085,369.378-274.137,369.414-274.105Z" transform="translate(-222.176 -83.488)" fill="#253237"/>
    <path id="Trazado_23408" data-name="Trazado 23408" d="M363.116-274.38a.027.027,0,0,0-.028.028c-.024.335-.108.713-.418.8h0C363.045-273.551,363.148-274.057,363.116-274.38Z" transform="translate(-218.169 -83.329)" fill="#253237"/>
    <path id="Trazado_23409" data-name="Trazado 23409" d="M362.428-275.339c-.534-.1-.685.98-.191,1.068S362.858-275.243,362.428-275.339Z" transform="translate(-217.728 -82.748)" fill="#253237"/>
    <path id="Trazado_23410" data-name="Trazado 23410" d="M361.676-275.429c-.092.044-.191.135-.295.128s-.187-.135-.247-.259h-.02c-.032.207,0,.43.2.5s.335-.1.4-.295C361.735-275.373,361.711-275.448,361.676-275.429Z" transform="translate(-217.227 -82.619)" fill="#253237"/>
    <path id="Trazado_23411" data-name="Trazado 23411" d="M366.8-267.12c-.068.088-.128.207-.247.239a.84.84,0,0,1-.371-.032h0a.451.451,0,0,0,.45.116.355.355,0,0,0,.215-.335A.03.03,0,0,0,366.8-267.12Z" transform="translate(-220.249 -87.684)" fill="#253237"/>
    <path id="Trazado_23412" data-name="Trazado 23412" d="M363.546-275.291s-.128.49-.155.725c0,.024.052.04.132.056a1.13,1.13,0,0,0,1.136-.287.024.024,0,0,0,.008-.018.024.024,0,0,0-.024-.024.023.023,0,0,0-.016.006,1.705,1.705,0,0,1-1.056.167c0-.064.247-.829.211-.837a1.951,1.951,0,0,0-.55.056c.239-1.028.641-2.012.861-3.04a.032.032,0,0,0,0-.012.033.033,0,0,0-.032-.032.032.032,0,0,0-.03.02,16.893,16.893,0,0,0-1.064,3.235C362.945-275.144,363.447-275.263,363.546-275.291Z" transform="translate(-218.349 -80.832)" fill="#253237"/>
    <path id="Trazado_23413" data-name="Trazado 23413" d="M364.44-269.075a1.389,1.389,0,0,0,.454.534.634.634,0,0,0,.367.1c.283,0,.343-.259.335-.482a1.542,1.542,0,0,0-.052-.347A1.793,1.793,0,0,1,364.44-269.075Z" transform="translate(-219.234 -86.403)" fill="#253237"/>
    <path id="Trazado_23414" data-name="Trazado 23414" d="M365.58-268.03a.634.634,0,0,0,.367.1c.283,0,.343-.259.335-.482A.651.651,0,0,0,365.58-268.03Z" transform="translate(-219.92 -86.913)" fill="#ff98b9"/>
    <path id="Trazado_23415" data-name="Trazado 23415" d="M370.594-281.9c-.53-.108-1.713-1.777-1.391-4.363a18.445,18.445,0,0,0,0,2.709,4.73,4.73,0,0,1-.43-3.028,8.5,8.5,0,0,1-2.291.8,3.257,3.257,0,0,1-1.681-.04c-.06-.084,1.45-.331,1.9-.725a17.3,17.3,0,0,1-3.984.765,4.351,4.351,0,0,1,2.132-3.849c2.032-.952,4.8.777,5.486,1.654a3.409,3.409,0,0,1,1.729,1.785C372.885-284.669,371.164-281.781,370.594-281.9Z" transform="translate(-218.18 -73.988)" fill="#253237"/>
    <path id="Trazado_23416" data-name="Trazado 23416" d="M395.849-146.239l-7.746,1.546-5.068,1.012s-5.212-21.28-6.1-30.468c-.833-8.714-2.068-22.476-.422-35.011h9.81a17.577,17.577,0,0,1,2.757,14.882c-.3,1.167.4,11.77,1.478,18.966C391.577-168.627,395.849-146.239,395.849-146.239Z" transform="translate(-226.011 -122.563)" fill="#37464e"/>
    <path id="Trazado_23417" data-name="Trazado 23417" d="M388.1-144.693l-5.068,1.012s-5.212-21.28-6.1-30.468c-.833-8.714-2.068-22.476-.422-35.011h3.466C381.62-197.283,386.318-157.6,388.1-144.693Z" transform="translate(-226.011 -122.563)" fill="#253237"/>
    <path id="Trazado_23418" data-name="Trazado 23418" d="M395.23-62.824q.191,1.2.359,2.363c.068.478.131.944.2,1.395.4,2.9.622,5.14.4,5.339-.681.614-20.719,4.132-21.472,4.024s-.474-2.235.2-2.992c.4-.458,3.187-2.391,5.3-3.861,1.359-.932,2.442-1.665,2.442-1.665l-.45-2.351-2.16-10.666,13.415-2.311S394.421-68.04,395.23-62.824Z" transform="translate(-225.141 -204.141)" fill="#ebebeb"/>
    <path id="Trazado_23419" data-name="Trazado 23419" d="M390.813-38.157a4.753,4.753,0,0,1,4.024-.865c.052,0,.024.092-.02.1a18.726,18.726,0,0,0-3.925.92.088.088,0,0,1-.023,0,.088.088,0,0,1-.088-.088A.088.088,0,0,1,390.813-38.157Z" transform="translate(-235.081 -224.815)" fill="#253237"/>
    <path id="Trazado_23420" data-name="Trazado 23420" d="M390.326-40.912a4.742,4.742,0,0,1,4.02-.861c.052,0,.028.088,0,.1a19.015,19.015,0,0,0-3.929.916.088.088,0,0,1-.046.013.089.089,0,0,1-.088-.088A.089.089,0,0,1,390.326-40.912Z" transform="translate(-234.78 -223.16)" fill="#253237"/>
    <path id="Trazado_23421" data-name="Trazado 23421" d="M389.857-43.637a4.742,4.742,0,0,1,4.02-.865c.052,0,.028.092,0,.1a18.791,18.791,0,0,0-3.925.92.09.09,0,0,1-.048.014.09.09,0,0,1-.09-.09A.09.09,0,0,1,389.857-43.637Z" transform="translate(-234.499 -221.519)" fill="#253237"/>
    <path id="Trazado_23422" data-name="Trazado 23422" d="M389.376-46.417a4.744,4.744,0,0,1,4.02-.865c.052,0,.028.088,0,.1a18.772,18.772,0,0,0-3.929.92.088.088,0,0,1-.046.013.089.089,0,0,1-.088-.088A.089.089,0,0,1,389.376-46.417Z" transform="translate(-234.209 -219.846)" fill="#253237"/>
    <path id="Trazado_23423" data-name="Trazado 23423" d="M388.9-49.177a4.741,4.741,0,0,1,4.02-.865c.052,0,.028.092-.02.1a19.043,19.043,0,0,0-3.925.916.084.084,0,0,1-.038.009.085.085,0,0,1-.084-.085A.085.085,0,0,1,388.9-49.177Z" transform="translate(-233.92 -218.186)" fill="#253237"/>
    <path id="Trazado_23424" data-name="Trazado 23424" d="M395.755-49.375c-.478.677-10.582,2.462-17.025,3.45a49.981,49.981,0,0,1-5.263.669c-.4-.223-.375-2.335.9-3.9.705-.869,4.323-3.331,5.977-4.451l.853-.562-1.438-6.773-.311-1.466-.323-1.526c.418,0,14.627-2.526,14.627-2.526s.1.6.255,1.57c.072.426.151.928.239,1.482C394.99-58.7,396.257-50.088,395.755-49.375Z" transform="translate(-224.527 -208.406)" fill="#8fcaf9"/>
    <path id="Trazado_23425" data-name="Trazado 23425" d="M395.74-23.716l-22.9,3.947.221,1.28,22.9-3.947Z" transform="translate(-224.288 -234.119)" fill="#253237" fill-rule="evenodd"/>
    <path id="Trazado_23426" data-name="Trazado 23426" d="M403.638-61.078l-14.487,2.466-.311-1.466L403.4-62.56C403.471-62.134,403.55-61.632,403.638-61.078Z" transform="translate(-233.912 -210.752)" fill="rgba(0,0,0,0.1)"/>
    <path id="Trazado_23427" data-name="Trazado 23427" d="M380.351-34.2l-1.622,7.682a49.981,49.981,0,0,1-5.263.669c-.4-.223-.375-2.335.9-3.9A49.619,49.619,0,0,1,380.351-34.2Z" transform="translate(-224.527 -227.812)" fill="#253237"/>
    <path id="Trazado_23428" data-name="Trazado 23428" d="M365.985-194.719s-1.777,13.085-2.422,19.671c-.159,1.642-.351,20.161-.351,24.229v9.359H349.9v-1.924c0-1.124-.04-2.674-.068-4.482,0-.924-.028-1.916-.04-2.952-.1-8.056,2.733-51.514,5.478-58.331h14.292S371.889-201.137,365.985-194.719Z" transform="translate(-210.423 -122.569)" fill="#37464e"/>
    <path id="Trazado_23429" data-name="Trazado 23429" d="M392.321-180.558c-1.06.594-2.116,1.2-3.187,1.8-.522.295-1.056.57-1.594.853s-1.1.534-1.626.841a.032.032,0,0,0-.011.024.032.032,0,0,0,.032.032h0a11.154,11.154,0,0,0,1.781-.606,17.521,17.521,0,0,0,1.634-.773,14.246,14.246,0,0,0,2.988-2.116C392.384-180.534,392.352-180.578,392.321-180.558Z" transform="translate(-232.145 -139.766)" fill="#253237"/>
    <path id="Trazado_23430" data-name="Trazado 23430" d="M361.554-208.429a108.273,108.273,0,0,0-2.339,12.607c-.53,4.283-.881,8.6-1.267,12.9-.8,8.654-1.462,17.324-1.657,26.014-.112,4.865-.02,9.738.287,14.591a.032.032,0,0,0,.064,0c-.259-8.634,0-17.288.57-25.9.275-4.339.626-8.67,1.008-13s.741-8.574,1.2-12.854a117.212,117.212,0,0,1,2.295-14.312.08.08,0,0,0,0-.022.081.081,0,0,0-.081-.081A.081.081,0,0,0,361.554-208.429Z" transform="translate(-214.305 -122.967)" fill="#253237"/>
    <path id="Trazado_23431" data-name="Trazado 23431" d="M349.047-51.867c0,.8-.028,1.614-.052,2.391,0,.482-.028.952-.044,1.406-.1,2.929-.255,5.18-.51,5.327-.773.494-21.117.554-21.838.319s-.088-2.283.7-2.917a64.572,64.572,0,0,1,5.873-2.9c1.5-.689,2.689-1.227,2.689-1.227l-.064-2.391L335.48-62.74h13.615S349.138-57.142,349.047-51.867Z" transform="translate(-196.283 -210.644)" fill="#ebebeb"/>
    <path id="Trazado_23432" data-name="Trazado 23432" d="M346.1-32.55a4.763,4.763,0,0,1,4.112-.167c.048.024,0,.092-.036.092a18.923,18.923,0,0,0-4.024.239h-.008a.088.088,0,0,1-.088-.088A.088.088,0,0,1,346.1-32.55Z" transform="translate(-208.177 -228.467)" fill="#253237"/>
    <path id="Trazado_23433" data-name="Trazado 23433" d="M346.083-35.342a4.749,4.749,0,0,1,4.112-.167c.048.024,0,.092-.036.092a18.663,18.663,0,0,0-4.024.235.084.084,0,0,1-.026,0,.084.084,0,0,1-.084-.084A.084.084,0,0,1,346.083-35.342Z" transform="translate(-208.156 -226.786)" fill="#253237"/>
    <path id="Trazado_23434" data-name="Trazado 23434" d="M346.1-38.14a4.763,4.763,0,0,1,4.112-.167c.048.024,0,.1-.036.092a18.924,18.924,0,0,0-4.024.239h-.008a.088.088,0,0,1-.088-.088A.088.088,0,0,1,346.1-38.14Z" transform="translate(-208.177 -225.104)" fill="#253237"/>
    <path id="Trazado_23435" data-name="Trazado 23435" d="M346.083-40.942a4.749,4.749,0,0,1,4.112-.167c.048.024,0,.092-.036.092a18.924,18.924,0,0,0-4.024.235.084.084,0,0,1-.026,0,.084.084,0,0,1-.084-.084A.084.084,0,0,1,346.083-40.942Z" transform="translate(-208.156 -223.417)" fill="#253237"/>
    <path id="Trazado_23436" data-name="Trazado 23436" d="M346.1-43.728a4.776,4.776,0,0,1,4.112-.167c.048.028,0,.1-.036.092a18.924,18.924,0,0,0-4.024.239h-.008a.088.088,0,0,1-.088-.088A.088.088,0,0,1,346.1-43.728Z" transform="translate(-208.177 -221.743)" fill="#253237"/>
    <path id="Trazado_23437" data-name="Trazado 23437" d="M348.894-55.39v3c-.072,4.757-.283,13.547-.9,14.188-.853.857-22.312.558-22.663.271s.028-2.359,1.542-3.69c1.108-.964,7.594-3.777,7.594-3.777L334.2-52.39l-.06-1.5-.056-1.5C334.467-55.322,348.894-55.39,348.894-55.39Z" transform="translate(-195.632 -215.065)" fill="#8fcaf9"/>
    <path id="Trazado_23438" data-name="Trazado 23438" d="M324.59-11.011h23.237v-1.3H324.59Z" transform="translate(-195.262 -240.981)" fill="#253237" fill-rule="evenodd"/>
    <path id="Trazado_23439" data-name="Trazado 23439" d="M362.324-51.63v1.5H347.61l-.06-1.5Z" transform="translate(-209.074 -217.327)" fill="rgba(0,0,0,0.1)"/>
    <path id="Trazado_23440" data-name="Trazado 23440" d="M359.489-243.61l-1.319,8.57,20.448-.135s-4.032-16.336-8.315-21.468c-1.57-1.881-4.757-1.446-6.4.339-1.717,1.869-5.024,6.072-5.443,8.411A7.157,7.157,0,0,0,359.489-243.61Z" transform="translate(-215.462 -93.265)" fill="#8fcaf9"/>
    <path id="Trazado_23441" data-name="Trazado 23441" d="M364.976-252.492v0a.188.188,0,0,1-.187.187.188.188,0,0,1-.187-.187.188.188,0,0,1,.187-.187A.188.188,0,0,1,364.976-252.492Zm3.04-.183a.188.188,0,0,0-.187.187.188.188,0,0,0,.187.187.188.188,0,0,0,.187-.187v0A.188.188,0,0,0,368.016-252.675Zm3.227,0a.188.188,0,0,0-.187.187.188.188,0,0,0,.187.187.188.188,0,0,0,.187-.187v0a.188.188,0,0,0-.179-.183Zm-4.841-2.391a.188.188,0,0,0-.187.187.188.188,0,0,0,.187.187.188.188,0,0,0,.187-.187.157.157,0,0,0,0-.024.188.188,0,0,0-.187-.187h0Zm3.227,0a.188.188,0,0,0-.187.187.188.188,0,0,0,.187.187.188.188,0,0,0,.187-.187.161.161,0,0,0,0-.024.188.188,0,0,0-.187-.187h0Zm-8.072,7.24a.188.188,0,0,0-.187.187.188.188,0,0,0,.187.187.188.188,0,0,0,.187-.187v-.008a.188.188,0,0,0-.187-.187h0Zm3.231,0a.188.188,0,0,0-.187.187.188.188,0,0,0,.187.187.188.188,0,0,0,.187-.187v-.008a.188.188,0,0,0-.187-.187h0Zm3.227,0a.188.188,0,0,0-.187.187.188.188,0,0,0,.187.187.188.188,0,0,0,.187-.187v-.008a.188.188,0,0,0-.187-.187h0Zm3.227,0a.188.188,0,0,0-.187.187.188.188,0,0,0,.187.187.188.188,0,0,0,.187-.187v-.008a.188.188,0,0,0-.179-.187Zm3.227,0a.188.188,0,0,0-.187.187.188.188,0,0,0,.187.187.188.188,0,0,0,.187-.187v-.008a.188.188,0,0,0-.187-.187h0Zm-11.3-2.391h0a.188.188,0,0,0-.187.187.188.188,0,0,0,.187.187.188.188,0,0,0,.187-.187v-.012a.188.188,0,0,0-.183-.187Zm3.227,0a.188.188,0,0,0-.187.187.188.188,0,0,0,.187.187.188.188,0,0,0,.187-.187v-.012a.188.188,0,0,0-.187-.187h0Zm3.227,0a.188.188,0,0,0-.187.187.188.188,0,0,0,.187.187.188.188,0,0,0,.187-.187v-.012a.188.188,0,0,0-.187-.187h0Zm3.227,0a.188.188,0,0,0-.187.187.188.188,0,0,0,.187.187.188.188,0,0,0,.187-.187v-.012a.188.188,0,0,0-.187-.187h-.012Zm-11.3,7.236a.188.188,0,0,0-.187.187.188.188,0,0,0,.187.187.188.188,0,0,0,.187-.187.112.112,0,0,0,0-.012.188.188,0,0,0-.187-.187h0Zm3.231,0a.188.188,0,0,0-.187.187.188.188,0,0,0,.187.187.188.188,0,0,0,.187-.187s0-.008,0-.012a.188.188,0,0,0-.187-.187h0Zm3.227,0a.188.188,0,0,0-.187.187.188.188,0,0,0,.187.187.188.188,0,0,0,.187-.187s0-.008,0-.012a.188.188,0,0,0-.187-.187h0Zm3.227,0a.188.188,0,0,0-.187.187.188.188,0,0,0,.187.187.188.188,0,0,0,.187-.187.112.112,0,0,0,0-.012.188.188,0,0,0-.18-.187Zm3.227,0a.188.188,0,0,0-.187.187.188.188,0,0,0,.187.187.188.188,0,0,0,.187-.187s0-.008,0-.012a.188.188,0,0,0-.187-.187h0Zm3.227,0a.188.188,0,0,0-.187.187.188.188,0,0,0,.187.187.188.188,0,0,0,.187-.187.112.112,0,0,0,0-.012.188.188,0,0,0-.187-.187h0Zm-14.523-2.391h0a.188.188,0,0,0-.187.187.188.188,0,0,0,.187.187.188.188,0,0,0,.187-.187c0-.005,0-.011,0-.016a.188.188,0,0,0-.184-.187Zm3.227,0a.188.188,0,0,0-.187.187.188.188,0,0,0,.187.187.188.188,0,0,0,.187-.187c0-.005,0-.011,0-.016a.188.188,0,0,0-.187-.187h0Zm3.227,0a.188.188,0,0,0-.187.187.188.188,0,0,0,.187.187.188.188,0,0,0,.187-.187c0-.005,0-.011,0-.016a.188.188,0,0,0-.187-.187h0Zm3.227,0a.188.188,0,0,0-.187.187.188.188,0,0,0,.187.187.188.188,0,0,0,.187-.187c0-.006,0-.011,0-.016a.188.188,0,0,0-.187-.187h-.013Zm3.227,0a.188.188,0,0,0-.187.187.188.188,0,0,0,.187.187.188.188,0,0,0,.187-.187c0-.005,0-.011,0-.016a.188.188,0,0,0-.187-.187h0Zm-14.527,7.236a.188.188,0,0,0-.187.187.188.188,0,0,0,.187.187.188.188,0,0,0,.187-.187c0-.005,0-.011,0-.016a.188.188,0,0,0-.187-.187h0Zm3.231,0a.188.188,0,0,0-.187.187.188.188,0,0,0,.187.187.188.188,0,0,0,.187-.187c0-.005,0-.011,0-.016a.188.188,0,0,0-.187-.187h0Zm3.227,0a.188.188,0,0,0-.187.187.188.188,0,0,0,.187.187.188.188,0,0,0,.187-.187c0-.005,0-.011,0-.016a.188.188,0,0,0-.187-.187h0Zm3.227,0a.188.188,0,0,0-.187.187.188.188,0,0,0,.187.187.188.188,0,0,0,.187-.187c0-.005,0-.011,0-.016a.188.188,0,0,0-.18-.187Zm3.227,0a.188.188,0,0,0-.187.187.188.188,0,0,0,.187.187.188.188,0,0,0,.187-.187c0-.005,0-.011,0-.016a.188.188,0,0,0-.187-.187h0Zm3.227,0a.188.188,0,0,0-.187.187.188.188,0,0,0,.187.187.188.188,0,0,0,.187-.187c0-.005,0-.011,0-.016a.188.188,0,0,0-.187-.187h0Zm-14.523-2.391h0a.188.188,0,0,0-.187.187.188.188,0,0,0,.187.187.188.188,0,0,0,.187-.187.168.168,0,0,0,0-.02.188.188,0,0,0-.184-.187Zm3.227,0a.188.188,0,0,0-.187.187.188.188,0,0,0,.187.187.188.188,0,0,0,.187-.187.168.168,0,0,0,0-.02.188.188,0,0,0-.187-.187h0Zm3.227,0a.188.188,0,0,0-.187.187.188.188,0,0,0,.187.187.188.188,0,0,0,.187-.187.168.168,0,0,0,0-.02.188.188,0,0,0-.187-.187h0Zm3.227,0a.188.188,0,0,0-.187.187.188.188,0,0,0,.187.187.188.188,0,0,0,.187-.187.175.175,0,0,0,0-.02.188.188,0,0,0-.187-.187h-.013Zm3.227,0a.188.188,0,0,0-.187.187.188.188,0,0,0,.187.187.188.188,0,0,0,.187-.187.168.168,0,0,0,0-.02.188.188,0,0,0-.187-.187h0Zm-12.909,4.841h0a.188.188,0,0,0-.187.187.188.188,0,0,0,.187.187.188.188,0,0,0,.187-.187.168.168,0,0,0,0-.02.188.188,0,0,0-.184-.187Zm3.227,0a.188.188,0,0,0-.187.187.188.188,0,0,0,.187.187.188.188,0,0,0,.187-.187.168.168,0,0,0,0-.02.188.188,0,0,0-.187-.187h0Zm3.227,0a.188.188,0,0,0-.187.187.188.188,0,0,0,.187.187.188.188,0,0,0,.187-.187.168.168,0,0,0,0-.02.188.188,0,0,0-.187-.187h0Zm3.227,0a.188.188,0,0,0-.187.187.188.188,0,0,0,.187.187.188.188,0,0,0,.187-.187.175.175,0,0,0,0-.02.188.188,0,0,0-.187-.187h-.013Zm3.227,0a.188.188,0,0,0-.187.187.188.188,0,0,0,.187.187.188.188,0,0,0,.187-.187.168.168,0,0,0,0-.02.188.188,0,0,0-.187-.187h0Zm3.227,0a.188.188,0,0,0-.187.187.188.188,0,0,0,.187.187.188.188,0,0,0,.187-.187A.188.188,0,0,0,379.312-235.686Z" transform="translate(-217.387 -94.933)" fill="#fff"/>
    <path id="Trazado_23442" data-name="Trazado 23442" d="M379-204.17c-.594-.06-1.2-.052-1.793-.068l-1.833-.036c-1.223-.024-2.442-.04-3.666-.052-2.458-.024-4.921-.084-7.379,0-.693.024-1.387.044-2.076.072s-1.387.088-2.08.1a.028.028,0,0,0-.028.028.028.028,0,0,0,.028.028c.626,0,1.255.028,1.885.036l1.785.02h3.666c2.442,0,4.881-.052,7.323-.064h2.08c.689,0,1.391.028,2.076-.02C379.032-204.118,379.04-204.166,379-204.17Z" transform="translate(-216.653 -125.445)" fill="#253237"/>
    <path id="Trazado_23443" data-name="Trazado 23443" d="M340.6-253.087c-1.383,2.251-6.773,7.777-10.786,8.849-3.518.932-12.033-2.63-14.7-4.1-1-.546,1.913-8.989,3.06-8.578,1.542.55,9.734,5.259,10.6,4.976s7.4-3.215,8.933-3.933C341.187-257.5,342.673-256.47,340.6-253.087Z" transform="translate(-189.435 -93.828)" fill="#f6a8a0"/>
    <path id="Trazado_23444" data-name="Trazado 23444" d="M298.909-265.3s-4.443-2.363-5.367-2.9a45.884,45.884,0,0,0-10.479-2.984c-.952.08-1.9,1.932,4.423,4.239,0,0-1.359,2.789-.53,4.052.534.829,2.658,3.865,3.646,4.247,1.12.434,4.941,1.733,4.941,1.733Z" transform="translate(-169.867 -85.25)" fill="#f6a8a0"/>
    <path id="Trazado_23445" data-name="Trazado 23445" d="M296.215-260.647c-.08,0-3.96-1.2-5.367-1.076s-2.438,2.076-2.391,2.606.817,3.817,2.223,3.713.371-2.594.4-2.889.06-.673.327-.665,5.08,1.873,5.08,1.873Z" transform="translate(-173.525 -90.938)" fill="#f6a8a0"/>
    <path id="Trazado_23446" data-name="Trazado 23446" d="M295.239-257.437c-.08,0-3.984-1.2-5.371-1.076s-2.438,2.076-2.391,2.61.8,3.813,2.223,3.709.371-2.594.4-2.889.056-.673.323-.665,5.08,1.873,5.08,1.873Z" transform="translate(-172.935 -92.869)" fill="#f6a8a0"/>
    <path id="Trazado_23447" data-name="Trazado 23447" d="M295.71-254.463c-.08.02-4.1-.61-5.467-.275s-2.112,2.391-1.992,2.928,1.363,3.654,2.741,3.347,0-2.618-.024-2.917-.044-.677.223-.705,5.3,1.108,5.3,1.108Z" transform="translate(-173.394 -95.085)" fill="#f6a8a0"/>
    <path id="Trazado_23448" data-name="Trazado 23448" d="M299.223-251.425a11.713,11.713,0,0,0-4.215-.4,3.347,3.347,0,0,0-2.2,2.789c.08.534,1.1,3.745,2.5,3.534s.171-2.614.183-2.913,0-.673.271-.685,5.208,1.482,5.208,1.482Z" transform="translate(-176.143 -96.848)" fill="#f6a8a0"/>
    <path id="Trazado_23449" data-name="Trazado 23449" d="M297.129-262.178a6.054,6.054,0,0,0-2.148-.283,9.7,9.7,0,0,0-1.359.124,6.316,6.316,0,0,0-1.913.586c-.04.024-.048.072,0,.052a8.676,8.676,0,0,1,1.909-.4c.458-.048.916-.084,1.379-.108a15.4,15.4,0,0,1,2.14.064C297.848-262.071,297.141-262.174,297.129-262.178Z" transform="translate(-175.463 -90.494)" fill="#253237"/>
    <path id="Trazado_23450" data-name="Trazado 23450" d="M295.09-258.688a18.7,18.7,0,0,0-3.693,0,4.281,4.281,0,0,0-1.765.5,4.092,4.092,0,0,0-1.251,1.052c0,.044.024.072.052.036a6.194,6.194,0,0,1,1.45-.916,6.594,6.594,0,0,1,1.853-.442,27.358,27.358,0,0,1,3.331-.159C295.07-258.632,295.217-258.68,295.09-258.688Z" transform="translate(-173.479 -92.713)" fill="#253237"/>
    <path id="Trazado_23451" data-name="Trazado 23451" d="M294.752-255.31a24.534,24.534,0,0,0-3.729.343,3.443,3.443,0,0,0-1.813.8,3.763,3.763,0,0,0-1,1.673c0,.036.036.064.056.028a4.6,4.6,0,0,1,1.124-1.482,4.01,4.01,0,0,1,1.889-.8,23.369,23.369,0,0,1,3.49-.426C294.967-255.222,294.94-255.31,294.752-255.31Z" transform="translate(-173.377 -94.801)" fill="#253237"/>
    <path id="Trazado_23452" data-name="Trazado 23452" d="M296.865-251.98c-.474.092-1.729.343-2.191.462a2.945,2.945,0,0,0-1.2.474,3.726,3.726,0,0,0-.705.924,2.81,2.81,0,0,0-.438,1.108c-.108.9.653,1.558,1.076,2.263.02.032.072,0,.052-.036-.219-.367-.4-.757-.586-1.144a1.809,1.809,0,0,1-.211-1.2,3.278,3.278,0,0,1,.494-1.012,2.264,2.264,0,0,1,.765-.845,6.088,6.088,0,0,1,1.2-.367c.4-.1,1.167-.3,1.574-.4C297.534-251.948,297.773-252.155,296.865-251.98Z" transform="translate(-175.852 -96.764)" fill="#253237"/>
    <path id="Trazado_23453" data-name="Trazado 23453" d="M302.631-244.054a8.617,8.617,0,0,1-2.211-.259,5.538,5.538,0,0,1-.9-.355,2.514,2.514,0,0,1-.8-.55.031.031,0,0,0-.017,0,.032.032,0,0,0-.032.032.031.031,0,0,0,0,.017,4.533,4.533,0,0,0,.641.626,4.677,4.677,0,0,1-1.243.53c-.04,0-.024.06,0,.06a1.309,1.309,0,0,0,.4,0,1.625,1.625,0,0,0,.4-.143,2.708,2.708,0,0,0,.542-.355,3.017,3.017,0,0,0,.9.4,6.481,6.481,0,0,0,2.335.088.043.043,0,0,0,.033-.042.043.043,0,0,0-.043-.043Z" transform="translate(-179.296 -100.869)" fill="#253237"/>
    <path id="Trazado_23454" data-name="Trazado 23454" d="M317.657-259.52l-2.327,11.794s10.519,2.964,14.137,2.3,8.817-5.16,11.224-8.766,1.55-5.538-3.263-3.439a76.705,76.705,0,0,1-8.463,3.311C328.47-254.237,317.657-259.52,317.657-259.52Z" transform="translate(-189.691 -92.268)" fill="#8fcaf9"/>
    <path id="Trazado_23455" data-name="Trazado 23455" d="M318.8-252.492v0a.188.188,0,0,1-.187.187.188.188,0,0,1-.187-.187.188.188,0,0,1,.187-.187A.188.188,0,0,1,318.8-252.492Zm3.04-.183a.188.188,0,0,0-.187.187.188.188,0,0,0,.187.187.188.188,0,0,0,.187-.187v0A.188.188,0,0,0,321.842-252.675Zm3.227,0a.188.188,0,0,0-.187.187.188.188,0,0,0,.187.187.188.188,0,0,0,.187-.187v0A.188.188,0,0,0,325.07-252.675Zm9.682,0a.188.188,0,0,0-.187.187.188.188,0,0,0,.187.187.188.188,0,0,0,.187-.187v0A.188.188,0,0,0,334.752-252.675Zm3.231,0a.188.188,0,0,0-.187.187.188.188,0,0,0,.187.187.188.188,0,0,0,.187-.187v0A.188.188,0,0,0,337.983-252.675Zm3.227,0a.188.188,0,0,0-.187.187.188.188,0,0,0,.187.187.188.188,0,0,0,.187-.187v0A.188.188,0,0,0,341.21-252.675Zm-20.982-2.391a.188.188,0,0,0-.187.187.188.188,0,0,0,.187.187.188.188,0,0,0,.187-.187.157.157,0,0,0,0-.024.188.188,0,0,0-.187-.187h0Zm19.368,0a.188.188,0,0,0-.187.187.188.188,0,0,0,.187.187.188.188,0,0,0,.187-.187.166.166,0,0,0,0-.024.188.188,0,0,0-.187-.187h0Zm3.227,0a.188.188,0,0,0-.187.187.188.188,0,0,0,.187.187.188.188,0,0,0,.187-.187.161.161,0,0,0,0-.024.188.188,0,0,0-.187-.187h0Zm-24.209,7.24a.188.188,0,0,0-.187.187.188.188,0,0,0,.187.187.188.188,0,0,0,.187-.187v-.008a.188.188,0,0,0-.187-.187h0Zm3.227,0a.188.188,0,0,0-.187.187.188.188,0,0,0,.187.187.188.188,0,0,0,.187-.187v-.008a.188.188,0,0,0-.187-.187h0Zm3.227,0a.188.188,0,0,0-.187.187.188.188,0,0,0,.187.187.188.188,0,0,0,.187-.187v-.008a.188.188,0,0,0-.187-.187h0Zm3.227,0a.188.188,0,0,0-.187.187.188.188,0,0,0,.187.187.188.188,0,0,0,.187-.187v-.008a.188.188,0,0,0-.187-.187h0Zm3.227,0a.188.188,0,0,0-.187.187.188.188,0,0,0,.187.187.188.188,0,0,0,.187-.187v-.008a.188.188,0,0,0-.187-.187h0Zm3.227,0a.188.188,0,0,0-.187.187.188.188,0,0,0,.187.187.188.188,0,0,0,.187-.187v-.008a.188.188,0,0,0-.187-.187h0Zm3.231,0a.188.188,0,0,0-.187.187.188.188,0,0,0,.187.187.188.188,0,0,0,.187-.187v-.008a.188.188,0,0,0-.187-.187h0Zm-17.754-2.391a.188.188,0,0,0-.187.187.188.188,0,0,0,.187.187.188.188,0,0,0,.187-.187v-.012a.188.188,0,0,0-.187-.187h0Zm3.227,0a.188.188,0,0,0-.187.187.188.188,0,0,0,.187.187.188.188,0,0,0,.187-.187v-.012a.188.188,0,0,0-.187-.187h0Zm3.227,0a.188.188,0,0,0-.187.187.188.188,0,0,0,.187.187.188.188,0,0,0,.187-.187v-.012a.188.188,0,0,0-.187-.187h0Zm3.227,0a.188.188,0,0,0-.187.187.188.188,0,0,0,.187.187.188.188,0,0,0,.187-.187v-.012a.188.188,0,0,0-.187-.187h0Zm3.227,0a.188.188,0,0,0-.187.187.188.188,0,0,0,.187.187.188.188,0,0,0,.187-.187v-.012a.188.188,0,0,0-.187-.187h0Zm3.231,0h0a.188.188,0,0,0-.187.187.188.188,0,0,0,.187.187.188.188,0,0,0,.187-.187v-.012a.188.188,0,0,0-.183-.187Zm3.227,0a.188.188,0,0,0-.187.187.188.188,0,0,0,.187.187.188.188,0,0,0,.187-.187v-.012a.188.188,0,0,0-.187-.187h0Zm-11.3,7.236a.188.188,0,0,0-.187.187.188.188,0,0,0,.187.187.188.188,0,0,0,.187-.187s0-.008,0-.012a.188.188,0,0,0-.187-.187h0ZM317-245.372h0a.188.188,0,0,0-.187.187A.188.188,0,0,0,317-245a.188.188,0,0,0,.187-.187c0-.005,0-.011,0-.016a.188.188,0,0,0-.184-.187Zm3.227,0a.188.188,0,0,0-.187.187.188.188,0,0,0,.187.187.188.188,0,0,0,.187-.187c0-.005,0-.011,0-.016a.188.188,0,0,0-.187-.187h0Zm3.227,0a.188.188,0,0,0-.187.187.188.188,0,0,0,.187.187.188.188,0,0,0,.187-.187c0-.005,0-.011,0-.016a.188.188,0,0,0-.187-.187h0Zm3.227,0a.188.188,0,0,0-.187.187.188.188,0,0,0,.187.187.188.188,0,0,0,.187-.187c0-.005,0-.011,0-.016a.188.188,0,0,0-.187-.187h0Zm3.227,0a.188.188,0,0,0-.187.187.188.188,0,0,0,.187.187.188.188,0,0,0,.187-.187c0-.005,0-.011,0-.016a.188.188,0,0,0-.187-.187h0Zm3.227,0a.188.188,0,0,0-.187.187.188.188,0,0,0,.187.187.188.188,0,0,0,.187-.187c0-.005,0-.011,0-.016a.188.188,0,0,0-.187-.187h0Z" transform="translate(-190.582 -94.933)" fill="#fff"/>
    <path id="Trazado_23456" data-name="Trazado 23456" d="M322.473-254.173c-.231,1.65-.522,3.283-.908,4.9q-.281,1.2-.63,2.391-.326,1.152-.765,2.267c.116-.821.331-1.642.518-2.454s.375-1.57.562-2.351c.4-1.594.8-3.187,1.167-4.781C322.421-254.249,322.481-254.233,322.473-254.173Zm18.727,7.236c-.944.514-1.893,1.064-2.789,1.642s-1.753,1.267-2.618,1.936a.031.031,0,0,0-.008.021.032.032,0,0,0,.032.032h.008c.912-.582,1.849-1.116,2.745-1.733l.311-.215c.231-.064.462-.143.693-.219a5.2,5.2,0,0,0,.522-.2,4.405,4.405,0,0,1,.534-.223.031.031,0,0,0,.017-.028.032.032,0,0,0-.032-.032h-.005c-.183.056-.375.088-.562.128a3.559,3.559,0,0,0-.534.155l-.092.032,1.809-1.267Z" transform="translate(-192.603 -95.451)" fill="#253237"/>
    <path id="Trazado_23457" data-name="Trazado 23457" d="M377.516-273.1s1.291-1.367,1.924-.885-.494,2.574-1.351,2.757a.837.837,0,0,1-.226.031.839.839,0,0,1-.814-.641Z" transform="translate(-226.82 -83.504)" fill="#f6a8a0"/>
    <path id="Trazado_23458" data-name="Trazado 23458" d="M379.732-272.342v.02a2.109,2.109,0,0,0-1.275,1.147.463.463,0,0,1,.361-.173.463.463,0,0,1,.34.149c.088.1,0,.036-.02.028a.515.515,0,0,0-.586.1,2.563,2.563,0,0,0-.335.4c-.036.048-.123,0-.1-.048C378.237-271.446,378.955-272.386,379.732-272.342Z" transform="translate(-227.461 -84.554)" fill="#253237"/>
    <path id="Trazado_23459" data-name="Trazado 23459" d="M87.768-48.846c-.717.243-21.3.315-22.089-.175-.3-.187-.482-3.187-.606-6.813-.024-.8-.048-1.594-.068-2.415L63.34-69.222,77.1-69.31l1.315,10.977-.052,2.415s7.893,3.5,8.7,4.132S88.485-49.089,87.768-48.846Z" transform="translate(-38.103 -206.691)" fill="#eb9481"/>
    <path id="Trazado_23460" data-name="Trazado 23460" d="M90.283-32.273c-.717.243-21.3.315-22.089-.175-.363-.231-.562-4.606-.673-9.228l13.391-.084-.052,2.415s7.893,3.5,8.7,4.132S91-32.516,90.283-32.273Z" transform="translate(-40.618 -223.265)" fill="#fff"/>
    <path id="Trazado_23461" data-name="Trazado 23461" d="M90.385-28.628c-.717.243-21.3.315-22.089-.175-.3-.187-.482-3.187-.606-6.813L80.962-35.7s7.893,3.5,8.7,4.132S91.1-28.871,90.385-28.628Z" transform="translate(-40.72 -226.91)" fill="#8fcaf9"/>
    <path id="Trazado_23462" data-name="Trazado 23462" d="M92.479-20.063c-3.45-.072-17.376-.04-20.79.151-.028,0-.028.02,0,.02,3.419.147,17.34,0,20.79-.116C92.551-20.011,92.551-20.063,92.479-20.063Z" transform="translate(-43.113 -236.295)" fill="#253237"/>
    <path id="Trazado_23463" data-name="Trazado 23463" d="M115.235-27.181a2.79,2.79,0,0,0-2.064.849,2.686,2.686,0,0,0-.761,1.845c0,.02.036.024.04,0a3.2,3.2,0,0,1,2.789-2.65C115.263-27.145,115.263-27.181,115.235-27.181Z" transform="translate(-67.622 -232.034)" fill="#253237"/>
    <path id="Trazado_23464" data-name="Trazado 23464" d="M98.557-34.85a4.887,4.887,0,0,0-3.833,1.594c-.036.044.028.092.068.072a18.983,18.983,0,0,1,3.789-1.51.088.088,0,0,0,.037-.072A.088.088,0,0,0,98.557-34.85Z" transform="translate(-56.976 -227.421)" fill="#253237"/>
    <path id="Trazado_23465" data-name="Trazado 23465" d="M101.234-33.82A4.852,4.852,0,0,0,97.4-32.206c-.032.044.032.088.072.068a18.986,18.986,0,0,1,3.789-1.51.088.088,0,0,0,.062-.084A.088.088,0,0,0,101.234-33.82Z" transform="translate(-58.585 -228.041)" fill="#253237"/>
    <path id="Trazado_23466" data-name="Trazado 23466" d="M103.914-32.78a4.9,4.9,0,0,0-3.837,1.594c-.032.044.032.092.072.068a19.232,19.232,0,0,1,3.789-1.51.084.084,0,0,0,.039-.07A.084.084,0,0,0,103.914-32.78Z" transform="translate(-60.198 -228.667)" fill="#253237"/>
    <path id="Trazado_23467" data-name="Trazado 23467" d="M106.594-31.75a4.9,4.9,0,0,0-3.837,1.594c-.032.044.032.092.072.072a18.986,18.986,0,0,1,3.789-1.51.088.088,0,0,0,.037-.072A.088.088,0,0,0,106.594-31.75Z" transform="translate(-61.81 -229.286)" fill="#253237"/>
    <path id="Trazado_23468" data-name="Trazado 23468" d="M72.152-27.87a1.2,1.2,0,0,0,0,2.391A1.2,1.2,0,0,0,72.152-27.87Z" transform="translate(-42.707 -231.62)" fill="#253237"/>
    <path id="Trazado_23469" data-name="Trazado 23469" d="M103.185-44.451c-.7-.578-1.594,0-1.992.594a7.293,7.293,0,0,0-1.243,3.538h0a.036.036,0,0,0,.036.036h.008a.172.172,0,0,0,.167.134.171.171,0,0,0,.084-.022,11.977,11.977,0,0,0,2.853-2.255C103.516-43,103.851-43.913,103.185-44.451ZM101.5-41.51c-.474.347-.964.669-1.426,1.036a21.818,21.818,0,0,1,.773-2.048,7.058,7.058,0,0,1,.5-.936c.295-.454,1.65-1.614,1.789-.112.084.817-1.076,1.638-1.638,2.052Z" transform="translate(-60.126 -221.502)" fill="#253237"/>
    <path id="Trazado_23470" data-name="Trazado 23470" d="M89.06-36.037a12.117,12.117,0,0,0,3.622-.355c.124,0,.147-.159.1-.251a.039.039,0,0,0,.014-.03.039.039,0,0,0-.014-.03,7.3,7.3,0,0,0-3.347-1.685c-.729-.135-1.757.064-1.861.964S88.354-36.141,89.06-36.037Zm-.837-.8c-.94-1.2.837-1.283,1.371-1.163a8.039,8.039,0,0,1,1.008.327,21.346,21.346,0,0,1,1.992.94c-.586.06-1.163.163-1.745.243-.709.108-2.108.319-2.642-.331Z" transform="translate(-52.678 -225.27)" fill="#253237"/>
    <path id="Trazado_23471" data-name="Trazado 23471" d="M58.313-138.764l-16.627.3s-2.263-14.71-3.753-23.866c-.562-3.438-1.008-6.092-1.2-6.893-.43-1.909-8.857-32.206-8.857-32.206H44.1s-.263,5.064-.108,5.6c2.156,7.331,6.562,20.32,7.937,24.866C54.045-164.013,58.313-138.764,58.313-138.764Z" transform="translate(-16.772 -127.213)" fill="#455964"/>
    <path id="Trazado_23472" data-name="Trazado 23472" d="M79.262-50.581c-2.391,0-10.849-.112-14.029.187-.024,0-.024.04,0,.044,1.1.155,11.642-.088,14.029-.163a.036.036,0,0,0,.024-.034A.036.036,0,0,0,79.262-50.581Z" transform="translate(-39.231 -217.946)" fill="#253237"/>
    <path id="Trazado_23473" data-name="Trazado 23473" d="M45.11-150.969q-.861-5.706-1.92-11.383c-.351-1.861-.729-3.717-1.2-5.55s-1.1-3.67-1.729-5.482c-1.243-3.586-2.438-7.22-3.546-10.865s-2.164-7.307-3.132-10.977c-.12-.466-.243-.932-.379-1.4,0-.04-.068,0-.06.02.4,1.857.869,3.693,1.339,5.526s.972,3.666,1.5,5.486q1.594,5.491,3.438,10.9c.614,1.8,1.255,3.586,1.8,5.407s.972,3.662,1.351,5.518c.765,3.765,1.418,7.57,2.028,11.355s1.12,7.638,1.63,11.471l.191,1.454c0,.139.231.135.215,0C46.23-143.339,45.7-147.16,45.11-150.969Z" transform="translate(-19.941 -130.093)" fill="#253237"/>
    <path id="Trazado_23474" data-name="Trazado 23474" d="M39.977-201.47l-2.044,39.114c-.562-3.438-1.008-6.092-1.2-6.893-.43-1.909-8.857-32.206-8.857-32.206Z" transform="translate(-16.772 -127.189)" fill="#253237"/>
    <path id="Trazado_23475" data-name="Trazado 23475" d="M36.87-40.493c-.725.223-21.834-.347-22.611-.861a.311.311,0,0,1-.08-.124c-.231-.634.215-3.315.191-6.606,0-.06.048-1.1.116-2.562.183-3.829.51-10.594.51-10.594l13.766.283L27.85-50.295l-.211,2.478s7.8,3.709,8.582,4.359S37.6-40.717,36.87-40.493Z" transform="translate(-8.49 -211.546)" fill="#eb9481"/>
    <path id="Trazado_23476" data-name="Trazado 23476" d="M36.87-24.5c-.725.223-21.834-.347-22.611-.861a.311.311,0,0,1-.08-.124c-.231-.634.215-3.315.191-6.606,0-.06.048-1.1.116-2.562L27.85-34.3l-.211,2.478s7.8,3.709,8.582,4.359S37.6-24.721,36.87-24.5Z" transform="translate(-8.49 -227.542)" fill="#fff"/>
    <path id="Trazado_23477" data-name="Trazado 23477" d="M36.722-20.63c-.725.223-21.834-.347-22.611-.861-.291-.2-.4-3,.112-6.73l13.268.267s7.8,3.705,8.586,4.363S37.447-20.857,36.722-20.63Z" transform="translate(-8.341 -231.41)" fill="#8fcaf9"/>
    <path id="Trazado_23478" data-name="Trazado 23478" d="M39.119-11.889c-3.446-.163-17.368-.5-20.79-.4-.028,0-.028.02,0,.02,3.415.239,17.336.462,20.786.438C39.191-11.821,39.191-11.885,39.119-11.889Z" transform="translate(-11.013 -240.983)" fill="#253237"/>
    <path id="Trazado_23479" data-name="Trazado 23479" d="M61.981-18.544a2.79,2.79,0,0,0-2.084.8,2.686,2.686,0,0,0-.8,1.821c0,.024.036.024.04,0A3.2,3.2,0,0,1,61.993-18.5.024.024,0,0,0,62-18.521.024.024,0,0,0,61.981-18.544Z" transform="translate(-35.552 -237.228)" fill="#253237"/>
    <path id="Trazado_23480" data-name="Trazado 23480" d="M45.531-26.616a4.8,4.8,0,0,0-3.877,1.51c-.036.044.028.092.068.072a18.947,18.947,0,0,1,3.829-1.41.088.088,0,0,0,.062-.084A.088.088,0,0,0,45.531-26.616Z" transform="translate(-25.051 -232.372)" fill="#253237"/>
    <path id="Trazado_23481" data-name="Trazado 23481" d="M48.181-25.506A4.808,4.808,0,0,0,44.3-24c-.036.044.028.092.068.072A19.191,19.191,0,0,1,48.2-25.343a.084.084,0,0,0,.059-.08A.084.084,0,0,0,48.181-25.506Z" transform="translate(-26.645 -233.04)" fill="#253237"/>
    <path id="Trazado_23482" data-name="Trazado 23482" d="M50.831-24.406a4.8,4.8,0,0,0-3.877,1.51c-.036.044.028.092.068.072a18.947,18.947,0,0,1,3.829-1.41.088.088,0,0,0,.062-.084A.088.088,0,0,0,50.831-24.406Z" transform="translate(-28.24 -233.702)" fill="#253237"/>
    <path id="Trazado_23483" data-name="Trazado 23483" d="M53.483-23.3a4.813,4.813,0,0,0-3.877,1.506c-.032.044.028.092.068.072a19.19,19.19,0,0,1,3.829-1.41.085.085,0,0,0,.074-.084.085.085,0,0,0-.084-.084Z" transform="translate(-29.836 -234.369)" fill="#253237"/>
    <path id="Trazado_23484" data-name="Trazado 23484" d="M18.971-20.43a1.2,1.2,0,0,0-.048,2.391A1.2,1.2,0,0,0,18.971-20.43Z" transform="translate(-10.699 -236.095)" fill="#253237"/>
    <path id="Trazado_23485" data-name="Trazado 23485" d="M50.278-36.157c-.685-.594-1.594-.048-2.02.542a7.284,7.284,0,0,0-1.339,3.5.035.035,0,0,0,0,0,.036.036,0,0,0,.036.036h.008a.172.172,0,0,0,.168.139.171.171,0,0,0,.079-.019,12.066,12.066,0,0,0,2.913-2.183C50.573-34.691,50.928-35.591,50.278-36.157Zm-1.761,2.9c-.482.335-.98.645-1.45,1,.263-.681.494-1.371.825-2.028a8.431,8.431,0,0,1,.526-.92c.311-.446,1.693-1.57,1.8-.064C50.27-34.448,49.095-33.659,48.517-33.26Z" transform="translate(-28.225 -226.481)" fill="#253237"/>
    <path id="Trazado_23486" data-name="Trazado 23486" d="M36.078-28.147a12.149,12.149,0,0,0,3.634-.259.168.168,0,0,0,.13-.163.167.167,0,0,0-.023-.084.036.036,0,0,0,.016-.03.036.036,0,0,0-.016-.03,7.288,7.288,0,0,0-3.3-1.777c-.725-.155-1.757,0-1.885.916S35.38-28.27,36.078-28.147Zm-.8-.8c-.908-1.2.873-1.263,1.4-1.124a7.815,7.815,0,0,1,1,.351,21.89,21.89,0,0,1,1.952.992c-.59.044-1.167.135-1.749.2-.713.068-2.12.243-2.618-.422Z" transform="translate(-20.825 -230.013)" fill="#253237"/>
    <path id="Trazado_23487" data-name="Trazado 23487" d="M27.866-135.7H11.59s3.534-50.438,2.964-53.263c-.936-4.63-.311-9.961,1.877-12.5H30.906s.287,4.06-1.2,6.487c0,0-1.359.861-2.016,1.239Z" transform="translate(-6.972 -127.189)" fill="#455964"/>
    <path id="Trazado_23488" data-name="Trazado 23488" d="M28.6-43.235c-2.251-.06-1.594-.076-3.857-.108-1.1,0-8.367-.12-9.383.048a.024.024,0,0,0-.014.022.024.024,0,0,0,.014.022c1.028.175,8.279.151,9.379.147,2.255,0,1.594-.032,3.861-.068a.032.032,0,0,0,.032-.032A.032.032,0,0,0,28.6-43.235Z" transform="translate(-9.23 -222.288)" fill="#253237"/>
    <path id="Trazado_23489" data-name="Trazado 23489" d="M53.118-186.847a28,28,0,0,0-4.068,2.411.048.048,0,0,0-.026.043.048.048,0,0,0,.048.048.047.047,0,0,0,.03-.011c1.375-.761,2.789-1.5,4.116-2.335C53.321-186.755,53.23-186.9,53.118-186.847Z" transform="translate(-29.491 -135.979)" fill="#253237"/>
    <path id="Trazado_23490" data-name="Trazado 23490" d="M54.3-187.526a6.288,6.288,0,0,0-.2.853,1.757,1.757,0,0,0-.044.689c0,.044.068.044.092,0a2.39,2.39,0,0,0,.223-.689c.068-.267.143-.53.207-.8a.147.147,0,0,0,0-.028.145.145,0,0,0-.144-.144A.145.145,0,0,0,54.3-187.526Z" transform="translate(-32.509 -135.507)" fill="#253237"/>
    <path id="Trazado_23491" data-name="Trazado 23491" d="M54.157-193.118c.04-.243.08-.486.124-.725s.108-.5.131-.753c0-.036.068-.028.064,0-.04.239-.044.49-.064.733s-.044.49-.068.737a13.34,13.34,0,0,1-.215,1.367,1.6,1.6,0,0,0,.665-.279,1.268,1.268,0,0,0,.359-.693c.072-.279.131-.558.207-.833a5.306,5.306,0,0,0,.211-.928c0-.04.068-.028.06,0a9.921,9.921,0,0,1-.367,1.952,1.08,1.08,0,0,1-.363.645,2.137,2.137,0,0,1-.8.239c-.032,0-.08,0-.076-.04A11.782,11.782,0,0,1,54.157-193.118Z" transform="translate(-32.502 -131.309)" fill="#253237"/>
    <path id="Trazado_23492" data-name="Trazado 23492" d="M20.49-185.062c-.1-1.064-.279-2.12-.4-3.187a19.679,19.679,0,0,1,.4-6.375c0-.04-.056-.056-.064,0a23.608,23.608,0,0,0-.566,5.578c.092,1.873.422,3.725.454,5.606s-.12,3.805-.243,5.706-.243,3.821-.367,5.73c-.494,7.682-.952,15.364-1.418,23.046-.131,2.144-.251,4.287-.375,6.435s-.279,4.363-.363,6.546c0,.191.275.175.291,0,.327-3.857.518-7.726.761-11.583s.466-7.642.7-11.463.462-7.642.689-11.463q.171-2.869.331-5.733c.112-1.9.251-3.805.279-5.714A28.428,28.428,0,0,0,20.49-185.062Z" transform="translate(-10.557 -131.285)" fill="#253237"/>
    <path id="Trazado_23493" data-name="Trazado 23493" d="M30.849-194.9a.036.036,0,0,0-.03-.016.036.036,0,0,0-.03.016,2.653,2.653,0,0,0-.135.8,5.6,5.6,0,0,1-.2.841,3.3,3.3,0,0,1-.869,1.458,7.062,7.062,0,0,1-3.307,1.458c-.044,0-.028.068,0,.072a5.294,5.294,0,0,0,2.052-.319,4.288,4.288,0,0,0,1.594-.889,2.957,2.957,0,0,0,.857-1.546,5.341,5.341,0,0,0,.1-.94v-.45A1.2,1.2,0,0,0,30.849-194.9Z" transform="translate(-15.792 -131.129)" fill="#253237"/>
    <path id="Trazado_23494" data-name="Trazado 23494" d="M52.606-274.53c1.486,1.845,9.132,7.865,15.826,7.032,2.789-.343,4.447-6.773,4.813-9.128.653-4.207,1.594-13.065,0-12.682-1.992.474-6.829,14.272-8.252,14.407-2.283.215-6.084-1.434-10.889-2.112C51.622-277.363,51.458-275.949,52.606-274.53Z" transform="translate(-31.234 -74.341)" fill="#eb9481"/>
    <path id="Trazado_23495" data-name="Trazado 23495" d="M52.1-255.631c1.837,2.391,7.686,6.124,7.686,6.124l.673-1.769,2.223-5.853s-5.227-1.307-8.674-1.821a7.485,7.485,0,0,0-1.219-.1C50.617-259.034,50.514-257.687,52.1-255.631Z" transform="translate(-30.691 -92.551)" fill="#8fcaf9"/>
    <path id="Trazado_23496" data-name="Trazado 23496" d="M52.1-255.631c1.837,2.391,7.686,6.124,7.686,6.124l.673-1.769c-2.239-2.3-5.686-5.773-7.67-7.773C50.617-259.034,50.514-257.687,52.1-255.631Z" transform="translate(-30.691 -92.551)" fill="#253237"/>
    <path id="Trazado_23497" data-name="Trazado 23497" d="M70.308-247.453c.363-1.076,1.992-5.411,2.422-6.327.032-.064.076-.06.056,0a63.741,63.741,0,0,1-2.434,6.331C70.34-247.417,70.3-247.425,70.308-247.453Z" transform="translate(-42.294 -95.693)" fill="#253237"/>
    <path id="Trazado_23498" data-name="Trazado 23498" d="M105.07-290.442c.4,1.028-1.044.893-1.044.893s1.992.689,1.992,1.9-1.737.94-1.861.924c.108.04,1.936.721,1.8,1.936s-1.833.741-1.94.705c.088.068,1.247.968.932,1.869-.542,1.542-3.586-.681-4.873-.426l.191,2.112a.732.732,0,0,1-.02.207l-1.072.147a14.111,14.111,0,0,0-1.1-1.893,5.549,5.549,0,0,1-1-2.084,1.2,1.2,0,0,1,.717-1.243c.487-.208-1.016-.558-.94-1.518.044-.494.869-.865.869-.865a1.436,1.436,0,0,1-.673-1.331c.1-.677.912-.944.912-.944a1.708,1.708,0,0,1-.227-1.478C98.38-292.861,104.249-292.65,105.07-290.442Z" transform="translate(-58.257 -72.514)" fill="#eb9481"/>
    <path id="Trazado_23499" data-name="Trazado 23499" d="M100.343-267.27l.283,1.833a.732.732,0,0,1-.02.207c-.279,2.355-2.853,3.964-3.148,2.291-.223-1.275,1.391-2.765.968-4.036Z" transform="translate(-58.614 -87.606)" fill="#eb9481"/>
    <path id="Trazado_23500" data-name="Trazado 23500" d="M99.94-287.055a10.19,10.19,0,0,1,6.032.562c.06.024.04.135-.032.116A20.972,20.972,0,0,0,99.94-287.055Z" transform="translate(-60.12 -75.571)" fill="#253237"/>
    <path id="Trazado_23501" data-name="Trazado 23501" d="M98.943-281.223c-.024,0-.024-.036,0-.04a9.54,9.54,0,0,1,6.538,1.052c.068.044.088.147,0,.108A17.306,17.306,0,0,0,98.943-281.223Z" transform="translate(-59.51 -79.079)" fill="#253237"/>
    <path id="Trazado_23502" data-name="Trazado 23502" d="M105.7-273.752a13.126,13.126,0,0,0-6.251-1.462c-.032,0-.028-.044,0-.048a8.653,8.653,0,0,1,3.586.127,5.906,5.906,0,0,1,2.725,1.315C105.745-273.792,105.721-273.728,105.7-273.752Z" transform="translate(-59.81 -82.714)" fill="#253237"/>
    <path id="Trazado_23503" data-name="Trazado 23503" d="M100.185-271.174c-.072-.371-.124-.721-.187-1.088,0-.036-.06-.024-.06,0,0,.526.06,1.036.076,1.562a4.658,4.658,0,0,1-.219,1.594,3.625,3.625,0,0,1-.673,1.227,1.93,1.93,0,0,1-1.255.8h-.008a.8.8,0,0,1-.8-.8.8.8,0,0,1,.008-.116,3.214,3.214,0,0,1,.542-1.339,4.915,4.915,0,0,0,.566-1.418,1.993,1.993,0,0,0-.259-1.291c-.139-.275-.283-.55-.426-.821a3.415,3.415,0,0,1-.323-.717,1.234,1.234,0,0,1,.594-1.371c.044,0,0-.08-.024-.056a1.693,1.693,0,0,0-.881.936,1.647,1.647,0,0,0,.235,1.343c.147.275.295.55.438.825a1.738,1.738,0,0,1,.291.928,4.784,4.784,0,0,1-.709,1.761,2.416,2.416,0,0,0-.4,1.47,1.106,1.106,0,0,0,.8.96c1.036.279,1.964-.857,2.359-1.673a4.18,4.18,0,0,0,.4-1.8A5.2,5.2,0,0,0,100.185-271.174Z" transform="translate(-58.178 -82.949)" fill="#253237"/>
    <path id="Trazado_23504" data-name="Trazado 23504" d="M105.183-267.827a2.843,2.843,0,0,0-.709-.323,3.376,3.376,0,0,0-.769-.155,1.992,1.992,0,0,0-.721.06,1.32,1.32,0,0,0-.566.363.031.031,0,0,0-.008.021.032.032,0,0,0,.032.032h.008a4.775,4.775,0,0,1,.622-.128,4.136,4.136,0,0,1,.665-.06,3.861,3.861,0,0,1,.709.084c.239.048.474.128.713.159l.012,0a.029.029,0,0,0,.029-.029A.029.029,0,0,0,105.183-267.827Z" transform="translate(-61.606 -86.977)" fill="#253237"/>
    <path id="Trazado_23505" data-name="Trazado 23505" d="M97.992-276.123l-.108-.072a1.959,1.959,0,0,1-.191-.171c-.064-.068-.128-.132-.183-.2a1.245,1.245,0,0,0-.1-.1l-.052-.052-.048-.072c0-.036-.076,0-.052.032a.779.779,0,0,1,.048.072.08.08,0,0,0,.028.072,1.4,1.4,0,0,0,.064.135,1.252,1.252,0,0,0,.179.251.641.641,0,0,0,.235.163.363.363,0,0,0,.131.04.217.217,0,0,0,.124,0A.333.333,0,0,0,97.992-276.123Z" transform="translate(-58.507 -81.868)" fill="#253237"/>
    <path id="Trazado_23506" data-name="Trazado 23506" d="M38.245-233.463c-.363.319-5.243.442-10.22.438-1.885,0-3.789-.024-5.467-.06-3.056-.064-4.725-.143-4.817-.287-.259-.4,3.725-13.83,6.307-18.774a19,19,0,0,1,3.945-5.63,6.232,6.232,0,0,1,1.335-1.076c.259-.12.5-.219.737-.335,1.2-.57,4.443-.02,4.953.251.582.3,2.171,3.355,2.494,5.841S38.56-233.746,38.245-233.463Z" transform="translate(-10.666 -92.319)" fill="#8fcaf9"/>
    <path id="Trazado_23507" data-name="Trazado 23507" d="M18.62-201.229H38.857c0-.526,0-1.155-.028-1.861H19.13Z" transform="translate(-11.201 -126.214)" fill="rgba(0,0,0,0.1)"/>
    <path id="Trazado_23508" data-name="Trazado 23508" d="M43.511-251.181c-.355,3.522,4.231,14.989,6.805,17.009,3.829,3,12.2,5.06,14.666,5.578,1.072.231,2.757-8.837,1.618-9.1-2.5-.582-10.411-1.65-11.116-2.171a73.738,73.738,0,0,1-7.228-9.327C45.511-253.543,43.69-252.966,43.511-251.181Z" transform="translate(-26.163 -96.479)" fill="#eb9481"/>
    <path id="Trazado_23509" data-name="Trazado 23509" d="M101.8-209.777c.634-.892-.8-1.128-.8-1.128s2.12-.151,2.415-1.327-1.434-1.355-1.558-1.371c.112,0,2.056-.2,2.231-1.41s-1.594-1.2-1.693-1.2c.1-.044,1.458-.618,1.383-1.566-.127-1.634-4.02-.307-5.212-.885v-2.171a11.454,11.454,0,0,1-1.446,1.351c-.677.618-1.259,1.016-1.45,1.554a1.2,1.2,0,0,0,.371,1.383c.415.327-1.128.283-1.295,1.227-.088.49.618,1.06.618,1.06a1.432,1.432,0,0,0-.992,1.112A1.38,1.38,0,0,0,95.008-212a1.707,1.707,0,0,0-.6,1.371C94.709-209.168,100.439-207.881,101.8-209.777Z" transform="translate(-56.766 -115.542)" fill="#eb9481"/>
    <path id="Trazado_23510" data-name="Trazado 23510" d="M96.251-198.42s-.028.02,0,.028a10.181,10.181,0,0,0,5.977.976c.064,0,.076-.12,0-.124A20.912,20.912,0,0,1,96.251-198.42Z" transform="translate(-57.894 -129.024)" fill="#253237"/>
    <path id="Trazado_23511" data-name="Trazado 23511" d="M96.8-204.31c-.024,0-.036.028,0,.04a9.522,9.522,0,0,0,6.59.657c.076-.02.124-.116.032-.1A17.123,17.123,0,0,1,96.8-204.31Z" transform="translate(-58.215 -125.48)" fill="#253237"/>
    <path id="Trazado_23512" data-name="Trazado 23512" d="M105.183-209.759a13.121,13.121,0,0,1-6.419-.191c-.028,0-.036.032,0,.044a8.674,8.674,0,0,0,3.482.8,5.86,5.86,0,0,0,2.968-.57C105.238-209.7,105.23-209.771,105.183-209.759Z" transform="translate(-59.398 -122.087)" fill="#253237"/>
    <path id="Trazado_23513" data-name="Trazado 23513" d="M46.087-252.3c-3.088-3.769-4.658-2.179-3.793,2.088a69.557,69.557,0,0,0,2.562,8.67l6.837-3.929Z" transform="translate(-25.301 -95.336)" fill="#8fcaf9"/>
    <path id="Trazado_23514" data-name="Trazado 23514" d="M54.662-246.3c.4.49.841.972,1.267,1.454-.12-.251-.223-.506-.319-.765h0c.092.2.2.4.283.59.044.1.088.2.135.287a.311.311,0,0,0,.028.064c.331.375.661.753.98,1.136.4.462.753.928,1.124,1.4s.757,1.056,1.159,1.522c.036.04-.606.351-.665.4s-.108-.02-.04-.044a5.111,5.111,0,0,0,.566-.4c-.375-.47-.8-.9-1.2-1.363s-.773-.912-1.147-1.379c-.761-.944-1.47-1.932-2.227-2.885C54.634-246.3,54.654-246.309,54.662-246.3Z" transform="translate(-32.851 -100.219)" fill="#253237"/>
    <path id="Trazado_23515" data-name="Trazado 23515" d="M43.237-239.391c.124.2.255.4.367.61.044.088.088.175.135.259q-.323-1.128-.641-2.267h0c.4,1.219.829,2.438,1.2,3.666a36.044,36.044,0,0,1,1.056,3.558,4.031,4.031,0,0,1,.649-.271,3.354,3.354,0,0,1-.705.4,37.255,37.255,0,0,1-1.2-3.694c-.1-.339-.2-.677-.295-1.02-.1-.2-.207-.4-.315-.59s-.211-.422-.315-.637C43.213-239.391,43.233-239.4,43.237-239.391Z" transform="translate(-25.869 -103.332)" fill="#253237"/>
    <path id="Trazado_23516" data-name="Trazado 23516" d="M49.15-230.4c.944-.626,4.9-3.04,5.8-3.506.06-.032.1,0,.036.04a62.76,62.76,0,0,1-5.805,3.5C49.15-230.344,49.118-230.38,49.15-230.4Z" transform="translate(-29.559 -107.666)" fill="#253237"/>
    <path id="Trazado_23517" data-name="Trazado 23517" d="M53.87-262.546c-1.163.171-2.976-1.741-3.63-3.223a23.149,23.149,0,0,1,.418-2.355c.135-.753.271-1.594.339-2.391,0-.159.53.179.53.179l.984.331L55.79-268.9a12.471,12.471,0,0,0-.725,2.948,1.677,1.677,0,0,0,0,.319v.04C55.1-264.96,54.993-262.713,53.87-262.546Z" transform="translate(-30.223 -85.628)" fill="#eb9481"/>
    <path id="Trazado_23518" data-name="Trazado 23518" d="M56.533-265.024v.04a3.105,3.105,0,0,1-.5,0c-3.279-.355-3.331-4.566-3.331-4.566l1.291.167,3.279,1.092a12.472,12.472,0,0,0-.725,2.948A1.678,1.678,0,0,0,56.533-265.024Z" transform="translate(-31.702 -86.234)" fill="#253237"/>
    <path id="Trazado_23519" data-name="Trazado 23519" d="M49.456-287.246c-.4,1.769.849,6.71,2.16,7.738,1.9,1.494,4.829,1.45,6.056-.8,1.2-2.171-.566-8.578-1.992-9.5A4.355,4.355,0,0,0,49.456-287.246Z" transform="translate(-29.706 -73.726)" fill="#eb9481"/>
    <path id="Trazado_23520" data-name="Trazado 23520" d="M62.251-275.23v.036c.092.331.143.725-.131.908v.02C62.467-274.409,62.395-274.931,62.251-275.23Z" transform="translate(-37.369 -82.817)" fill="#253237"/>
    <path id="Trazado_23521" data-name="Trazado 23521" d="M61.013-275.925c-.546.1-.319,1.2.183,1.092S61.471-275.992,61.013-275.925Z" transform="translate(-36.513 -82.398)" fill="#253237"/>
    <path id="Trazado_23522" data-name="Trazado 23522" d="M67.25-276.42s.028,0,.032.024c.06.339.183.717.51.765C67.413-275.587,67.25-276.089,67.25-276.42Z" transform="translate(-40.455 -82.101)" fill="#253237"/>
    <path id="Trazado_23523" data-name="Trazado 23523" d="M67.475-277.483c.53-.155.8.92.307,1.064S67.028-277.336,67.475-277.483Z" transform="translate(-40.453 -81.453)" fill="#253237"/>
    <path id="Trazado_23524" data-name="Trazado 23524" d="M59.662-278.26a4.183,4.183,0,0,0,.4-.235.75.75,0,0,0,.351-.315.236.236,0,0,0-.1-.271.57.57,0,0,0-.582.06.841.841,0,0,0-.4.462.248.248,0,0,0-.01.069.248.248,0,0,0,.247.247A.245.245,0,0,0,59.662-278.26Z" transform="translate(-35.688 -80.469)" fill="#253237"/>
    <path id="Trazado_23525" data-name="Trazado 23525" d="M67.1-280.043a3.46,3.46,0,0,1-.454-.024.745.745,0,0,1-.462-.108.235.235,0,0,1-.048-.267.579.579,0,0,1,.546-.227.839.839,0,0,1,.574.215.247.247,0,0,1,.063.165A.248.248,0,0,1,67.1-280.043Z" transform="translate(-39.772 -79.542)" fill="#253237"/>
    <path id="Trazado_23526" data-name="Trazado 23526" d="M62.9-267.611c.1.064.2.155.323.139a.928.928,0,0,0,.343-.159c.1-.076.024,0,.02,0a.459.459,0,0,1-.4.271.364.364,0,0,1-.327-.239C62.86-267.607,62.884-267.619,62.9-267.611Z" transform="translate(-37.814 -87.368)" fill="#253237"/>
    <path id="Trazado_23527" data-name="Trazado 23527" d="M63.3-276.2a1.155,1.155,0,0,0,.869.351,1.341,1.341,0,0,0,.4-.068.462.462,0,0,0,.08-.024l.068-.028a.08.08,0,0,0,.052-.088.1.1,0,0,0,0-.032v-.028c-.048-.263-.155-.649-.155-.649.1.028.634.143.6,0a17.5,17.5,0,0,0-1.171-3.359.032.032,0,0,0-.03-.02.033.033,0,0,0-.032.032.034.034,0,0,0,0,.012c.247,1.072.681,2.1.944,3.188a1.957,1.957,0,0,0-.574-.052c-.032,0,.223.745.231.865a1.622,1.622,0,0,1-1.263-.12C63.3-276.248,63.273-276.216,63.3-276.2Z" transform="translate(-38.072 -79.863)" fill="#253237"/>
    <path id="Trazado_23528" data-name="Trazado 23528" d="M64.344-270.069a1.365,1.365,0,0,1-.454.534.62.62,0,0,1-.367.1c-.283,0-.343-.259-.335-.482a1.507,1.507,0,0,1,.052-.347A1.8,1.8,0,0,0,64.344-270.069Z" transform="translate(-38.012 -85.807)" fill="#253237"/>
    <path id="Trazado_23529" data-name="Trazado 23529" d="M63.89-269.025a.62.62,0,0,1-.367.1c-.283,0-.343-.259-.335-.482A.652.652,0,0,1,63.89-269.025Z" transform="translate(-38.012 -86.317)" fill="#ff98b9"/>
    <path id="Trazado_23530" data-name="Trazado 23530" d="M54.885-292.162c-1.49,1.57-4.263.275-4.263.275a1.941,1.941,0,0,1-1.665,1.614c-.849.109.291,3.028-.486,3.187-1.2.247-2.422-3.7-2.215-4.57a2.161,2.161,0,0,1,1.147-1.3,1.993,1.993,0,0,1,.554-1.347c.677-.8,3.654-.558,3.654-.558a2.658,2.658,0,0,1,.506-1.12.749.749,0,0,1,.6-.3.749.749,0,0,1,.475.17,1.817,1.817,0,0,0-.128.8c.048.9.753.741.578-.04a1.251,1.251,0,0,0-.45-.749c.239-.586.773-.877,1.2-.677C55.12-296.422,56.12-293.473,54.885-292.162Z" transform="translate(-27.812 -69.813)" fill="#253237"/>
    <path id="Trazado_23531" data-name="Trazado 23531" d="M49.647-274.237s-1.271-1.514-1.968-1.048.359,2.733,1.247,2.976a.879.879,0,0,0,.3.051.879.879,0,0,0,.836-.613Z" transform="translate(-28.545 -82.731)" fill="#eb9481"/>
    <path id="Trazado_23532" data-name="Trazado 23532" d="M48.82-273.54a2.22,2.22,0,0,1,1.267,1.307.486.486,0,0,0-.4-.2.486.486,0,0,0-.337.136c-.091.087,0,.036,0,.032a.539.539,0,0,1,.61.135,2.481,2.481,0,0,1,.327.454c.032.048.127,0,.1-.048C50.346-272.512,49.653-273.536,48.82-273.54Z" transform="translate(-29.368 -83.834)" fill="#253237"/>
  </g>
</svg>
