<svg xmlns="http://www.w3.org/2000/svg" width="381.7" height="364.486" viewBox="0 0 381.7 364.486">
  <g id="Grupo_2677" data-name="Grupo 2677" transform="translate(3 -223.309)">
    <g id="Grupo_1343" data-name="Grupo 1343" transform="translate(94.38 717.672) rotate(-13)">
      <path id="Trazado_4361" data-name="Trazado 4361" d="M245.392-382.765c-34.66-22.887-83.051-46.8-129.081-49.754s-65.7,12.146-77.452,23.455c-16.292,15.676-36.584,47.886-8.437,105.5,21.351,43.7-7.295,56.931-25.3,89.279-19.759,35.476,18.846,77.119,94.415,80.67,79.881,3.737,145.892-25.607,191.771-70.593,27.31-26.763,31.836-58.654,31.206-73.97C321.016-314.089,295.734-349.545,245.392-382.765Z" transform="translate(0)" fill="#20FFD7"/>
    </g>
    <path id="Trazado_4952" data-name="Trazado 4952" d="M232.059-385.489c-32.777-21.644-78.538-44.256-122.068-47.051S47.86-421.053,36.747-410.359c-15.407,14.824-34.6,45.284-7.978,99.77,20.191,41.324-6.9,53.838-23.921,84.429-18.686,33.549,17.822,72.929,89.285,76.287,75.541,3.534,137.966-24.216,181.352-66.757C301.31-241.94,305.591-272.1,305-286.583,303.575-320.544,279.667-354.073,232.059-385.489Z" transform="translate(35 696.18)" fill="#1D1D1D"/>
  </g>
</svg>
